G04*
G04 #@! TF.GenerationSoftware,Altium Limited,Altium Designer,24.6.1 (21)*
G04*
G04 Layer_Color=32768*
%FSLAX25Y25*%
%MOIN*%
G70*
G04*
G04 #@! TF.SameCoordinates,1986151C-97A1-4A67-A93D-4D8E7053BCD9*
G04*
G04*
G04 #@! TF.FilePolarity,Positive*
G04*
G01*
G75*
%ADD84C,0.00394*%
%ADD85C,0.00200*%
%ADD86C,0.00197*%
G36*
X19588Y148516D02*
X18800D01*
Y150484D01*
X19588D01*
Y148516D01*
D02*
G37*
G36*
X16438D02*
X15887D01*
X15885Y148420D01*
X15747Y148285D01*
X15555D01*
X15417Y148420D01*
X15415Y148516D01*
X15417Y148612D01*
X15555Y148747D01*
X15651D01*
Y150484D01*
X16438D01*
Y148516D01*
D02*
G37*
G36*
X19588Y144682D02*
X18800D01*
Y146651D01*
X19588D01*
Y144682D01*
D02*
G37*
G36*
X16438D02*
X15887D01*
X15885Y144586D01*
X15747Y144451D01*
X15555D01*
X15417Y144586D01*
X15415Y144683D01*
X15417Y144779D01*
X15555Y144914D01*
X15651D01*
Y146651D01*
X16438D01*
Y144682D01*
D02*
G37*
G36*
X19588Y140849D02*
X18800D01*
Y142818D01*
X19588D01*
Y140849D01*
D02*
G37*
G36*
X16438D02*
X15887D01*
X15885Y140753D01*
X15747Y140618D01*
X15555D01*
X15417Y140753D01*
X15415Y140849D01*
X15417Y140946D01*
X15555Y141081D01*
X15651D01*
Y142818D01*
X16438D01*
Y140849D01*
D02*
G37*
G36*
X19588Y137016D02*
X18800D01*
Y138984D01*
X19588D01*
Y137016D01*
D02*
G37*
G36*
X16438D02*
X15887D01*
X15885Y136920D01*
X15747Y136785D01*
X15555D01*
X15417Y136920D01*
X15415Y137016D01*
X15417Y137112D01*
X15555Y137247D01*
X15651D01*
Y138984D01*
X16438D01*
Y137016D01*
D02*
G37*
G36*
X62536Y116492D02*
X62668Y116355D01*
X62668Y116165D01*
X62536Y116028D01*
X62441Y116024D01*
D01*
X62441D01*
X62441D01*
Y116024D01*
X62346Y116028D01*
X62214Y116165D01*
X62215Y116355D01*
X62346Y116492D01*
X62441Y116496D01*
X62536Y116492D01*
D02*
G37*
G36*
X56142Y112323D02*
X53386D01*
Y115079D01*
X56142D01*
Y112323D01*
D02*
G37*
G36*
X17166Y112323D02*
X14410D01*
Y115079D01*
X17166D01*
Y112323D01*
D02*
G37*
G36*
X51811Y111930D02*
X50236D01*
Y115079D01*
X51811D01*
Y111930D01*
D02*
G37*
G36*
X48661D02*
X47087D01*
Y115079D01*
X48661D01*
Y111930D01*
D02*
G37*
G36*
X45512D02*
X43937D01*
Y115079D01*
X45512D01*
Y111930D01*
D02*
G37*
G36*
X42362D02*
X40787D01*
Y115079D01*
X42362D01*
Y111930D01*
D02*
G37*
G36*
X39213D02*
X37638D01*
Y115079D01*
X39213D01*
Y111930D01*
D02*
G37*
G36*
X36063D02*
X34488D01*
Y115079D01*
X36063D01*
Y111930D01*
D02*
G37*
G36*
X32913D02*
X31339D01*
Y115079D01*
X32913D01*
Y111930D01*
D02*
G37*
G36*
X29764D02*
X28189D01*
Y115079D01*
X29764D01*
Y111930D01*
D02*
G37*
G36*
X26614D02*
X25039D01*
Y115079D01*
X26614D01*
Y111930D01*
D02*
G37*
G36*
X23464D02*
X21890D01*
Y115079D01*
X23464D01*
Y111930D01*
D02*
G37*
G36*
X20315D02*
X18740D01*
Y115079D01*
X20315D01*
Y111930D01*
D02*
G37*
G36*
X56535Y108386D02*
X53386D01*
Y109961D01*
X56535D01*
Y108386D01*
D02*
G37*
G36*
X17165D02*
X14016D01*
Y109961D01*
X17165D01*
Y108386D01*
D02*
G37*
G36*
X56535Y105237D02*
X53386D01*
Y106811D01*
X56535D01*
Y105237D01*
D02*
G37*
G36*
X17165D02*
X14016D01*
Y106811D01*
X17165D01*
Y105237D01*
D02*
G37*
G36*
X56535Y102087D02*
X53386D01*
Y103662D01*
X56535D01*
Y102087D01*
D02*
G37*
G36*
X17165D02*
X14016D01*
Y103662D01*
X17165D01*
Y102087D01*
D02*
G37*
G36*
X56535Y98937D02*
X53386D01*
Y100512D01*
X56535D01*
Y98937D01*
D02*
G37*
G36*
X17165D02*
X14016D01*
Y100512D01*
X17165D01*
Y98937D01*
D02*
G37*
G36*
X56535Y95788D02*
X53386D01*
Y97363D01*
X56535D01*
Y95788D01*
D02*
G37*
G36*
X17165D02*
X14016D01*
Y97363D01*
X17165D01*
Y95788D01*
D02*
G37*
G36*
X45906Y95197D02*
X40197D01*
Y100906D01*
X45906D01*
Y95197D01*
D02*
G37*
G36*
X38130Y95197D02*
X32421D01*
Y100906D01*
X38130D01*
Y95197D01*
D02*
G37*
G36*
X30354D02*
X24646D01*
Y100906D01*
X30354D01*
Y95197D01*
D02*
G37*
G36*
X56535Y92638D02*
X53386D01*
Y94213D01*
X56535D01*
Y92638D01*
D02*
G37*
G36*
X17165D02*
X14016D01*
Y94213D01*
X17165D01*
Y92638D01*
D02*
G37*
G36*
X56535Y89489D02*
X53386D01*
Y91063D01*
X56535D01*
Y89489D01*
D02*
G37*
G36*
X17165D02*
X14016D01*
Y91063D01*
X17165D01*
Y89489D01*
D02*
G37*
G36*
X45906Y87422D02*
X40197D01*
Y93130D01*
X45906D01*
Y87422D01*
D02*
G37*
G36*
X38130D02*
X32421D01*
Y93130D01*
X38130D01*
Y87422D01*
D02*
G37*
G36*
X30354D02*
X24646D01*
Y93130D01*
X30354D01*
Y87422D01*
D02*
G37*
G36*
X56535Y86339D02*
X53386D01*
Y87914D01*
X56535D01*
Y86339D01*
D02*
G37*
G36*
X17165Y86339D02*
X14016D01*
Y87914D01*
X17165D01*
Y86339D01*
D02*
G37*
G36*
X56535Y83189D02*
X53386D01*
Y84764D01*
X56535D01*
Y83189D01*
D02*
G37*
G36*
X17165D02*
X14016D01*
Y84764D01*
X17165D01*
Y83189D01*
D02*
G37*
G36*
X56535Y80040D02*
X53386D01*
Y81615D01*
X56535D01*
Y80040D01*
D02*
G37*
G36*
X17165D02*
X14016D01*
Y81615D01*
X17165D01*
Y80040D01*
D02*
G37*
G36*
X38130Y79646D02*
X32421D01*
Y85355D01*
X38130D01*
Y79646D01*
D02*
G37*
G36*
X30354D02*
X24646D01*
Y85355D01*
X30354D01*
Y79646D01*
D02*
G37*
G36*
X45906Y79646D02*
X40197D01*
Y85355D01*
X45906D01*
Y79646D01*
D02*
G37*
G36*
X56535Y76890D02*
X53386D01*
Y78465D01*
X56535D01*
Y76890D01*
D02*
G37*
G36*
X17165D02*
X14016D01*
Y78465D01*
X17165D01*
Y76890D01*
D02*
G37*
G36*
X56535Y73741D02*
X53386D01*
Y75315D01*
X56535D01*
Y73741D01*
D02*
G37*
G36*
X17165D02*
X14016D01*
Y75315D01*
X17165D01*
Y73741D01*
D02*
G37*
G36*
X56535Y70591D02*
X53386D01*
Y72166D01*
X56535D01*
Y70591D01*
D02*
G37*
G36*
X17165D02*
X14016D01*
Y72166D01*
X17165D01*
Y70591D01*
D02*
G37*
G36*
X56142Y65473D02*
X53386D01*
Y68229D01*
X56142D01*
Y65473D01*
D02*
G37*
G36*
X17166Y65473D02*
X14410D01*
Y68229D01*
X17166D01*
Y65473D01*
D02*
G37*
G36*
X51811Y65473D02*
X50236D01*
Y68622D01*
X51811D01*
Y65473D01*
D02*
G37*
G36*
X48661D02*
X47087D01*
Y68622D01*
X48661D01*
Y65473D01*
D02*
G37*
G36*
X45512D02*
X43937D01*
Y68622D01*
X45512D01*
Y65473D01*
D02*
G37*
G36*
X42362D02*
X40787D01*
Y68622D01*
X42362D01*
Y65473D01*
D02*
G37*
G36*
X39213D02*
X37638D01*
Y68622D01*
X39213D01*
Y65473D01*
D02*
G37*
G36*
X36063D02*
X34488D01*
Y68622D01*
X36063D01*
Y65473D01*
D02*
G37*
G36*
X32913D02*
X31339D01*
Y68622D01*
X32913D01*
Y65473D01*
D02*
G37*
G36*
X29764D02*
X28189D01*
Y68622D01*
X29764D01*
Y65473D01*
D02*
G37*
G36*
X26614D02*
X25039D01*
Y68622D01*
X26614D01*
Y65473D01*
D02*
G37*
G36*
X23464D02*
X21890D01*
Y68622D01*
X23464D01*
Y65473D01*
D02*
G37*
G36*
X20315D02*
X18740D01*
Y68622D01*
X20315D01*
Y65473D01*
D02*
G37*
G36*
X14984Y50300D02*
X13016D01*
Y51087D01*
X14984D01*
Y50300D01*
D02*
G37*
G36*
Y47387D02*
X15080Y47385D01*
X15215Y47247D01*
Y47055D01*
X15080Y46917D01*
X14984Y46915D01*
X14888Y46917D01*
X14753Y47055D01*
Y47150D01*
X13016D01*
Y47938D01*
X14984D01*
Y47387D01*
D02*
G37*
G36*
X27634Y41129D02*
X27638Y41034D01*
X27638Y41034D01*
X27634Y40938D01*
X27497Y40806D01*
X27306Y40806D01*
X27169Y40938D01*
X27165Y41034D01*
X27165Y41034D01*
X27169Y41129D01*
X27306Y41261D01*
X27497Y41261D01*
X27634Y41129D01*
D02*
G37*
G36*
X38504Y38278D02*
X37716D01*
Y41034D01*
X38504D01*
Y38278D01*
D02*
G37*
G36*
X58385Y38277D02*
X56811D01*
Y41033D01*
X58385D01*
Y38277D01*
D02*
G37*
G36*
X55236D02*
X53662D01*
Y41033D01*
X55236D01*
Y38277D01*
D02*
G37*
G36*
X52284D02*
X51496D01*
Y41033D01*
X52284D01*
Y38277D01*
D02*
G37*
G36*
X50315D02*
X49527D01*
Y41033D01*
X50315D01*
Y38277D01*
D02*
G37*
G36*
X48347D02*
X47559D01*
Y41033D01*
X48347D01*
Y38277D01*
D02*
G37*
G36*
X46378D02*
X45590D01*
Y41033D01*
X46378D01*
Y38277D01*
D02*
G37*
G36*
X44410D02*
X43622D01*
Y41033D01*
X44410D01*
Y38277D01*
D02*
G37*
G36*
X42441D02*
X41653D01*
Y41033D01*
X42441D01*
Y38277D01*
D02*
G37*
G36*
X40473D02*
X39685D01*
Y41033D01*
X40473D01*
Y38277D01*
D02*
G37*
G36*
X36338D02*
X34764D01*
Y41033D01*
X36338D01*
Y38277D01*
D02*
G37*
G36*
X33188D02*
X31614D01*
Y41033D01*
X33188D01*
Y38277D01*
D02*
G37*
G36*
X62599Y34872D02*
X61417D01*
Y39202D01*
X62599D01*
Y34872D01*
D02*
G37*
G36*
X28583D02*
X27401D01*
Y39202D01*
X28583D01*
Y34872D01*
D02*
G37*
G36*
X62599Y19124D02*
X61417D01*
Y22274D01*
X62599D01*
Y19124D01*
D02*
G37*
G36*
X28583D02*
X27401D01*
Y22274D01*
X28583D01*
Y19124D01*
D02*
G37*
D84*
X68032Y104500D02*
X71969D01*
X70000Y102532D02*
Y106468D01*
X50000Y51531D02*
Y55468D01*
X48031Y53500D02*
X51968D01*
X62000Y137031D02*
Y140969D01*
X60031Y139000D02*
X63968D01*
X63000Y165532D02*
Y169468D01*
X61032Y167500D02*
X64969D01*
X17500Y26531D02*
Y30468D01*
X15531Y28500D02*
X19468D01*
X70031D02*
X73968D01*
X72000Y26531D02*
Y30468D01*
X70000Y71031D02*
Y74968D01*
X68032Y73000D02*
X71969D01*
D85*
X13228Y116260D02*
X62441D01*
Y64292D02*
Y116260D01*
X13228Y64292D02*
X62441D01*
X13228D02*
Y116260D01*
X27402Y10268D02*
X62598D01*
Y39206D01*
X27402D02*
X62598D01*
X27402Y10268D02*
Y39206D01*
X13016Y47150D02*
X14984D01*
X13016D02*
Y51087D01*
X14984D01*
Y47150D02*
Y51087D01*
X15651Y144682D02*
X19588D01*
Y146651D01*
X15651D02*
X19588D01*
X15651Y144682D02*
Y146651D01*
Y137016D02*
X19588D01*
Y138984D01*
X15651D02*
X19588D01*
X15651Y137016D02*
Y138984D01*
Y148516D02*
X19588D01*
Y150484D01*
X15651D02*
X19588D01*
X15651Y148516D02*
Y150484D01*
Y140849D02*
X19588D01*
Y142818D01*
X15651D02*
X19588D01*
X15651Y140849D02*
Y142818D01*
D86*
X76693Y93378D02*
Y115622D01*
X63307Y93378D02*
Y115622D01*
X76693D01*
X63307Y93378D02*
X76693D01*
X41634Y60587D02*
X58366D01*
X41634Y46413D02*
X58366D01*
X41634D02*
Y60587D01*
X58366Y46413D02*
Y60587D01*
X50976Y124433D02*
X73024D01*
X50976Y153567D02*
X73024D01*
X50976Y124433D02*
Y153567D01*
X73024Y124433D02*
Y153567D01*
X66917Y120728D02*
X69083D01*
X68000Y119646D02*
Y121811D01*
X66425Y117579D02*
Y123878D01*
X69575Y117579D02*
Y123878D01*
X66425Y117579D02*
X69575D01*
X66425Y123878D02*
X69575D01*
X50402Y157067D02*
X75598D01*
X50402Y177933D02*
X75598D01*
Y157067D02*
Y177933D01*
X50402Y157067D02*
Y177933D01*
X39130Y179256D02*
X42870D01*
X41000Y177386D02*
Y181126D01*
X43165Y174728D02*
Y183783D01*
X38835Y174728D02*
Y183783D01*
X43165D01*
X38835Y174728D02*
X43165D01*
X13425Y174425D02*
X16575D01*
X13425Y180724D02*
X16575D01*
X13425Y174425D02*
Y180724D01*
X16575Y174425D02*
Y180724D01*
X15000Y176394D02*
Y178756D01*
X13819Y177575D02*
X16181D01*
X33319Y151500D02*
X35681D01*
X34500Y150319D02*
Y152681D01*
X32925Y148350D02*
Y154650D01*
X36075Y148350D02*
Y154650D01*
X32925Y148350D02*
X36075D01*
X32925Y154650D02*
X36075D01*
X38630Y132685D02*
X42370D01*
X40500Y130815D02*
Y134555D01*
X42665Y128157D02*
Y137213D01*
X38335Y128157D02*
Y137213D01*
X42665D01*
X38335Y128157D02*
X42665D01*
X72630Y153000D02*
X76370D01*
X74500Y151130D02*
Y154870D01*
X72335Y148472D02*
Y157527D01*
X76665Y148472D02*
Y157527D01*
X72335Y148472D02*
X76665D01*
X72335Y157527D02*
X76665D01*
X61925Y52925D02*
Y56075D01*
X68224Y52925D02*
Y56075D01*
X61925D02*
X68224D01*
X61925Y52925D02*
X68224D01*
X63894Y54500D02*
X66256D01*
X65075Y53319D02*
Y55681D01*
X61925Y57425D02*
Y60575D01*
X68224Y57425D02*
Y60575D01*
X61925D02*
X68224D01*
X61925Y57425D02*
X68224D01*
X63894Y59000D02*
X66256D01*
X65075Y57819D02*
Y60181D01*
X35075Y49819D02*
Y52181D01*
X33894Y51000D02*
X36256D01*
X31925Y52575D02*
X38224D01*
X31925Y49425D02*
X38224D01*
X31925D02*
Y52575D01*
X38224Y49425D02*
Y52575D01*
Y53925D02*
Y57075D01*
X31925Y53925D02*
Y57075D01*
Y53925D02*
X38224D01*
X31925Y57075D02*
X38224D01*
X33894Y55500D02*
X36256D01*
X35075Y54319D02*
Y56681D01*
X10807Y39622D02*
X24193D01*
X10807Y17378D02*
X24193D01*
Y39622D01*
X10807Y17378D02*
Y39622D01*
X65307Y17378D02*
Y39622D01*
X78693Y17378D02*
Y39622D01*
X65307Y17378D02*
X78693D01*
X65307Y39622D02*
X78693D01*
X65000Y42819D02*
Y45181D01*
X63819Y44000D02*
X66181D01*
X61850Y45575D02*
X68150D01*
X61850Y42425D02*
X68150D01*
X61850D02*
Y45575D01*
X68150Y42425D02*
Y45575D01*
X41972Y120835D02*
Y125165D01*
X51028Y120835D02*
Y125165D01*
X41972D02*
X51028D01*
X41972Y120835D02*
X51028D01*
X44630Y123000D02*
X48370D01*
X46500Y121130D02*
Y124870D01*
X44335Y154527D02*
X48665D01*
X44335Y145472D02*
X48665D01*
Y154527D01*
X44335Y145472D02*
Y154527D01*
X46500Y148130D02*
Y151870D01*
X44630Y150000D02*
X48370D01*
X38130D02*
X41870D01*
X40000Y148130D02*
Y151870D01*
X37835Y145472D02*
Y154527D01*
X42165Y145472D02*
Y154527D01*
X37835Y145472D02*
X42165D01*
X37835Y154527D02*
X42165D01*
X19650Y40925D02*
Y44075D01*
X13350Y40925D02*
Y44075D01*
Y40925D02*
X19650D01*
X13350Y44075D02*
X19650D01*
X15417Y42500D02*
X17583D01*
X16500Y41417D02*
Y43583D01*
X71925Y92150D02*
X75075D01*
X71925Y85850D02*
X75075D01*
Y92150D01*
X71925Y85850D02*
Y92150D01*
X73500Y87917D02*
Y90083D01*
X72417Y89000D02*
X74583D01*
X29650Y47925D02*
Y51075D01*
X23350Y47925D02*
Y51075D01*
Y47925D02*
X29650D01*
X23350Y51075D02*
X29650D01*
X25417Y49500D02*
X27583D01*
X26500Y48417D02*
Y50583D01*
X19925Y54150D02*
X23075D01*
X19925Y47850D02*
X23075D01*
Y54150D01*
X19925Y47850D02*
Y54150D01*
X21500Y49917D02*
Y52083D01*
X20417Y51000D02*
X22583D01*
X17417D02*
X19583D01*
X18500Y49917D02*
Y52083D01*
X16925Y47850D02*
Y54150D01*
X20075Y47850D02*
Y54150D01*
X16925Y47850D02*
X20075D01*
X16925Y54150D02*
X20075D01*
X12425Y60650D02*
X15575D01*
X12425Y54350D02*
X15575D01*
Y60650D01*
X12425Y54350D02*
Y60650D01*
X14000Y56417D02*
Y58583D01*
X12917Y57500D02*
X15083D01*
X45630Y132835D02*
X49370D01*
X47500Y130965D02*
Y134705D01*
X49665Y128307D02*
Y137362D01*
X45335Y128307D02*
Y137362D01*
X49665D01*
X45335Y128307D02*
X49665D01*
X33425Y131350D02*
X36575D01*
X33425Y137650D02*
X36575D01*
X33425Y131350D02*
Y137650D01*
X36575Y131350D02*
Y137650D01*
X35000Y133319D02*
Y135681D01*
X33819Y134500D02*
X36181D01*
X63307Y84122D02*
X76693D01*
X63307Y61878D02*
X76693D01*
Y84122D01*
X63307Y61878D02*
Y84122D01*
X20835Y174728D02*
X25165D01*
X20835Y183783D02*
X25165D01*
X20835Y174728D02*
Y183783D01*
X25165Y174728D02*
Y183783D01*
X23000Y177386D02*
Y181126D01*
X21130Y179256D02*
X24870D01*
X26925Y131150D02*
X30075D01*
X26925Y124850D02*
X30075D01*
Y131150D01*
X26925Y124850D02*
Y131150D01*
X28500Y126917D02*
Y129083D01*
X27417Y128000D02*
X29583D01*
X61850Y46425D02*
Y49575D01*
X68150Y46425D02*
Y49575D01*
X61850D02*
X68150D01*
X61850Y46425D02*
X68150D01*
X63917Y48000D02*
X66083D01*
X65000Y46917D02*
Y49083D01*
X65925Y91921D02*
X69075D01*
X65925Y85622D02*
X69075D01*
Y91921D01*
X65925Y85622D02*
Y91921D01*
X67500Y87689D02*
Y89854D01*
X66417Y88772D02*
X68583D01*
X26425Y54850D02*
X29575D01*
X26425Y61150D02*
X29575D01*
X26425Y54850D02*
Y61150D01*
X29575Y54850D02*
Y61150D01*
X28000Y56917D02*
Y59083D01*
X26917Y58000D02*
X29083D01*
X39150Y121425D02*
Y124575D01*
X32850Y121425D02*
Y124575D01*
Y121425D02*
X39150D01*
X32850Y124575D02*
X39150D01*
X34819Y123000D02*
X37181D01*
X36000Y121819D02*
Y124181D01*
X38224Y58425D02*
Y61575D01*
X31925Y58425D02*
Y61575D01*
Y58425D02*
X38224D01*
X31925Y61575D02*
X38224D01*
X33894Y60000D02*
X36256D01*
X35075Y58819D02*
Y61181D01*
X33425Y175350D02*
X36575D01*
X33425Y181650D02*
X36575D01*
X33425Y175350D02*
Y181650D01*
X36575Y175350D02*
Y181650D01*
X35000Y177319D02*
Y179681D01*
X33819Y178500D02*
X36181D01*
X45630Y179256D02*
X49370D01*
X47500Y177386D02*
Y181126D01*
X49665Y174728D02*
Y183783D01*
X45335Y174728D02*
Y183783D01*
X49665D01*
X45335Y174728D02*
X49665D01*
X57925Y117579D02*
X61075D01*
X57925Y123878D02*
X61075D01*
X57925Y117579D02*
Y123878D01*
X61075Y117579D02*
Y123878D01*
X59500Y119646D02*
Y121811D01*
X58417Y120728D02*
X60583D01*
X62425Y117579D02*
X65575D01*
X62425Y123878D02*
X65575D01*
X62425Y117579D02*
Y123878D01*
X65575Y117579D02*
Y123878D01*
X64000Y119646D02*
Y121811D01*
X62917Y120728D02*
X65083D01*
X27630Y179256D02*
X31370D01*
X29500Y177386D02*
Y181126D01*
X31665Y174728D02*
Y183783D01*
X27335Y174728D02*
Y183783D01*
X31665D01*
X27335Y174728D02*
X31665D01*
M02*
