G04*
G04 #@! TF.GenerationSoftware,Altium Limited,Altium Designer,24.6.1 (21)*
G04*
G04 Layer_Color=65535*
%FSLAX25Y25*%
%MOIN*%
G70*
G04*
G04 #@! TF.SameCoordinates,1986151C-97A1-4A67-A93D-4D8E7053BCD9*
G04*
G04*
G04 #@! TF.FilePolarity,Positive*
G04*
G01*
G75*
%ADD10C,0.00300*%
%ADD11C,0.01000*%
%ADD12C,0.00984*%
%ADD13C,0.00984*%
%ADD14C,0.00394*%
%ADD15C,0.00591*%
%ADD16C,0.00787*%
%ADD17C,0.00600*%
%ADD18C,0.00500*%
G36*
X15363Y45238D02*
X12637D01*
Y44638D01*
X15363D01*
Y45238D01*
D01*
D02*
G37*
G36*
X13738Y136637D02*
Y139363D01*
X13138D01*
Y136637D01*
X13738D01*
D01*
D02*
G37*
G36*
Y140470D02*
Y143196D01*
X13138D01*
Y140470D01*
X13738D01*
D01*
D02*
G37*
G36*
Y144304D02*
Y147030D01*
X13138D01*
Y144304D01*
X13738D01*
D01*
D02*
G37*
G36*
Y148137D02*
Y150863D01*
X13138D01*
Y148137D01*
X13738D01*
D01*
D02*
G37*
D10*
X12201Y128650D02*
X12274Y128752D01*
D11*
X52644Y118626D02*
X52106Y119366D01*
X51237Y119083D01*
Y118169D01*
X52106Y117886D01*
X52644Y118626D01*
X17319Y121563D02*
Y129043D01*
X27480Y25106D02*
Y32039D01*
X62520Y10315D02*
Y16292D01*
X27480Y10315D02*
X62520D01*
X27480D02*
Y16292D01*
X62520Y25106D02*
Y32039D01*
X78429Y16000D02*
Y185291D01*
X11500D02*
X78429D01*
X11500Y16000D02*
X78429D01*
X11500D02*
Y185291D01*
D12*
X55905Y46413D02*
X55167Y46840D01*
Y45987D01*
X55905Y46413D01*
D13*
X51646Y128272D02*
X50907Y128698D01*
Y127846D01*
X51646Y128272D01*
D14*
X68197Y120728D02*
D03*
X41197Y179256D02*
D03*
X40697Y132685D02*
D03*
X74697Y153000D02*
D03*
X46697Y123000D02*
D03*
Y150000D02*
D03*
X40197D02*
D03*
X16697Y42500D02*
D03*
X73697Y89000D02*
D03*
X26697Y49500D02*
D03*
X21697Y51000D02*
D03*
X18697D02*
D03*
X14197Y57500D02*
D03*
X47697Y132835D02*
D03*
X23197Y179256D02*
D03*
X28697Y128000D02*
D03*
X65197Y48000D02*
D03*
X67697Y88772D02*
D03*
X28197Y58000D02*
D03*
X47697Y179256D02*
D03*
X59697Y120728D02*
D03*
X64197D02*
D03*
X29697Y179256D02*
D03*
D15*
X12834Y116654D02*
X62441D01*
X12834Y63898D02*
Y116654D01*
Y63898D02*
X61654D01*
X62441D01*
Y64685D01*
Y116654D01*
D16*
X75217Y112374D02*
X75709D01*
X75217Y96626D02*
X75709D01*
X64291Y112374D02*
X64784D01*
X64291Y96626D02*
X64784D01*
X75709D02*
Y112374D01*
X64291Y96626D02*
Y112374D01*
X48228Y47398D02*
Y59602D01*
X51772Y47398D02*
Y59602D01*
X48228D02*
X51772D01*
X48228Y47398D02*
X51772D01*
X51961Y132701D02*
Y145299D01*
X72039Y132701D02*
Y145299D01*
X35291Y138154D02*
X46709D01*
X35291Y144846D02*
X46709D01*
Y138154D02*
Y138941D01*
Y144059D02*
Y144846D01*
X35291Y138154D02*
Y138941D01*
Y144059D02*
Y144846D01*
X39031Y138154D02*
Y144846D01*
X72449Y158051D02*
Y161693D01*
X53551Y158051D02*
Y161693D01*
X72449Y173307D02*
Y176949D01*
X53551Y173307D02*
Y176949D01*
Y158051D02*
X72449D01*
X53551Y176949D02*
X72449D01*
X43657Y176008D02*
Y179256D01*
X38342Y176008D02*
X38342Y179256D01*
X43158Y129437D02*
Y132685D01*
X37843Y129437D02*
X37843Y132685D01*
X71842Y153000D02*
Y156248D01*
X77157Y153000D02*
X77157Y156248D01*
X23209Y20626D02*
Y36374D01*
X11791Y20626D02*
Y36374D01*
X22716D02*
X23209D01*
X22716Y20626D02*
X23209D01*
X11791Y36374D02*
X12284D01*
X11791Y20626D02*
X12284D01*
X66291D02*
X66783D01*
X66291Y36374D02*
X66783D01*
X77217Y20626D02*
X77709D01*
X77217Y36374D02*
X77709D01*
X66291Y20626D02*
Y36374D01*
X77709Y20626D02*
Y36374D01*
X43252Y125657D02*
X46500Y125657D01*
X43252Y120343D02*
X46500D01*
X49158Y150000D02*
X49158Y153248D01*
X43843Y150000D02*
Y153248D01*
X37343Y150000D02*
Y153248D01*
X42658Y150000D02*
X42658Y153248D01*
X50157Y129587D02*
Y132835D01*
X44842Y129587D02*
X44842Y132835D01*
X69653Y49031D02*
X76346D01*
X69653Y45291D02*
X70441D01*
X75559D02*
X76346D01*
X69653Y56709D02*
X70441D01*
X75559D02*
X76346D01*
X69653Y45291D02*
Y56709D01*
X76346Y45291D02*
Y56709D01*
X75709Y65126D02*
Y80874D01*
X64291Y65126D02*
Y80874D01*
X75217D02*
X75709D01*
X75217Y65126D02*
X75709D01*
X64291Y80874D02*
X64784D01*
X64291Y65126D02*
X64784D01*
X20343Y176008D02*
X20343Y179256D01*
X25657Y176008D02*
Y179256D01*
X50157Y176008D02*
Y179256D01*
X44842Y176008D02*
X44842Y179256D01*
X32157Y176008D02*
Y179256D01*
X26842Y176008D02*
X26842Y179256D01*
D17*
X32043Y169100D02*
X33618D01*
X32043Y166100D02*
Y169100D01*
X30468Y166100D02*
X32043D01*
X16772Y175606D02*
X16772Y177575D01*
X13228Y175606D02*
Y177575D01*
X36272Y151500D02*
Y153469D01*
X32728Y151500D02*
X32728Y153469D01*
X63106Y52728D02*
X65075Y52728D01*
X63106Y56272D02*
X65075D01*
X63106Y57228D02*
X65075Y57228D01*
X63106Y60772D02*
X65075D01*
X35075Y49228D02*
X37043D01*
X35075Y52772D02*
X37043Y52772D01*
X35075Y57272D02*
X37043Y57272D01*
X35075Y53728D02*
X37043D01*
X18700Y168600D02*
X19900D01*
X18700Y165600D02*
Y168600D01*
X16600Y165600D02*
X18600D01*
X65000Y42228D02*
X66969D01*
X65000Y45772D02*
X66969Y45772D01*
X36772Y132531D02*
X36772Y134500D01*
X33228Y132531D02*
Y134500D01*
X36000Y124772D02*
X37969Y124772D01*
X36000Y121228D02*
X37969D01*
X35075Y61772D02*
X37043Y61772D01*
X35075Y58228D02*
X37043D01*
X36772Y176532D02*
X36772Y178500D01*
X33228Y176532D02*
Y178500D01*
D18*
X32334Y120750D02*
Y118667D01*
X32750Y118250D01*
X33584D01*
X34000Y118667D01*
Y120750D01*
X34833Y118250D02*
X35666D01*
X35250D01*
Y120750D01*
X34833Y120333D01*
X44250Y23333D02*
X43834Y23750D01*
X43001D01*
X42584Y23333D01*
Y21667D01*
X43001Y21250D01*
X43834D01*
X44250Y21667D01*
X45083Y21250D02*
Y23750D01*
X46750Y21250D01*
Y23750D01*
X47583Y21250D02*
X48416D01*
X47999D01*
Y23750D01*
X47583Y23333D01*
X68834Y104333D02*
X68417Y104750D01*
X67584D01*
X67168Y104333D01*
Y103917D01*
X67584Y103500D01*
X68417D01*
X68834Y103084D01*
Y102667D01*
X68417Y102250D01*
X67584D01*
X67168Y102667D01*
X69667Y104750D02*
Y102250D01*
X70500Y103084D01*
X71333Y102250D01*
Y104750D01*
X73416Y102250D02*
Y104750D01*
X72166Y103500D01*
X73832D01*
X15667Y26250D02*
X15250Y25834D01*
Y25001D01*
X15667Y24584D01*
X16083D01*
X16500Y25001D01*
Y25834D01*
X16917Y26250D01*
X17333D01*
X17750Y25834D01*
Y25001D01*
X17333Y24584D01*
X15250Y27084D02*
X17750D01*
X16917Y27916D01*
X17750Y28750D01*
X15250D01*
X17750Y29583D02*
Y30416D01*
Y29999D01*
X15250D01*
X15667Y29583D01*
X70167Y25834D02*
X69750Y25417D01*
Y24584D01*
X70167Y24168D01*
X70583D01*
X71000Y24584D01*
Y25417D01*
X71416Y25834D01*
X71833D01*
X72250Y25417D01*
Y24584D01*
X71833Y24168D01*
X69750Y26667D02*
X72250D01*
X71416Y27500D01*
X72250Y28333D01*
X69750D01*
X70167Y29166D02*
X69750Y29583D01*
Y30416D01*
X70167Y30832D01*
X70583D01*
X71000Y30416D01*
Y29999D01*
Y30416D01*
X71416Y30832D01*
X71833D01*
X72250Y30416D01*
Y29583D01*
X71833Y29166D01*
X68334Y73833D02*
X67917Y74250D01*
X67084D01*
X66668Y73833D01*
Y73417D01*
X67084Y73000D01*
X67917D01*
X68334Y72584D01*
Y72167D01*
X67917Y71750D01*
X67084D01*
X66668Y72167D01*
X69167Y74250D02*
Y71750D01*
X70000Y72584D01*
X70833Y71750D01*
Y74250D01*
X73332Y71750D02*
X71666D01*
X73332Y73417D01*
Y73833D01*
X72916Y74250D01*
X72083D01*
X71666Y73833D01*
X19500Y132999D02*
X20333D01*
X19917D01*
Y130500D01*
X19500D01*
X20333D01*
X22832Y132999D02*
X21999D01*
X21583Y132583D01*
Y130917D01*
X21999Y130500D01*
X22832D01*
X23249Y130917D01*
Y132583D01*
X22832Y132999D01*
X25748D02*
X24915Y132583D01*
X24082Y131750D01*
Y130917D01*
X24498Y130500D01*
X25332D01*
X25748Y130917D01*
Y131333D01*
X25332Y131750D01*
X24082D01*
M02*
