G04*
G04 #@! TF.GenerationSoftware,Altium Limited,Altium Designer,24.6.1 (21)*
G04*
G04 Layer_Color=8388736*
%FSLAX25Y25*%
%MOIN*%
G70*
G04*
G04 #@! TF.SameCoordinates,1986151C-97A1-4A67-A93D-4D8E7053BCD9*
G04*
G04*
G04 #@! TF.FilePolarity,Positive*
G04*
G01*
G75*
%ADD82C,0.01575*%
%ADD83C,0.00984*%
G36*
X16832Y137882D02*
X15887D01*
Y138118D01*
X16832D01*
Y137882D01*
D02*
G37*
G36*
X18997Y138118D02*
X19351D01*
Y137882D01*
X18997D01*
Y137213D01*
X18761D01*
Y137882D01*
X18406D01*
Y138118D01*
X18761D01*
Y138787D01*
X18997D01*
Y138118D01*
D02*
G37*
G36*
X62539Y116383D02*
Y116260D01*
Y64292D01*
Y64233D01*
X62494Y64125D01*
X62411Y64042D01*
X62303Y63996D01*
X12973D01*
X12864Y64042D01*
X12781Y64125D01*
X12736Y64233D01*
Y64292D01*
Y116138D01*
Y116383D01*
X12909Y116556D01*
X62366D01*
X62539Y116383D01*
D02*
G37*
G36*
X14118Y50497D02*
X14787D01*
Y50261D01*
X14118D01*
Y49906D01*
X13882D01*
Y50261D01*
X13213D01*
Y50497D01*
X13882D01*
Y50851D01*
X14118D01*
Y50497D01*
D02*
G37*
G36*
Y47387D02*
X13882D01*
Y48332D01*
X14118D01*
Y47387D01*
D02*
G37*
G36*
X16832Y149382D02*
X15887D01*
Y149618D01*
X16832D01*
Y149382D01*
D02*
G37*
G36*
X18997Y149618D02*
X19351D01*
Y149382D01*
X18997D01*
Y148713D01*
X18761D01*
Y149382D01*
X18406D01*
Y149618D01*
X18761D01*
Y150287D01*
X18997D01*
Y149618D01*
D02*
G37*
G36*
X16832Y145549D02*
X15887D01*
Y145785D01*
X16832D01*
Y145549D01*
D02*
G37*
G36*
X18997Y145785D02*
X19351D01*
Y145549D01*
X18997D01*
Y144879D01*
X18761D01*
Y145549D01*
X18406D01*
Y145785D01*
X18761D01*
Y146454D01*
X18997D01*
Y145785D01*
D02*
G37*
G36*
X16832Y141715D02*
X15887D01*
Y141951D01*
X16832D01*
Y141715D01*
D02*
G37*
G36*
X18997Y141951D02*
X19351D01*
Y141715D01*
X18997D01*
Y141046D01*
X18761D01*
Y141715D01*
X18406D01*
Y141951D01*
X18761D01*
Y142621D01*
X18997D01*
Y141951D01*
D02*
G37*
%LPC*%
G36*
X61949Y115965D02*
X13327D01*
Y64587D01*
X61949D01*
Y115965D01*
D02*
G37*
%LPD*%
D82*
X51810Y115473D02*
X51266Y116221D01*
X50386Y115936D01*
Y115010D01*
X51266Y114725D01*
X51810Y115473D01*
D83*
X56870Y35071D02*
X56132Y35497D01*
Y34645D01*
X56870Y35071D01*
X34114D02*
X33376Y35497D01*
Y34645D01*
X34114Y35071D01*
M02*
