G04*
G04 #@! TF.GenerationSoftware,Altium Limited,Altium Designer,24.6.1 (21)*
G04*
G04 Layer_Color=255*
%FSLAX25Y25*%
%MOIN*%
G70*
G04*
G04 #@! TF.SameCoordinates,1986151C-97A1-4A67-A93D-4D8E7053BCD9*
G04*
G04*
G04 #@! TF.FilePolarity,Positive*
G04*
G01*
G75*
%ADD19R,0.02756X0.02756*%
%ADD20R,0.01968X0.03937*%
%ADD21R,0.03937X0.01968*%
%ADD22R,0.02756X0.02756*%
%ADD23R,0.05709X0.05709*%
%ADD24R,0.07087X0.05315*%
%ADD25R,0.04134X0.02362*%
%ADD26R,0.02700X0.04000*%
%ADD27R,0.13386X0.09921*%
%ADD28R,0.02362X0.05709*%
%ADD29R,0.06299X0.03150*%
%ADD30R,0.02165X0.01772*%
%ADD31R,0.09252X0.08465*%
%ADD32R,0.03543X0.02756*%
%ADD33R,0.02047X0.02047*%
%ADD34R,0.02047X0.02047*%
%ADD35R,0.02756X0.03543*%
%ADD36R,0.01772X0.02165*%
%ADD37R,0.03150X0.06299*%
%ADD64R,0.01181X0.04528*%
%ADD65R,0.02362X0.04528*%
%ADD66R,0.02126X0.02506*%
%ADD67R,0.02506X0.02126*%
G04:AMPARAMS|DCode=68|XSize=30mil|YSize=40mil|CornerRadius=0mil|HoleSize=0mil|Usage=FLASHONLY|Rotation=180.000|XOffset=0mil|YOffset=0mil|HoleType=Round|Shape=Octagon|*
%AMOCTAGOND68*
4,1,8,0.00750,-0.02000,-0.00750,-0.02000,-0.01500,-0.01250,-0.01500,0.01250,-0.00750,0.02000,0.00750,0.02000,0.01500,0.01250,0.01500,-0.01250,0.00750,-0.02000,0.0*
%
%ADD68OCTAGOND68*%

%ADD73O,0.03937X0.08268*%
%ADD74O,0.03937X0.07087*%
D19*
X22021Y127259D02*
D03*
X14817Y127259D02*
D03*
X14817Y122928D02*
D03*
X22021Y122928D02*
D03*
D20*
X51023Y113504D02*
D03*
X47874D02*
D03*
X44724D02*
D03*
X41575D02*
D03*
X38425D02*
D03*
X35275D02*
D03*
X32126D02*
D03*
X28976D02*
D03*
X25827D02*
D03*
X22677D02*
D03*
X19527D02*
D03*
Y67048D02*
D03*
X22677D02*
D03*
X25827D02*
D03*
X28976D02*
D03*
X32126D02*
D03*
X35275D02*
D03*
X38425D02*
D03*
X41575D02*
D03*
X44724D02*
D03*
X47874D02*
D03*
X51023D02*
D03*
D21*
X15590Y109174D02*
D03*
Y106024D02*
D03*
Y102874D02*
D03*
Y99725D02*
D03*
Y96575D02*
D03*
Y93426D02*
D03*
Y90276D02*
D03*
Y87126D02*
D03*
Y83977D02*
D03*
Y80827D02*
D03*
Y77677D02*
D03*
Y74528D02*
D03*
Y71378D02*
D03*
X54961D02*
D03*
Y74528D02*
D03*
Y77677D02*
D03*
Y80827D02*
D03*
Y83977D02*
D03*
Y87126D02*
D03*
Y90276D02*
D03*
Y93426D02*
D03*
Y96575D02*
D03*
Y99725D02*
D03*
Y102874D02*
D03*
Y106024D02*
D03*
Y109174D02*
D03*
D22*
X54764Y66851D02*
D03*
X15788D02*
D03*
Y113701D02*
D03*
X54764Y113701D02*
D03*
D23*
X35276Y90276D02*
D03*
X43051Y98052D02*
D03*
Y90276D02*
D03*
Y82500D02*
D03*
X35276D02*
D03*
X27500D02*
D03*
Y90276D02*
D03*
Y98051D02*
D03*
X35276D02*
D03*
D24*
X70000Y112669D02*
D03*
Y96331D02*
D03*
X17500Y36669D02*
D03*
Y20331D02*
D03*
X72000D02*
D03*
Y36669D02*
D03*
X70000Y81169D02*
D03*
Y64831D02*
D03*
D25*
X44587Y49760D02*
D03*
Y57240D02*
D03*
X55413D02*
D03*
Y53500D02*
D03*
Y49760D02*
D03*
D26*
X36000Y171000D02*
D03*
X28500D02*
D03*
X36000Y160800D02*
D03*
X32200D02*
D03*
X28500D02*
D03*
X22500Y170500D02*
D03*
X15000D02*
D03*
X22500Y160300D02*
D03*
X18700D02*
D03*
X15000D02*
D03*
D27*
X62000Y139000D02*
D03*
D28*
X54500Y128272D02*
D03*
X59500D02*
D03*
X64500D02*
D03*
X69500D02*
D03*
X54500Y149728D02*
D03*
X59500D02*
D03*
X64500D02*
D03*
X69500D02*
D03*
D29*
X46905Y141500D02*
D03*
X35094D02*
D03*
D30*
X68000Y118957D02*
D03*
Y122500D02*
D03*
X73500Y90772D02*
D03*
Y87228D02*
D03*
X21500Y52772D02*
D03*
Y49228D02*
D03*
X18500D02*
D03*
Y52772D02*
D03*
X14000Y59272D02*
D03*
Y55728D02*
D03*
X28500Y129772D02*
D03*
Y126228D02*
D03*
X67500Y90543D02*
D03*
Y87000D02*
D03*
X28000Y56228D02*
D03*
Y59772D02*
D03*
X59500Y118957D02*
D03*
Y122500D02*
D03*
X64000Y118957D02*
D03*
Y122500D02*
D03*
D31*
X70087Y167500D02*
D03*
X55913D02*
D03*
D32*
X41000Y182012D02*
D03*
Y176500D02*
D03*
X40500Y135441D02*
D03*
Y129929D02*
D03*
X74500Y150244D02*
D03*
Y155756D02*
D03*
X46500Y152756D02*
D03*
Y147244D02*
D03*
X40000D02*
D03*
Y152756D02*
D03*
X47500Y135591D02*
D03*
Y130079D02*
D03*
X23000Y176500D02*
D03*
Y182012D02*
D03*
X47500D02*
D03*
Y176500D02*
D03*
X29500Y182012D02*
D03*
Y176500D02*
D03*
D33*
X15000Y176000D02*
D03*
Y179150D02*
D03*
X34500Y149925D02*
D03*
Y153075D02*
D03*
X35000Y132925D02*
D03*
Y136075D02*
D03*
Y176925D02*
D03*
Y180075D02*
D03*
D34*
X63500Y54500D02*
D03*
X66650D02*
D03*
X63500Y59000D02*
D03*
X66650D02*
D03*
X33500Y51000D02*
D03*
X36650D02*
D03*
Y55500D02*
D03*
X33500D02*
D03*
X63425Y44000D02*
D03*
X66575D02*
D03*
X37575Y123000D02*
D03*
X34425D02*
D03*
X36650Y60000D02*
D03*
X33500D02*
D03*
D35*
X43744Y123000D02*
D03*
X49256D02*
D03*
D36*
X18272Y42500D02*
D03*
X14728D02*
D03*
X28272Y49500D02*
D03*
X24728D02*
D03*
X63228Y48000D02*
D03*
X66772D02*
D03*
D37*
X73000Y45094D02*
D03*
Y56906D02*
D03*
D64*
X38110Y39301D02*
D03*
X40079D02*
D03*
X42047D02*
D03*
X44016D02*
D03*
X45984D02*
D03*
X47953D02*
D03*
X49921D02*
D03*
X51890D02*
D03*
D65*
X54449D02*
D03*
X57598D02*
D03*
X35551D02*
D03*
X32401D02*
D03*
D66*
X14000Y51238D02*
D03*
Y47000D02*
D03*
D67*
X15500Y145667D02*
D03*
X19738D02*
D03*
X15500Y138000D02*
D03*
X19738D02*
D03*
X15500Y149500D02*
D03*
X19738D02*
D03*
X15500Y141833D02*
D03*
X19738D02*
D03*
D68*
X18000Y58000D02*
D03*
X22500D02*
D03*
D73*
X27992Y37037D02*
D03*
X62008D02*
D03*
D74*
X27992Y20699D02*
D03*
X62008D02*
D03*
M02*
