M48
;Layer_Color=9474304
;FILE_FORMAT=2:5
INCH,TZ
;TYPE=PLATED
T01F00S00C0.00800
T02F00S00C0.00800
%
T01
X17500Y20331
X17000Y30000
X16000Y45500
X17000Y62500
X20500Y73500
X20000Y76770
Y80000
X27500Y77500
X38500Y74500
X39500Y72000
X48500Y71500
X40000Y60500
Y57000
Y53500
Y50000
X44500Y45979
X35551Y42448
X31000Y42000
X54500Y43000
X59500Y42500
X70000Y41500
X71500Y33000
X72000Y20331
X69500Y54500
Y59500
X59500Y60000
Y56500
X59000Y53500
X51500
X63344Y78927
X70500Y76000
X70067Y90000
X63125Y88208
X63344Y97927
X63500Y107500
X70344Y108427
X51000Y118000
X40982Y119109
X38000Y119000
X27984Y117273
X27500Y102500
X24416Y98000
X19127Y96943
X19000Y101500
X20500Y104500
Y108935
X19302Y90000
X19500Y86500
X22500Y82500
X22902Y90349
X47500Y90500
Y82500
Y98500
X43000Y102500
X34000Y127500
X32500Y130000
X35500
X30793Y135255
X31500Y145000
X34500
X30500Y148000
X32000Y165000
X37500Y167000
X25000Y169500
X19000Y172500
Y177000
X14384Y183391
X15500Y167000
X19000Y164500
X33500Y183000
X38000Y182000
X51000Y178000
Y174500
X55500Y182500
X70500Y181500
X69000Y160000
X65000
X67000Y157000
X67500Y141000
X64000
X60500
X57000
Y137000
X60500
X64000
X67500
X44000Y136016
T02
X40000Y28000
X31000Y51000
Y55500
Y60000
X27500Y63000
X26500Y54500
X24500Y108500
X25000Y123500
X32039Y123539
X28500Y132500
X22116Y135000
Y140031
X17500Y133500
X14500Y131000
X18000Y122500
X14500Y156000
X25666Y160000
X38500Y158500
X74500Y148000
X70567Y123000
X67000Y124736
X65243Y116181
X57332Y117332
X59500Y110616
X63500Y92500
M30
