G04*
G04 #@! TF.GenerationSoftware,Altium Limited,Altium Designer,24.6.1 (21)*
G04*
G04 Layer_Color=32896*
%FSLAX25Y25*%
%MOIN*%
G70*
G04*
G04 #@! TF.SameCoordinates,1986151C-97A1-4A67-A93D-4D8E7053BCD9*
G04*
G04*
G04 #@! TF.FilePolarity,Positive*
G04*
G01*
G75*
%ADD11C,0.01000*%
%ADD17C,0.00600*%
D11*
X91000Y22000D02*
X93000Y16000D01*
X95000Y22000D01*
X93000Y185291D02*
X95000Y179291D01*
X91000D02*
X93000Y185291D01*
Y16000D02*
Y77952D01*
Y120139D02*
Y185291D01*
X79929Y16000D02*
X94000D01*
X79929Y185291D02*
X94000D01*
X72429Y-8000D02*
X78429Y-6000D01*
X72429Y-4000D02*
X78429Y-6000D01*
X11500D02*
X17500Y-4000D01*
X11500Y-6000D02*
X17500Y-8000D01*
X63958Y-6000D02*
X78429D01*
X11500D02*
X22771D01*
X78429Y-7000D02*
Y14500D01*
X11500Y-7000D02*
Y14500D01*
D17*
X96599Y82551D02*
X90601D01*
X93600Y79552D01*
Y83551D01*
X91601Y85550D02*
X90601Y86550D01*
Y88549D01*
X91601Y89549D01*
X92600D01*
X93600Y88549D01*
Y87549D01*
Y88549D01*
X94600Y89549D01*
X95599D01*
X96599Y88549D01*
Y86550D01*
X95599Y85550D01*
X96599Y91548D02*
X95599D01*
Y92548D01*
X96599D01*
Y91548D01*
X91601Y96547D02*
X90601Y97546D01*
Y99546D01*
X91601Y100545D01*
X95599D01*
X96599Y99546D01*
Y97546D01*
X95599Y96547D01*
X91601D01*
Y102544D02*
X90601Y103544D01*
Y105544D01*
X91601Y106543D01*
X95599D01*
X96599Y105544D01*
Y103544D01*
X95599Y102544D01*
X91601D01*
X96599Y108543D02*
X92600D01*
Y109542D01*
X93600Y110542D01*
X96599D01*
X93600D01*
X92600Y111542D01*
X93600Y112541D01*
X96599D01*
Y114541D02*
X92600D01*
Y115540D01*
X93600Y116540D01*
X96599D01*
X93600D01*
X92600Y117540D01*
X93600Y118539D01*
X96599D01*
X24371Y-9599D02*
X26370D01*
X25370D01*
Y-3601D01*
X24371Y-4601D01*
X29369Y-3601D02*
X33368D01*
Y-4601D01*
X29369Y-8599D01*
Y-9599D01*
X35367D02*
Y-8599D01*
X36367D01*
Y-9599D01*
X35367D01*
X40365Y-4601D02*
X41365Y-3601D01*
X43365D01*
X44364Y-4601D01*
Y-8599D01*
X43365Y-9599D01*
X41365D01*
X40365Y-8599D01*
Y-4601D01*
X46364D02*
X47363Y-3601D01*
X49363D01*
X50362Y-4601D01*
Y-8599D01*
X49363Y-9599D01*
X47363D01*
X46364Y-8599D01*
Y-4601D01*
X52362Y-9599D02*
Y-5600D01*
X53361D01*
X54361Y-6600D01*
Y-9599D01*
Y-6600D01*
X55361Y-5600D01*
X56360Y-6600D01*
Y-9599D01*
X58360D02*
Y-5600D01*
X59359D01*
X60359Y-6600D01*
Y-9599D01*
Y-6600D01*
X61359Y-5600D01*
X62358Y-6600D01*
Y-9599D01*
M02*
