G04*
G04 #@! TF.GenerationSoftware,Altium Limited,Altium Designer,24.6.1 (21)*
G04*
G04 Layer_Physical_Order=2*
G04 Layer_Color=36540*
%FSLAX25Y25*%
%MOIN*%
G70*
G04*
G04 #@! TF.SameCoordinates,1986151C-97A1-4A67-A93D-4D8E7053BCD9*
G04*
G04*
G04 #@! TF.FilePolarity,Positive*
G04*
G01*
G75*
%ADD73O,0.03937X0.08268*%
%ADD74O,0.03937X0.07087*%
%ADD75C,0.01800*%
%ADD76C,0.01772*%
G36*
X77410Y17019D02*
X63953D01*
X63784Y17519D01*
X64239Y18200D01*
X64423Y19124D01*
Y20499D01*
X59593D01*
Y19124D01*
X59777Y18200D01*
X60232Y17519D01*
X60063Y17019D01*
X29937D01*
X29768Y17519D01*
X30223Y18200D01*
X30407Y19124D01*
Y20499D01*
X25577D01*
Y19124D01*
X25761Y18200D01*
X26216Y17519D01*
X26047Y17019D01*
X12519D01*
Y184272D01*
X77410D01*
Y17019D01*
D02*
G37*
%LPC*%
G36*
X51279Y179400D02*
X50722D01*
X50207Y179187D01*
X49813Y178793D01*
X49600Y178279D01*
Y177722D01*
X49813Y177207D01*
X50207Y176813D01*
X50722Y176600D01*
X51279D01*
X51793Y176813D01*
X52187Y177207D01*
X52400Y177722D01*
Y178279D01*
X52187Y178793D01*
X51793Y179187D01*
X51279Y179400D01*
D02*
G37*
G36*
X19278Y178400D02*
X18722D01*
X18207Y178187D01*
X17813Y177793D01*
X17600Y177278D01*
Y176722D01*
X17813Y176207D01*
X18207Y175813D01*
X18722Y175600D01*
X19278D01*
X19793Y175813D01*
X20187Y176207D01*
X20400Y176722D01*
Y177278D01*
X20187Y177793D01*
X19793Y178187D01*
X19278Y178400D01*
D02*
G37*
G36*
X51279Y175900D02*
X50722D01*
X50207Y175687D01*
X49813Y175293D01*
X49600Y174778D01*
Y174222D01*
X49813Y173707D01*
X50207Y173313D01*
X50722Y173100D01*
X51279D01*
X51793Y173313D01*
X52187Y173707D01*
X52400Y174222D01*
Y174778D01*
X52187Y175293D01*
X51793Y175687D01*
X51279Y175900D01*
D02*
G37*
G36*
X19278Y173900D02*
X18722D01*
X18207Y173687D01*
X17813Y173293D01*
X17600Y172778D01*
Y172222D01*
X17813Y171707D01*
X18207Y171313D01*
X18722Y171100D01*
X19278D01*
X19793Y171313D01*
X20187Y171707D01*
X20400Y172222D01*
Y172778D01*
X20187Y173293D01*
X19793Y173687D01*
X19278Y173900D01*
D02*
G37*
G36*
X25278Y170900D02*
X24722D01*
X24207Y170687D01*
X23813Y170293D01*
X23600Y169779D01*
Y169221D01*
X23813Y168707D01*
X24207Y168313D01*
X24722Y168100D01*
X25278D01*
X25793Y168313D01*
X26187Y168707D01*
X26400Y169221D01*
Y169779D01*
X26187Y170293D01*
X25793Y170687D01*
X25278Y170900D01*
D02*
G37*
G36*
X37778Y168400D02*
X37222D01*
X36707Y168187D01*
X36313Y167793D01*
X36100Y167279D01*
Y166721D01*
X36313Y166207D01*
X36707Y165813D01*
X37222Y165600D01*
X37778D01*
X38293Y165813D01*
X38687Y166207D01*
X38900Y166721D01*
Y167279D01*
X38687Y167793D01*
X38293Y168187D01*
X37778Y168400D01*
D02*
G37*
G36*
X15778D02*
X15222D01*
X14707Y168187D01*
X14313Y167793D01*
X14100Y167279D01*
Y166721D01*
X14313Y166207D01*
X14707Y165813D01*
X15222Y165600D01*
X15778D01*
X16293Y165813D01*
X16687Y166207D01*
X16900Y166721D01*
Y167279D01*
X16687Y167793D01*
X16293Y168187D01*
X15778Y168400D01*
D02*
G37*
G36*
X32278Y166400D02*
X31721D01*
X31207Y166187D01*
X30813Y165793D01*
X30600Y165278D01*
Y164722D01*
X30813Y164207D01*
X31207Y163813D01*
X31721Y163600D01*
X32278D01*
X32793Y163813D01*
X33187Y164207D01*
X33400Y164722D01*
Y165278D01*
X33187Y165793D01*
X32793Y166187D01*
X32278Y166400D01*
D02*
G37*
G36*
X19278Y165900D02*
X18722D01*
X18207Y165687D01*
X17813Y165293D01*
X17600Y164778D01*
Y164222D01*
X17813Y163707D01*
X18207Y163313D01*
X18722Y163100D01*
X19278D01*
X19793Y163313D01*
X20187Y163707D01*
X20400Y164222D01*
Y164778D01*
X20187Y165293D01*
X19793Y165687D01*
X19278Y165900D01*
D02*
G37*
G36*
X69279Y161400D02*
X68721D01*
X68207Y161187D01*
X67813Y160793D01*
X67600Y160278D01*
Y159722D01*
X67813Y159207D01*
X68207Y158813D01*
X68721Y158600D01*
X69279D01*
X69793Y158813D01*
X70187Y159207D01*
X70400Y159722D01*
Y160278D01*
X70187Y160793D01*
X69793Y161187D01*
X69279Y161400D01*
D02*
G37*
G36*
X65279D02*
X64722D01*
X64207Y161187D01*
X63813Y160793D01*
X63600Y160278D01*
Y159722D01*
X63813Y159207D01*
X64207Y158813D01*
X64722Y158600D01*
X65279D01*
X65793Y158813D01*
X66187Y159207D01*
X66400Y159722D01*
Y160278D01*
X66187Y160793D01*
X65793Y161187D01*
X65279Y161400D01*
D02*
G37*
G36*
X67278Y158400D02*
X66721D01*
X66207Y158187D01*
X65813Y157793D01*
X65600Y157279D01*
Y156721D01*
X65813Y156207D01*
X66207Y155813D01*
X66721Y155600D01*
X67278D01*
X67793Y155813D01*
X68187Y156207D01*
X68400Y156721D01*
Y157279D01*
X68187Y157793D01*
X67793Y158187D01*
X67278Y158400D01*
D02*
G37*
G36*
X30779Y149400D02*
X30222D01*
X29707Y149187D01*
X29313Y148793D01*
X29100Y148278D01*
Y147722D01*
X29313Y147207D01*
X29707Y146813D01*
X30222Y146600D01*
X30467D01*
X30520Y146509D01*
X30620Y146100D01*
X30313Y145793D01*
X30100Y145279D01*
Y144721D01*
X30313Y144207D01*
X30707Y143813D01*
X31222Y143600D01*
X31778D01*
X32293Y143813D01*
X32687Y144207D01*
X32729Y144310D01*
X33271D01*
X33313Y144207D01*
X33707Y143813D01*
X34222Y143600D01*
X34778D01*
X35293Y143813D01*
X35687Y144207D01*
X35900Y144721D01*
Y145279D01*
X35687Y145793D01*
X35293Y146187D01*
X34778Y146400D01*
X34222D01*
X33707Y146187D01*
X33313Y145793D01*
X33271Y145690D01*
X32729D01*
X32687Y145793D01*
X32293Y146187D01*
X31778Y146400D01*
X31533D01*
X31481Y146491D01*
X31380Y146900D01*
X31687Y147207D01*
X31900Y147722D01*
Y148278D01*
X31687Y148793D01*
X31293Y149187D01*
X30779Y149400D01*
D02*
G37*
G36*
X22394Y141431D02*
X21837D01*
X21323Y141218D01*
X20929Y140824D01*
X20716Y140310D01*
Y139753D01*
X20929Y139238D01*
X21323Y138845D01*
X21837Y138631D01*
X22394D01*
X22909Y138845D01*
X23303Y139238D01*
X23516Y139753D01*
Y140310D01*
X23303Y140824D01*
X22909Y141218D01*
X22394Y141431D01*
D02*
G37*
G36*
Y136400D02*
X21837D01*
X21323Y136187D01*
X20929Y135793D01*
X20716Y135278D01*
Y134722D01*
X20929Y134207D01*
X21323Y133813D01*
X21837Y133600D01*
X22394D01*
X22909Y133813D01*
X23303Y134207D01*
X23516Y134722D01*
Y135278D01*
X23303Y135793D01*
X22909Y136187D01*
X22394Y136400D01*
D02*
G37*
G36*
X17778Y134900D02*
X17221D01*
X16707Y134687D01*
X16313Y134293D01*
X16100Y133779D01*
Y133221D01*
X16313Y132707D01*
X16707Y132313D01*
X17221Y132100D01*
X17778D01*
X18293Y132313D01*
X18687Y132707D01*
X18900Y133221D01*
Y133779D01*
X18687Y134293D01*
X18293Y134687D01*
X17778Y134900D01*
D02*
G37*
G36*
X28778Y133900D02*
X28221D01*
X27707Y133687D01*
X27313Y133293D01*
X27100Y132779D01*
Y132221D01*
X27313Y131707D01*
X27707Y131313D01*
X28221Y131100D01*
X28778D01*
X29293Y131313D01*
X29687Y131707D01*
X29900Y132221D01*
Y132779D01*
X29687Y133293D01*
X29293Y133687D01*
X28778Y133900D01*
D02*
G37*
G36*
X35778Y131400D02*
X35221D01*
X34707Y131187D01*
X34313Y130793D01*
X34271Y130690D01*
X33729D01*
X33687Y130793D01*
X33293Y131187D01*
X32778Y131400D01*
X32221D01*
X31707Y131187D01*
X31313Y130793D01*
X31100Y130279D01*
Y129721D01*
X31313Y129207D01*
X31707Y128813D01*
X32221Y128600D01*
X32440D01*
X32487Y128561D01*
X32733Y128100D01*
X32600Y127778D01*
Y127222D01*
X32813Y126707D01*
X33207Y126313D01*
X33722Y126100D01*
X34279D01*
X34793Y126313D01*
X35187Y126707D01*
X35400Y127222D01*
Y127778D01*
X35267Y128100D01*
X35513Y128561D01*
X35560Y128600D01*
X35778D01*
X36293Y128813D01*
X36687Y129207D01*
X36900Y129721D01*
Y130279D01*
X36687Y130793D01*
X36293Y131187D01*
X35778Y131400D01*
D02*
G37*
G36*
X14778Y132400D02*
X14221D01*
X13707Y132187D01*
X13313Y131793D01*
X13100Y131279D01*
Y130721D01*
X13313Y130207D01*
X13707Y129813D01*
X14221Y129600D01*
X14778D01*
X15293Y129813D01*
X15687Y130207D01*
X15900Y130721D01*
Y131279D01*
X15687Y131793D01*
X15293Y132187D01*
X14778Y132400D01*
D02*
G37*
G36*
X25278Y124900D02*
X24722D01*
X24207Y124687D01*
X23813Y124293D01*
X23600Y123778D01*
Y123222D01*
X23813Y122707D01*
X24207Y122313D01*
X24722Y122100D01*
X25278D01*
X25793Y122313D01*
X26187Y122707D01*
X26400Y123222D01*
Y123778D01*
X26187Y124293D01*
X25793Y124687D01*
X25278Y124900D01*
D02*
G37*
G36*
X70845Y124400D02*
X70288D01*
X69774Y124187D01*
X69380Y123793D01*
X69167Y123278D01*
Y122722D01*
X69380Y122207D01*
X69774Y121813D01*
X70288Y121600D01*
X70845D01*
X71360Y121813D01*
X71754Y122207D01*
X71967Y122722D01*
Y123278D01*
X71754Y123793D01*
X71360Y124187D01*
X70845Y124400D01*
D02*
G37*
G36*
X41261Y120509D02*
X40704D01*
X40189Y120295D01*
X39795Y119902D01*
X39739Y119766D01*
X39198D01*
X39187Y119793D01*
X38793Y120187D01*
X38278Y120400D01*
X37721D01*
X37207Y120187D01*
X36813Y119793D01*
X36600Y119279D01*
Y118721D01*
X36813Y118207D01*
X37207Y117813D01*
X37721Y117600D01*
X38278D01*
X38793Y117813D01*
X39187Y118207D01*
X39243Y118342D01*
X39784D01*
X39795Y118315D01*
X40189Y117922D01*
X40704Y117709D01*
X41261D01*
X41775Y117922D01*
X42169Y118315D01*
X42382Y118830D01*
Y119387D01*
X42169Y119902D01*
X41775Y120295D01*
X41261Y120509D01*
D02*
G37*
G36*
X57611Y118732D02*
X57054D01*
X56539Y118519D01*
X56146Y118125D01*
X55932Y117611D01*
Y117054D01*
X56146Y116539D01*
X56539Y116146D01*
X57054Y115932D01*
X57611D01*
X58125Y116146D01*
X58519Y116539D01*
X58732Y117054D01*
Y117611D01*
X58519Y118125D01*
X58125Y118519D01*
X57611Y118732D01*
D02*
G37*
G36*
X28262Y118674D02*
X27705D01*
X27191Y118460D01*
X26797Y118067D01*
X26584Y117552D01*
Y116995D01*
X26797Y116481D01*
X27191Y116087D01*
X27705Y115874D01*
X28262D01*
X28777Y116087D01*
X29171Y116481D01*
X29384Y116995D01*
Y117552D01*
X29171Y118067D01*
X28777Y118460D01*
X28262Y118674D01*
D02*
G37*
G36*
X65521Y117581D02*
X64964D01*
X64450Y117368D01*
X64056Y116974D01*
X63843Y116459D01*
Y115902D01*
X64056Y115388D01*
X64450Y114994D01*
X64964Y114781D01*
X65521D01*
X66036Y114994D01*
X66430Y115388D01*
X66643Y115902D01*
Y116459D01*
X66430Y116974D01*
X66036Y117368D01*
X65521Y117581D01*
D02*
G37*
G36*
X59778Y112016D02*
X59222D01*
X58707Y111803D01*
X58313Y111409D01*
X58100Y110894D01*
Y110337D01*
X58313Y109823D01*
X58707Y109429D01*
X59222Y109216D01*
X59778D01*
X60293Y109429D01*
X60687Y109823D01*
X60900Y110337D01*
Y110894D01*
X60687Y111409D01*
X60293Y111803D01*
X59778Y112016D01*
D02*
G37*
G36*
X20778Y110336D02*
X20222D01*
X19707Y110122D01*
X19313Y109729D01*
X19100Y109214D01*
Y108657D01*
X19313Y108142D01*
X19707Y107749D01*
X20222Y107536D01*
X20778D01*
X21293Y107749D01*
X21687Y108142D01*
X21900Y108657D01*
Y109214D01*
X21687Y109729D01*
X21293Y110122D01*
X20778Y110336D01*
D02*
G37*
G36*
X24779Y109900D02*
X24221D01*
X23707Y109687D01*
X23313Y109293D01*
X23100Y108779D01*
Y108221D01*
X23313Y107707D01*
X23707Y107313D01*
X24221Y107100D01*
X24779D01*
X25293Y107313D01*
X25687Y107707D01*
X25900Y108221D01*
Y108779D01*
X25687Y109293D01*
X25293Y109687D01*
X24779Y109900D01*
D02*
G37*
G36*
X20778Y105900D02*
X20222D01*
X19707Y105687D01*
X19313Y105293D01*
X19100Y104779D01*
Y104221D01*
X19313Y103707D01*
X19707Y103313D01*
X20222Y103100D01*
X20778D01*
X21293Y103313D01*
X21687Y103707D01*
X21900Y104221D01*
Y104779D01*
X21687Y105293D01*
X21293Y105687D01*
X20778Y105900D01*
D02*
G37*
G36*
X19406Y98343D02*
X18849D01*
X18334Y98130D01*
X17940Y97736D01*
X17727Y97222D01*
Y96665D01*
X17940Y96150D01*
X18334Y95756D01*
X18849Y95543D01*
X19406D01*
X19920Y95756D01*
X20314Y96150D01*
X20527Y96665D01*
Y97222D01*
X20314Y97736D01*
X19920Y98130D01*
X19406Y98343D01*
D02*
G37*
G36*
X63779Y93900D02*
X63222D01*
X62707Y93687D01*
X62313Y93293D01*
X62100Y92778D01*
Y92221D01*
X62313Y91707D01*
X62707Y91313D01*
X63222Y91100D01*
X63779D01*
X64293Y91313D01*
X64687Y91707D01*
X64900Y92221D01*
Y92778D01*
X64687Y93293D01*
X64293Y93687D01*
X63779Y93900D01*
D02*
G37*
G36*
X70345Y91400D02*
X69788D01*
X69274Y91187D01*
X68880Y90793D01*
X68667Y90279D01*
Y89722D01*
X68880Y89207D01*
X69274Y88813D01*
X69788Y88600D01*
X70345D01*
X70860Y88813D01*
X71254Y89207D01*
X71467Y89722D01*
Y90279D01*
X71254Y90793D01*
X70860Y91187D01*
X70345Y91400D01*
D02*
G37*
G36*
X19581D02*
X19024D01*
X18509Y91187D01*
X18115Y90793D01*
X17902Y90279D01*
Y89722D01*
X18115Y89207D01*
X18509Y88813D01*
X19024Y88600D01*
X19581D01*
X20095Y88813D01*
X20489Y89207D01*
X20702Y89722D01*
Y90279D01*
X20489Y90793D01*
X20095Y91187D01*
X19581Y91400D01*
D02*
G37*
G36*
X19779Y87900D02*
X19221D01*
X18707Y87687D01*
X18313Y87293D01*
X18100Y86778D01*
Y86221D01*
X18313Y85707D01*
X18707Y85313D01*
X19221Y85100D01*
X19779D01*
X20293Y85313D01*
X20687Y85707D01*
X20900Y86221D01*
Y86778D01*
X20687Y87293D01*
X20293Y87687D01*
X19779Y87900D01*
D02*
G37*
G36*
X70779Y77400D02*
X70222D01*
X69707Y77187D01*
X69313Y76793D01*
X69100Y76279D01*
Y75722D01*
X69313Y75207D01*
X69707Y74813D01*
X70222Y74600D01*
X70779D01*
X71293Y74813D01*
X71687Y75207D01*
X71900Y75722D01*
Y76279D01*
X71687Y76793D01*
X71293Y77187D01*
X70779Y77400D01*
D02*
G37*
G36*
X20279Y81400D02*
X19722D01*
X19207Y81187D01*
X18813Y80793D01*
X18600Y80278D01*
Y79721D01*
X18813Y79207D01*
X19207Y78813D01*
X19637Y78635D01*
X19644Y78594D01*
Y78176D01*
X19637Y78135D01*
X19207Y77957D01*
X18813Y77563D01*
X18600Y77048D01*
Y76491D01*
X18813Y75977D01*
X19207Y75583D01*
X19722Y75370D01*
X20149Y75370D01*
X20222Y74900D01*
X19707Y74687D01*
X19313Y74293D01*
X19100Y73778D01*
Y73221D01*
X19313Y72707D01*
X19707Y72313D01*
X20222Y72100D01*
X20778D01*
X21293Y72313D01*
X21687Y72707D01*
X21900Y73221D01*
Y73778D01*
X21687Y74293D01*
X21293Y74687D01*
X20778Y74900D01*
X20351Y74900D01*
X20279Y75370D01*
X20793Y75583D01*
X21187Y75977D01*
X21400Y76491D01*
Y77048D01*
X21187Y77563D01*
X20793Y77957D01*
X20363Y78135D01*
X20356Y78176D01*
Y78594D01*
X20363Y78635D01*
X20793Y78813D01*
X21187Y79207D01*
X21400Y79721D01*
Y80278D01*
X21187Y80793D01*
X20793Y81187D01*
X20279Y81400D01*
D02*
G37*
G36*
X38778Y75900D02*
X38221D01*
X37707Y75687D01*
X37313Y75293D01*
X37100Y74778D01*
Y74221D01*
X37313Y73707D01*
X37707Y73313D01*
X38003Y73190D01*
X38226Y72905D01*
X38233Y72600D01*
X38100Y72278D01*
Y71722D01*
X38313Y71207D01*
X38707Y70813D01*
X39222Y70600D01*
X39779D01*
X40293Y70813D01*
X40687Y71207D01*
X40900Y71722D01*
Y72278D01*
X40687Y72793D01*
X40293Y73187D01*
X39997Y73310D01*
X39774Y73595D01*
X39767Y73900D01*
X39900Y74221D01*
Y74778D01*
X39687Y75293D01*
X39293Y75687D01*
X38778Y75900D01*
D02*
G37*
G36*
X27779Y64400D02*
X27222D01*
X26707Y64187D01*
X26313Y63793D01*
X26100Y63279D01*
Y62722D01*
X26313Y62207D01*
X26707Y61813D01*
X27222Y61600D01*
X27779D01*
X28293Y61813D01*
X28687Y62207D01*
X28900Y62722D01*
Y63279D01*
X28687Y63793D01*
X28293Y64187D01*
X27779Y64400D01*
D02*
G37*
G36*
X17278Y63900D02*
X16722D01*
X16207Y63687D01*
X15813Y63293D01*
X15600Y62779D01*
Y62221D01*
X15813Y61707D01*
X16207Y61313D01*
X16722Y61100D01*
X17278D01*
X17793Y61313D01*
X18187Y61707D01*
X18400Y62221D01*
Y62779D01*
X18187Y63293D01*
X17793Y63687D01*
X17278Y63900D01*
D02*
G37*
G36*
X40279Y61900D02*
X39722D01*
X39207Y61687D01*
X38813Y61293D01*
X38600Y60778D01*
Y60221D01*
X38813Y59707D01*
X39207Y59313D01*
X39722Y59100D01*
X40279D01*
X40793Y59313D01*
X41187Y59707D01*
X41400Y60221D01*
Y60778D01*
X41187Y61293D01*
X40793Y61687D01*
X40279Y61900D01*
D02*
G37*
G36*
X59778Y61400D02*
X59222D01*
X58707Y61187D01*
X58313Y60793D01*
X58100Y60278D01*
Y59721D01*
X58313Y59207D01*
X58707Y58813D01*
X59222Y58600D01*
X59778D01*
X60293Y58813D01*
X60687Y59207D01*
X60900Y59721D01*
Y60278D01*
X60687Y60793D01*
X60293Y61187D01*
X59778Y61400D01*
D02*
G37*
G36*
X40279Y58400D02*
X39722D01*
X39207Y58187D01*
X38813Y57793D01*
X38600Y57279D01*
Y56722D01*
X38813Y56207D01*
X39207Y55813D01*
X39722Y55600D01*
X40279D01*
X40793Y55813D01*
X41187Y56207D01*
X41400Y56722D01*
Y57279D01*
X41187Y57793D01*
X40793Y58187D01*
X40279Y58400D01*
D02*
G37*
G36*
X59778Y57900D02*
X59222D01*
X58707Y57687D01*
X58313Y57293D01*
X58100Y56779D01*
Y56221D01*
X58313Y55707D01*
X58707Y55313D01*
X59222Y55100D01*
X59778D01*
X60293Y55313D01*
X60687Y55707D01*
X60900Y56221D01*
Y56779D01*
X60687Y57293D01*
X60293Y57687D01*
X59778Y57900D01*
D02*
G37*
G36*
X26779Y55900D02*
X26221D01*
X25707Y55687D01*
X25313Y55293D01*
X25100Y54778D01*
Y54221D01*
X25313Y53707D01*
X25707Y53313D01*
X26221Y53100D01*
X26779D01*
X27293Y53313D01*
X27687Y53707D01*
X27900Y54221D01*
Y54778D01*
X27687Y55293D01*
X27293Y55687D01*
X26779Y55900D01*
D02*
G37*
G36*
X40279Y54900D02*
X39722D01*
X39207Y54687D01*
X38813Y54293D01*
X38600Y53778D01*
Y53221D01*
X38813Y52707D01*
X39207Y52313D01*
X39722Y52100D01*
X40279D01*
X40793Y52313D01*
X41187Y52707D01*
X41400Y53221D01*
Y53778D01*
X41187Y54293D01*
X40793Y54687D01*
X40279Y54900D01*
D02*
G37*
G36*
Y51400D02*
X39722D01*
X39207Y51187D01*
X38813Y50793D01*
X38600Y50279D01*
Y49722D01*
X38813Y49207D01*
X39207Y48813D01*
X39722Y48600D01*
X40279D01*
X40793Y48813D01*
X41187Y49207D01*
X41400Y49722D01*
Y50279D01*
X41187Y50793D01*
X40793Y51187D01*
X40279Y51400D01*
D02*
G37*
G36*
X54778Y44400D02*
X54221D01*
X53707Y44187D01*
X53313Y43793D01*
X53100Y43279D01*
Y42722D01*
X53313Y42207D01*
X53707Y41813D01*
X54221Y41600D01*
X54778D01*
X55293Y41813D01*
X55687Y42207D01*
X55900Y42722D01*
Y43279D01*
X55687Y43793D01*
X55293Y44187D01*
X54778Y44400D01*
D02*
G37*
G36*
X35829Y43848D02*
X35272D01*
X34758Y43635D01*
X34364Y43241D01*
X34151Y42726D01*
Y42169D01*
X34364Y41655D01*
X34758Y41261D01*
X35272Y41048D01*
X35829D01*
X36344Y41261D01*
X36738Y41655D01*
X36951Y42169D01*
Y42726D01*
X36738Y43241D01*
X36344Y43635D01*
X35829Y43848D01*
D02*
G37*
G36*
X70279Y42900D02*
X69722D01*
X69207Y42687D01*
X68813Y42293D01*
X68600Y41778D01*
Y41221D01*
X68813Y40707D01*
X69207Y40313D01*
X69722Y40100D01*
X70279D01*
X70793Y40313D01*
X71187Y40707D01*
X71400Y41221D01*
Y41778D01*
X71187Y42293D01*
X70793Y42687D01*
X70279Y42900D01*
D02*
G37*
G36*
X62208Y41578D02*
Y37237D01*
X64423D01*
Y39202D01*
X64239Y40126D01*
X63716Y40910D01*
X62932Y41433D01*
X62208Y41578D01*
D02*
G37*
G36*
X61808D02*
X61084Y41433D01*
X60300Y40910D01*
X59777Y40126D01*
X59593Y39202D01*
Y37237D01*
X61808D01*
Y41578D01*
D02*
G37*
G36*
X28192D02*
Y37237D01*
X30407D01*
Y39202D01*
X30223Y40126D01*
X29700Y40910D01*
X28916Y41433D01*
X28192Y41578D01*
D02*
G37*
G36*
X27792D02*
X27068Y41433D01*
X26284Y40910D01*
X25761Y40126D01*
X25577Y39202D01*
Y37237D01*
X27792D01*
Y41578D01*
D02*
G37*
G36*
X56124Y37370D02*
X55734Y37293D01*
X55263Y37098D01*
X54933Y36877D01*
X54573Y36517D01*
X54352Y36187D01*
X54157Y35716D01*
X54079Y35326D01*
X54079Y35072D01*
X54079Y34817D01*
X54156Y34427D01*
X54351Y33957D01*
X54572Y33626D01*
X54932Y33266D01*
X55263Y33045D01*
X55733Y32850D01*
X56123Y32772D01*
X56632Y32772D01*
X57022Y32850D01*
X57493Y33044D01*
X57823Y33265D01*
X58183Y33625D01*
X58404Y33956D01*
X58599Y34426D01*
X58677Y34816D01*
X58677Y35071D01*
X58677Y35325D01*
X58600Y35715D01*
X58405Y36186D01*
X58184Y36517D01*
X57824Y36877D01*
X57493Y37098D01*
X57023Y37293D01*
X56633Y37370D01*
X56124Y37370D01*
D02*
G37*
G36*
X33368D02*
X32978Y37293D01*
X32507Y37098D01*
X32177Y36877D01*
X31817Y36517D01*
X31596Y36187D01*
X31401Y35716D01*
X31323Y35326D01*
X31323Y35072D01*
X31323Y34817D01*
X31400Y34427D01*
X31595Y33957D01*
X31816Y33626D01*
X32176Y33266D01*
X32507Y33045D01*
X32977Y32850D01*
X33367Y32772D01*
X33876Y32772D01*
X34266Y32850D01*
X34736Y33044D01*
X35067Y33265D01*
X35427Y33625D01*
X35649Y33956D01*
X35843Y34426D01*
X35921Y34816D01*
X35921Y35071D01*
X35921Y35325D01*
X35844Y35715D01*
X35649Y36186D01*
X35428Y36517D01*
X35068Y36877D01*
X34737Y37098D01*
X34267Y37293D01*
X33877Y37370D01*
X33368Y37370D01*
D02*
G37*
G36*
X64423Y36837D02*
X62208D01*
Y32497D01*
X62932Y32641D01*
X63716Y33164D01*
X64239Y33948D01*
X64423Y34872D01*
Y36837D01*
D02*
G37*
G36*
X61808D02*
X59593D01*
Y34872D01*
X59777Y33948D01*
X60300Y33164D01*
X61084Y32641D01*
X61808Y32497D01*
Y36837D01*
D02*
G37*
G36*
X30407D02*
X28192D01*
Y32497D01*
X28916Y32641D01*
X29700Y33164D01*
X30223Y33948D01*
X30407Y34872D01*
Y36837D01*
D02*
G37*
G36*
X27792D02*
X25577D01*
Y34872D01*
X25761Y33948D01*
X26284Y33164D01*
X27068Y32641D01*
X27792Y32497D01*
Y36837D01*
D02*
G37*
G36*
X71779Y34400D02*
X71222D01*
X70707Y34187D01*
X70313Y33793D01*
X70100Y33279D01*
Y32721D01*
X70313Y32207D01*
X70707Y31813D01*
X71222Y31600D01*
X71779D01*
X72293Y31813D01*
X72687Y32207D01*
X72900Y32721D01*
Y33279D01*
X72687Y33793D01*
X72293Y34187D01*
X71779Y34400D01*
D02*
G37*
G36*
X17278Y31400D02*
X16722D01*
X16207Y31187D01*
X15813Y30793D01*
X15600Y30279D01*
Y29722D01*
X15813Y29207D01*
X16207Y28813D01*
X16722Y28600D01*
X17278D01*
X17793Y28813D01*
X18187Y29207D01*
X18400Y29722D01*
Y30279D01*
X18187Y30793D01*
X17793Y31187D01*
X17278Y31400D01*
D02*
G37*
G36*
X40279Y29400D02*
X39722D01*
X39207Y29187D01*
X38813Y28793D01*
X38600Y28278D01*
Y27722D01*
X38813Y27207D01*
X39207Y26813D01*
X39722Y26600D01*
X40279D01*
X40793Y26813D01*
X41187Y27207D01*
X41400Y27722D01*
Y28278D01*
X41187Y28793D01*
X40793Y29187D01*
X40279Y29400D01*
D02*
G37*
G36*
X62208Y24649D02*
Y20899D01*
X64423D01*
Y22274D01*
X64239Y23198D01*
X63716Y23981D01*
X62932Y24505D01*
X62208Y24649D01*
D02*
G37*
G36*
X61808D02*
X61084Y24505D01*
X60300Y23981D01*
X59777Y23198D01*
X59593Y22274D01*
Y20899D01*
X61808D01*
Y24649D01*
D02*
G37*
G36*
X28192D02*
Y20899D01*
X30407D01*
Y22274D01*
X30223Y23198D01*
X29700Y23981D01*
X28916Y24505D01*
X28192Y24649D01*
D02*
G37*
G36*
X27792D02*
X27068Y24505D01*
X26284Y23981D01*
X25761Y23198D01*
X25577Y22274D01*
Y20899D01*
X27792D01*
Y24649D01*
D02*
G37*
%LPD*%
D73*
X27992Y37037D02*
D03*
X62008D02*
D03*
D74*
X27992Y20699D02*
D03*
X62008D02*
D03*
D75*
X48500Y71500D02*
D03*
X51000Y118000D02*
D03*
X32039Y123539D02*
D03*
X14500Y156000D02*
D03*
X44500Y45979D02*
D03*
X63125Y88208D02*
D03*
X24416Y98000D02*
D03*
X30793Y135255D02*
D03*
X17500Y20331D02*
D03*
X69500Y54500D02*
D03*
Y59500D02*
D03*
X63500Y107500D02*
D03*
X63344Y78927D02*
D03*
Y97927D02*
D03*
X70344Y108427D02*
D03*
X55500Y182500D02*
D03*
X14384Y183391D02*
D03*
X33500Y183000D02*
D03*
X60500Y141000D02*
D03*
X64000D02*
D03*
X67500D02*
D03*
X57000D02*
D03*
X60500Y137000D02*
D03*
X64000D02*
D03*
X67500D02*
D03*
X57000D02*
D03*
X22902Y90349D02*
D03*
X27500Y102500D02*
D03*
X18000Y122500D02*
D03*
X74500Y148000D02*
D03*
X67000Y124736D02*
D03*
X38500Y158500D02*
D03*
X25666Y160000D02*
D03*
X31000Y51000D02*
D03*
Y60000D02*
D03*
Y55500D02*
D03*
X38000Y182000D02*
D03*
X70500Y181500D02*
D03*
X19000Y101500D02*
D03*
X16000Y45500D02*
D03*
X27500Y77500D02*
D03*
X22500Y82500D02*
D03*
X47500Y90500D02*
D03*
Y82500D02*
D03*
Y98500D02*
D03*
X43000Y102500D02*
D03*
X44000Y136016D02*
D03*
X59500Y42500D02*
D03*
X31000Y42000D02*
D03*
X51500Y53500D02*
D03*
X59000D02*
D03*
D76*
X72000Y20331D02*
D03*
M02*
