G04*
G04 #@! TF.GenerationSoftware,Altium Limited,Altium Designer,24.6.1 (21)*
G04*
G04 Layer_Physical_Order=3*
G04 Layer_Color=16440176*
%FSLAX25Y25*%
%MOIN*%
G70*
G04*
G04 #@! TF.SameCoordinates,1986151C-97A1-4A67-A93D-4D8E7053BCD9*
G04*
G04*
G04 #@! TF.FilePolarity,Positive*
G04*
G01*
G75*
%ADD70C,0.00800*%
%ADD75C,0.01800*%
G36*
X77410Y17019D02*
X63953D01*
X63784Y17519D01*
X64239Y18200D01*
X64423Y19124D01*
Y22274D01*
X64239Y23198D01*
X63716Y23981D01*
X62932Y24505D01*
X62008Y24689D01*
X61084Y24505D01*
X60300Y23981D01*
X59777Y23198D01*
X59593Y22274D01*
Y19124D01*
X59777Y18200D01*
X60232Y17519D01*
X60063Y17019D01*
X29937D01*
X29768Y17519D01*
X30223Y18200D01*
X30407Y19124D01*
Y22274D01*
X30223Y23198D01*
X29700Y23981D01*
X28916Y24505D01*
X27992Y24689D01*
X27068Y24505D01*
X26284Y23981D01*
X25761Y23198D01*
X25577Y22274D01*
Y19124D01*
X25761Y18200D01*
X26216Y17519D01*
X26047Y17019D01*
X12519D01*
Y183027D01*
X12984Y183113D01*
X13197Y182598D01*
X13591Y182204D01*
X14105Y181991D01*
X14662D01*
X15177Y182204D01*
X15571Y182598D01*
X15784Y183113D01*
Y183670D01*
X15742Y183772D01*
X16076Y184272D01*
X32085D01*
X32313Y183793D01*
X32100Y183279D01*
Y182721D01*
X32313Y182207D01*
X32707Y181813D01*
X33222Y181600D01*
X33779D01*
X34293Y181813D01*
X34687Y182207D01*
X34900Y182721D01*
Y183279D01*
X34687Y183793D01*
X34915Y184272D01*
X54813D01*
X54912Y183772D01*
X54707Y183687D01*
X54313Y183293D01*
X54100Y182779D01*
Y182221D01*
X54313Y181707D01*
X54707Y181313D01*
X55221Y181100D01*
X55778D01*
X56293Y181313D01*
X56687Y181707D01*
X56900Y182221D01*
Y182779D01*
X56687Y183293D01*
X56293Y183687D01*
X56088Y183772D01*
X56187Y184272D01*
X77410D01*
Y17019D01*
D02*
G37*
%LPC*%
G36*
X38278Y183400D02*
X37721D01*
X37207Y183187D01*
X36813Y182793D01*
X36600Y182279D01*
Y181721D01*
X36813Y181207D01*
X37207Y180813D01*
X37721Y180600D01*
X38278D01*
X38793Y180813D01*
X39187Y181207D01*
X39400Y181721D01*
Y182279D01*
X39187Y182793D01*
X38793Y183187D01*
X38278Y183400D01*
D02*
G37*
G36*
X70779Y182900D02*
X70222D01*
X69707Y182687D01*
X69313Y182293D01*
X69100Y181779D01*
Y181221D01*
X69313Y180707D01*
X69707Y180313D01*
X70222Y180100D01*
X70779D01*
X71293Y180313D01*
X71687Y180707D01*
X71900Y181221D01*
Y181779D01*
X71687Y182293D01*
X71293Y182687D01*
X70779Y182900D01*
D02*
G37*
G36*
X51279Y179400D02*
X50722D01*
X50207Y179187D01*
X49813Y178793D01*
X49600Y178279D01*
Y177722D01*
X49813Y177207D01*
X50207Y176813D01*
X50722Y176600D01*
X51279D01*
X51793Y176813D01*
X52187Y177207D01*
X52400Y177722D01*
Y178279D01*
X52187Y178793D01*
X51793Y179187D01*
X51279Y179400D01*
D02*
G37*
G36*
X19278Y178400D02*
X18722D01*
X18207Y178187D01*
X17813Y177793D01*
X17600Y177278D01*
Y176722D01*
X17813Y176207D01*
X18207Y175813D01*
X18722Y175600D01*
X19278D01*
X19793Y175813D01*
X20187Y176207D01*
X20400Y176722D01*
Y177278D01*
X20187Y177793D01*
X19793Y178187D01*
X19278Y178400D01*
D02*
G37*
G36*
X51279Y175900D02*
X50722D01*
X50207Y175687D01*
X49813Y175293D01*
X49600Y174778D01*
Y174222D01*
X49813Y173707D01*
X50207Y173313D01*
X50722Y173100D01*
X51279D01*
X51793Y173313D01*
X52187Y173707D01*
X52400Y174222D01*
Y174778D01*
X52187Y175293D01*
X51793Y175687D01*
X51279Y175900D01*
D02*
G37*
G36*
X19278Y173900D02*
X18722D01*
X18207Y173687D01*
X17813Y173293D01*
X17600Y172778D01*
Y172222D01*
X17813Y171707D01*
X18207Y171313D01*
X18722Y171100D01*
X19278D01*
X19793Y171313D01*
X20187Y171707D01*
X20400Y172222D01*
Y172778D01*
X20187Y173293D01*
X19793Y173687D01*
X19278Y173900D01*
D02*
G37*
G36*
X25278Y170900D02*
X24722D01*
X24207Y170687D01*
X23813Y170293D01*
X23600Y169779D01*
Y169221D01*
X23813Y168707D01*
X24207Y168313D01*
X24722Y168100D01*
X25278D01*
X25793Y168313D01*
X26187Y168707D01*
X26400Y169221D01*
Y169779D01*
X26187Y170293D01*
X25793Y170687D01*
X25278Y170900D01*
D02*
G37*
G36*
X37778Y168400D02*
X37222D01*
X36707Y168187D01*
X36313Y167793D01*
X36100Y167279D01*
Y166721D01*
X36313Y166207D01*
X36707Y165813D01*
X37222Y165600D01*
X37778D01*
X38293Y165813D01*
X38687Y166207D01*
X38900Y166721D01*
Y167279D01*
X38687Y167793D01*
X38293Y168187D01*
X37778Y168400D01*
D02*
G37*
G36*
X15778D02*
X15222D01*
X14707Y168187D01*
X14313Y167793D01*
X14100Y167279D01*
Y166721D01*
X14313Y166207D01*
X14707Y165813D01*
X15222Y165600D01*
X15778D01*
X16293Y165813D01*
X16687Y166207D01*
X16900Y166721D01*
Y167279D01*
X16687Y167793D01*
X16293Y168187D01*
X15778Y168400D01*
D02*
G37*
G36*
X32278Y166400D02*
X31721D01*
X31207Y166187D01*
X30813Y165793D01*
X30600Y165278D01*
Y164722D01*
X30813Y164207D01*
X31207Y163813D01*
X31721Y163600D01*
X32278D01*
X32793Y163813D01*
X33187Y164207D01*
X33400Y164722D01*
Y165278D01*
X33187Y165793D01*
X32793Y166187D01*
X32278Y166400D01*
D02*
G37*
G36*
X19278Y165900D02*
X18722D01*
X18207Y165687D01*
X17813Y165293D01*
X17600Y164778D01*
Y164222D01*
X17813Y163707D01*
X18207Y163313D01*
X18722Y163100D01*
X19278D01*
X19793Y163313D01*
X20187Y163707D01*
X20400Y164222D01*
Y164778D01*
X20187Y165293D01*
X19793Y165687D01*
X19278Y165900D01*
D02*
G37*
G36*
X69279Y161400D02*
X68721D01*
X68207Y161187D01*
X67813Y160793D01*
X67600Y160278D01*
Y159722D01*
X67813Y159207D01*
X68207Y158813D01*
X68721Y158600D01*
X69279D01*
X69793Y158813D01*
X70187Y159207D01*
X70400Y159722D01*
Y160278D01*
X70187Y160793D01*
X69793Y161187D01*
X69279Y161400D01*
D02*
G37*
G36*
X65279D02*
X64722D01*
X64207Y161187D01*
X63813Y160793D01*
X63600Y160278D01*
Y159722D01*
X63813Y159207D01*
X64207Y158813D01*
X64722Y158600D01*
X65279D01*
X65793Y158813D01*
X66187Y159207D01*
X66400Y159722D01*
Y160278D01*
X66187Y160793D01*
X65793Y161187D01*
X65279Y161400D01*
D02*
G37*
G36*
X25944D02*
X25387D01*
X24873Y161187D01*
X24479Y160793D01*
X24266Y160278D01*
Y159722D01*
X24479Y159207D01*
X24873Y158813D01*
X25387Y158600D01*
X25944D01*
X26459Y158813D01*
X26853Y159207D01*
X27066Y159722D01*
Y160278D01*
X26853Y160793D01*
X26459Y161187D01*
X25944Y161400D01*
D02*
G37*
G36*
X38778Y159900D02*
X38221D01*
X37707Y159687D01*
X37313Y159293D01*
X37100Y158779D01*
Y158221D01*
X37313Y157707D01*
X37707Y157313D01*
X38221Y157100D01*
X38778D01*
X39293Y157313D01*
X39687Y157707D01*
X39900Y158221D01*
Y158779D01*
X39687Y159293D01*
X39293Y159687D01*
X38778Y159900D01*
D02*
G37*
G36*
X67278Y158400D02*
X66721D01*
X66207Y158187D01*
X65813Y157793D01*
X65600Y157279D01*
Y156721D01*
X65813Y156207D01*
X66207Y155813D01*
X66721Y155600D01*
X67278D01*
X67793Y155813D01*
X68187Y156207D01*
X68400Y156721D01*
Y157279D01*
X68187Y157793D01*
X67793Y158187D01*
X67278Y158400D01*
D02*
G37*
G36*
X14778Y157400D02*
X14221D01*
X13707Y157187D01*
X13313Y156793D01*
X13100Y156279D01*
Y155721D01*
X13313Y155207D01*
X13707Y154813D01*
X14221Y154600D01*
X14778D01*
X15293Y154813D01*
X15687Y155207D01*
X15900Y155721D01*
Y156279D01*
X15687Y156793D01*
X15293Y157187D01*
X14778Y157400D01*
D02*
G37*
G36*
X74778Y149400D02*
X74221D01*
X73707Y149187D01*
X73313Y148793D01*
X73100Y148278D01*
Y147722D01*
X73313Y147207D01*
X73707Y146813D01*
X74221Y146600D01*
X74778D01*
X75293Y146813D01*
X75687Y147207D01*
X75900Y147722D01*
Y148278D01*
X75687Y148793D01*
X75293Y149187D01*
X74778Y149400D01*
D02*
G37*
G36*
X30779D02*
X30222D01*
X29707Y149187D01*
X29313Y148793D01*
X29100Y148278D01*
Y147722D01*
X29313Y147207D01*
X29707Y146813D01*
X30222Y146600D01*
X30467D01*
X30520Y146509D01*
X30620Y146100D01*
X30313Y145793D01*
X30100Y145279D01*
Y144721D01*
X30313Y144207D01*
X30707Y143813D01*
X31222Y143600D01*
X31778D01*
X32293Y143813D01*
X32687Y144207D01*
X32729Y144310D01*
X33271D01*
X33313Y144207D01*
X33707Y143813D01*
X34222Y143600D01*
X34778D01*
X35293Y143813D01*
X35687Y144207D01*
X35900Y144721D01*
Y145279D01*
X35687Y145793D01*
X35293Y146187D01*
X34778Y146400D01*
X34222D01*
X33707Y146187D01*
X33313Y145793D01*
X33271Y145690D01*
X32729D01*
X32687Y145793D01*
X32293Y146187D01*
X31778Y146400D01*
X31533D01*
X31481Y146491D01*
X31380Y146900D01*
X31687Y147207D01*
X31900Y147722D01*
Y148278D01*
X31687Y148793D01*
X31293Y149187D01*
X30779Y149400D01*
D02*
G37*
G36*
X33781Y142731D02*
X33781Y142731D01*
X21335D01*
X21335Y142731D01*
X21023Y142669D01*
X20759Y142492D01*
X19179Y140913D01*
X19003Y140649D01*
X18940Y140336D01*
X18940Y140336D01*
Y136094D01*
X17747Y134900D01*
X17221D01*
X16707Y134687D01*
X16313Y134293D01*
X16100Y133779D01*
Y133221D01*
X16313Y132707D01*
X16707Y132313D01*
X17221Y132100D01*
X17778D01*
X18293Y132313D01*
X18687Y132707D01*
X18900Y133221D01*
Y133747D01*
X20216Y135062D01*
X20678Y134909D01*
X20716Y134880D01*
Y134722D01*
X20929Y134207D01*
X21323Y133813D01*
X21837Y133600D01*
X22394D01*
X22909Y133813D01*
X23303Y134207D01*
X23516Y134722D01*
Y134930D01*
X24155Y135570D01*
X24385D01*
X24385Y135570D01*
X24697Y135632D01*
X24962Y135808D01*
X26434Y137281D01*
X33566D01*
X50946Y119900D01*
X50739Y119400D01*
X50722D01*
X50207Y119187D01*
X49813Y118793D01*
X49600Y118279D01*
Y117721D01*
X49813Y117207D01*
X50207Y116813D01*
X50722Y116600D01*
X51279D01*
X51793Y116813D01*
X52187Y117207D01*
X52400Y117721D01*
Y117739D01*
X52900Y117947D01*
X56308Y114539D01*
X56308Y114539D01*
X56572Y114362D01*
X56884Y114300D01*
X56884Y114300D01*
X63861D01*
X63862Y114300D01*
X64174Y114362D01*
X64438Y114539D01*
X64763Y114864D01*
X64964Y114781D01*
X65521D01*
X66036Y114994D01*
X66430Y115388D01*
X66643Y115902D01*
Y116459D01*
X66430Y116974D01*
X66036Y117368D01*
X65521Y117581D01*
X64964D01*
X64450Y117368D01*
X64056Y116974D01*
X63843Y116459D01*
Y116251D01*
X63524Y115931D01*
X58618D01*
X58411Y116431D01*
X58519Y116539D01*
X58732Y117054D01*
Y117611D01*
X58519Y118125D01*
X58125Y118519D01*
X57727Y118684D01*
X57826Y119184D01*
X67567D01*
X67567Y119184D01*
X67879Y119246D01*
X68144Y119423D01*
X70320Y121600D01*
X70845D01*
X71360Y121813D01*
X71754Y122207D01*
X71967Y122722D01*
Y123278D01*
X71754Y123793D01*
X71360Y124187D01*
X70845Y124400D01*
X70288D01*
X69774Y124187D01*
X69380Y123793D01*
X69167Y123278D01*
Y122754D01*
X67229Y120816D01*
X56035D01*
X34358Y142492D01*
X34094Y142669D01*
X33781Y142731D01*
D02*
G37*
G36*
X67778Y142400D02*
X67221D01*
X66707Y142187D01*
X66313Y141793D01*
X66100Y141279D01*
Y140721D01*
X66313Y140207D01*
X66707Y139813D01*
X67221Y139600D01*
X67778D01*
X68293Y139813D01*
X68687Y140207D01*
X68900Y140721D01*
Y141279D01*
X68687Y141793D01*
X68293Y142187D01*
X67778Y142400D01*
D02*
G37*
G36*
X64279D02*
X63722D01*
X63207Y142187D01*
X62813Y141793D01*
X62600Y141279D01*
Y140721D01*
X62813Y140207D01*
X63207Y139813D01*
X63722Y139600D01*
X64279D01*
X64793Y139813D01*
X65187Y140207D01*
X65400Y140721D01*
Y141279D01*
X65187Y141793D01*
X64793Y142187D01*
X64279Y142400D01*
D02*
G37*
G36*
X60778D02*
X60221D01*
X59707Y142187D01*
X59313Y141793D01*
X59100Y141279D01*
Y140721D01*
X59313Y140207D01*
X59707Y139813D01*
X60221Y139600D01*
X60778D01*
X61293Y139813D01*
X61687Y140207D01*
X61900Y140721D01*
Y141279D01*
X61687Y141793D01*
X61293Y142187D01*
X60778Y142400D01*
D02*
G37*
G36*
X57279D02*
X56722D01*
X56207Y142187D01*
X55813Y141793D01*
X55600Y141279D01*
Y140721D01*
X55813Y140207D01*
X56207Y139813D01*
X56722Y139600D01*
X57279D01*
X57793Y139813D01*
X58187Y140207D01*
X58400Y140721D01*
Y141279D01*
X58187Y141793D01*
X57793Y142187D01*
X57279Y142400D01*
D02*
G37*
G36*
X67778Y138400D02*
X67221D01*
X66707Y138187D01*
X66313Y137793D01*
X66100Y137278D01*
Y136722D01*
X66313Y136207D01*
X66707Y135813D01*
X67221Y135600D01*
X67778D01*
X68293Y135813D01*
X68687Y136207D01*
X68900Y136722D01*
Y137278D01*
X68687Y137793D01*
X68293Y138187D01*
X67778Y138400D01*
D02*
G37*
G36*
X64279D02*
X63722D01*
X63207Y138187D01*
X62813Y137793D01*
X62600Y137278D01*
Y136722D01*
X62813Y136207D01*
X63207Y135813D01*
X63722Y135600D01*
X64279D01*
X64793Y135813D01*
X65187Y136207D01*
X65400Y136722D01*
Y137278D01*
X65187Y137793D01*
X64793Y138187D01*
X64279Y138400D01*
D02*
G37*
G36*
X60778D02*
X60221D01*
X59707Y138187D01*
X59313Y137793D01*
X59100Y137278D01*
Y136722D01*
X59313Y136207D01*
X59707Y135813D01*
X60221Y135600D01*
X60778D01*
X61293Y135813D01*
X61687Y136207D01*
X61900Y136722D01*
Y137278D01*
X61687Y137793D01*
X61293Y138187D01*
X60778Y138400D01*
D02*
G37*
G36*
X57279D02*
X56722D01*
X56207Y138187D01*
X55813Y137793D01*
X55600Y137278D01*
Y136722D01*
X55813Y136207D01*
X56207Y135813D01*
X56722Y135600D01*
X57279D01*
X57793Y135813D01*
X58187Y136207D01*
X58400Y136722D01*
Y137278D01*
X58187Y137793D01*
X57793Y138187D01*
X57279Y138400D01*
D02*
G37*
G36*
X44278Y137416D02*
X43722D01*
X43207Y137203D01*
X42813Y136809D01*
X42600Y136294D01*
Y135737D01*
X42813Y135223D01*
X43207Y134829D01*
X43722Y134616D01*
X44278D01*
X44793Y134829D01*
X45187Y135223D01*
X45400Y135737D01*
Y136294D01*
X45187Y136809D01*
X44793Y137203D01*
X44278Y137416D01*
D02*
G37*
G36*
X31071Y136655D02*
X30514D01*
X30000Y136442D01*
X29606Y136048D01*
X29393Y135534D01*
Y134977D01*
X29606Y134462D01*
X30000Y134068D01*
X30514Y133855D01*
X31071D01*
X31586Y134068D01*
X31980Y134462D01*
X32193Y134977D01*
Y135534D01*
X31980Y136048D01*
X31586Y136442D01*
X31071Y136655D01*
D02*
G37*
G36*
X35778Y131400D02*
X35221D01*
X34707Y131187D01*
X34313Y130793D01*
X34271Y130690D01*
X33729D01*
X33687Y130793D01*
X33293Y131187D01*
X32778Y131400D01*
X32221D01*
X31707Y131187D01*
X31313Y130793D01*
X31100Y130279D01*
Y129721D01*
X31313Y129207D01*
X31707Y128813D01*
X32221Y128600D01*
X32440D01*
X32487Y128561D01*
X32733Y128100D01*
X32600Y127778D01*
Y127222D01*
X32813Y126707D01*
X33207Y126313D01*
X33722Y126100D01*
X34279D01*
X34793Y126313D01*
X35187Y126707D01*
X35400Y127222D01*
Y127778D01*
X35267Y128100D01*
X35513Y128561D01*
X35560Y128600D01*
X35778D01*
X36293Y128813D01*
X36687Y129207D01*
X36900Y129721D01*
Y130279D01*
X36687Y130793D01*
X36293Y131187D01*
X35778Y131400D01*
D02*
G37*
G36*
X14778Y132400D02*
X14221D01*
X13707Y132187D01*
X13313Y131793D01*
X13100Y131279D01*
Y130721D01*
X13313Y130207D01*
X13707Y129813D01*
X14221Y129600D01*
X14778D01*
X15293Y129813D01*
X15687Y130207D01*
X15900Y130721D01*
Y131279D01*
X15687Y131793D01*
X15293Y132187D01*
X14778Y132400D01*
D02*
G37*
G36*
X67278Y126137D02*
X66721D01*
X66207Y125923D01*
X65813Y125530D01*
X65600Y125015D01*
Y124458D01*
X65813Y123943D01*
X66207Y123550D01*
X66721Y123337D01*
X67278D01*
X67793Y123550D01*
X68187Y123943D01*
X68400Y124458D01*
Y125015D01*
X68187Y125530D01*
X67793Y125923D01*
X67278Y126137D01*
D02*
G37*
G36*
X32318Y124939D02*
X31760D01*
X31246Y124726D01*
X30852Y124332D01*
X30639Y123818D01*
Y123260D01*
X30852Y122746D01*
X31246Y122352D01*
X31760Y122139D01*
X32318D01*
X32832Y122352D01*
X33226Y122746D01*
X33439Y123260D01*
Y123818D01*
X33226Y124332D01*
X32832Y124726D01*
X32318Y124939D01*
D02*
G37*
G36*
X25278Y124900D02*
X24722D01*
X24207Y124687D01*
X23813Y124293D01*
X23600Y123778D01*
Y123222D01*
X23813Y122707D01*
X24207Y122313D01*
X24722Y122100D01*
X25278D01*
X25793Y122313D01*
X26187Y122707D01*
X26400Y123222D01*
Y123778D01*
X26187Y124293D01*
X25793Y124687D01*
X25278Y124900D01*
D02*
G37*
G36*
X18279Y123900D02*
X17721D01*
X17207Y123687D01*
X16813Y123293D01*
X16600Y122778D01*
Y122222D01*
X16813Y121707D01*
X17207Y121313D01*
X17721Y121100D01*
X18279D01*
X18793Y121313D01*
X19187Y121707D01*
X19400Y122222D01*
Y122778D01*
X19187Y123293D01*
X18793Y123687D01*
X18279Y123900D01*
D02*
G37*
G36*
X28262Y118674D02*
X27705D01*
X27191Y118460D01*
X26797Y118067D01*
X26584Y117552D01*
Y116995D01*
X26797Y116481D01*
X27191Y116087D01*
X27705Y115874D01*
X28262D01*
X28777Y116087D01*
X29171Y116481D01*
X29384Y116995D01*
Y117552D01*
X29171Y118067D01*
X28777Y118460D01*
X28262Y118674D01*
D02*
G37*
G36*
X59778Y112016D02*
X59222D01*
X58707Y111803D01*
X58313Y111409D01*
X58100Y110894D01*
Y110337D01*
X58313Y109823D01*
X58707Y109429D01*
X59222Y109216D01*
X59778D01*
X60293Y109429D01*
X60687Y109823D01*
X60900Y110337D01*
Y110894D01*
X60687Y111409D01*
X60293Y111803D01*
X59778Y112016D01*
D02*
G37*
G36*
X20778Y110336D02*
X20222D01*
X19707Y110122D01*
X19313Y109729D01*
X19100Y109214D01*
Y108657D01*
X19313Y108142D01*
X19707Y107749D01*
X20222Y107536D01*
X20778D01*
X21293Y107749D01*
X21687Y108142D01*
X21900Y108657D01*
Y109214D01*
X21687Y109729D01*
X21293Y110122D01*
X20778Y110336D01*
D02*
G37*
G36*
X24779Y109900D02*
X24221D01*
X23707Y109687D01*
X23313Y109293D01*
X23100Y108779D01*
Y108221D01*
X23313Y107707D01*
X23707Y107313D01*
X24221Y107100D01*
X24779D01*
X25293Y107313D01*
X25687Y107707D01*
X25900Y108221D01*
Y108779D01*
X25687Y109293D01*
X25293Y109687D01*
X24779Y109900D01*
D02*
G37*
G36*
X70623Y109827D02*
X70066D01*
X69551Y109614D01*
X69157Y109221D01*
X68944Y108706D01*
Y108149D01*
X69157Y107634D01*
X69551Y107241D01*
X70066Y107027D01*
X70623D01*
X71137Y107241D01*
X71531Y107634D01*
X71744Y108149D01*
Y108706D01*
X71531Y109221D01*
X71137Y109614D01*
X70623Y109827D01*
D02*
G37*
G36*
X63779Y108900D02*
X63222D01*
X62707Y108687D01*
X62313Y108293D01*
X62100Y107779D01*
Y107221D01*
X62313Y106707D01*
X62707Y106313D01*
X63222Y106100D01*
X63779D01*
X64293Y106313D01*
X64687Y106707D01*
X64900Y107221D01*
Y107779D01*
X64687Y108293D01*
X64293Y108687D01*
X63779Y108900D01*
D02*
G37*
G36*
X20778Y105900D02*
X20222D01*
X19707Y105687D01*
X19313Y105293D01*
X19100Y104779D01*
Y104221D01*
X19313Y103707D01*
X19707Y103313D01*
X20222Y103100D01*
X20778D01*
X21293Y103313D01*
X21687Y103707D01*
X21900Y104221D01*
Y104779D01*
X21687Y105293D01*
X21293Y105687D01*
X20778Y105900D01*
D02*
G37*
G36*
X43279Y103900D02*
X42722D01*
X42207Y103687D01*
X41813Y103293D01*
X41600Y102778D01*
Y102222D01*
X41813Y101707D01*
X42207Y101313D01*
X42722Y101100D01*
X43279D01*
X43793Y101313D01*
X44187Y101707D01*
X44400Y102222D01*
Y102778D01*
X44187Y103293D01*
X43793Y103687D01*
X43279Y103900D01*
D02*
G37*
G36*
X27779D02*
X27222D01*
X26707Y103687D01*
X26313Y103293D01*
X26100Y102778D01*
Y102222D01*
X26313Y101707D01*
X26707Y101313D01*
X27222Y101100D01*
X27779D01*
X28293Y101313D01*
X28687Y101707D01*
X28900Y102222D01*
Y102778D01*
X28687Y103293D01*
X28293Y103687D01*
X27779Y103900D01*
D02*
G37*
G36*
X19278Y102900D02*
X18722D01*
X18207Y102687D01*
X17813Y102293D01*
X17600Y101778D01*
Y101222D01*
X17813Y100707D01*
X18207Y100313D01*
X18722Y100100D01*
X19278D01*
X19793Y100313D01*
X20187Y100707D01*
X20400Y101222D01*
Y101778D01*
X20187Y102293D01*
X19793Y102687D01*
X19278Y102900D01*
D02*
G37*
G36*
X47778Y99900D02*
X47221D01*
X46707Y99687D01*
X46313Y99293D01*
X46100Y98778D01*
Y98221D01*
X46313Y97707D01*
X46707Y97313D01*
X47221Y97100D01*
X47778D01*
X48293Y97313D01*
X48687Y97707D01*
X48900Y98221D01*
Y98778D01*
X48687Y99293D01*
X48293Y99687D01*
X47778Y99900D01*
D02*
G37*
G36*
X24694Y99400D02*
X24137D01*
X23623Y99187D01*
X23229Y98793D01*
X23016Y98278D01*
Y97721D01*
X23229Y97207D01*
X23623Y96813D01*
X24137Y96600D01*
X24694D01*
X25209Y96813D01*
X25603Y97207D01*
X25816Y97721D01*
Y98278D01*
X25603Y98793D01*
X25209Y99187D01*
X24694Y99400D01*
D02*
G37*
G36*
X63623Y99327D02*
X63066D01*
X62551Y99114D01*
X62157Y98721D01*
X61944Y98206D01*
Y97649D01*
X62157Y97134D01*
X62551Y96741D01*
X63066Y96527D01*
X63623D01*
X64137Y96741D01*
X64531Y97134D01*
X64744Y97649D01*
Y98206D01*
X64531Y98721D01*
X64137Y99114D01*
X63623Y99327D01*
D02*
G37*
G36*
X19406Y98343D02*
X18849D01*
X18334Y98130D01*
X17940Y97736D01*
X17727Y97222D01*
Y96665D01*
X17940Y96150D01*
X18334Y95756D01*
X18849Y95543D01*
X19406D01*
X19920Y95756D01*
X20314Y96150D01*
X20527Y96665D01*
Y97222D01*
X20314Y97736D01*
X19920Y98130D01*
X19406Y98343D01*
D02*
G37*
G36*
X47778Y91900D02*
X47221D01*
X46707Y91687D01*
X46313Y91293D01*
X46100Y90778D01*
Y90222D01*
X46313Y89707D01*
X46707Y89313D01*
X47221Y89100D01*
X47778D01*
X48293Y89313D01*
X48687Y89707D01*
X48900Y90222D01*
Y90778D01*
X48687Y91293D01*
X48293Y91687D01*
X47778Y91900D01*
D02*
G37*
G36*
X23181Y91749D02*
X22624D01*
X22109Y91536D01*
X21715Y91142D01*
X21502Y90627D01*
Y90070D01*
X21715Y89556D01*
X22109Y89162D01*
X22624Y88949D01*
X23181D01*
X23695Y89162D01*
X24089Y89556D01*
X24302Y90070D01*
Y90627D01*
X24089Y91142D01*
X23695Y91536D01*
X23181Y91749D01*
D02*
G37*
G36*
X70345Y91400D02*
X69788D01*
X69274Y91187D01*
X68880Y90793D01*
X68667Y90279D01*
Y89722D01*
X68880Y89207D01*
X69274Y88813D01*
X69788Y88600D01*
X70345D01*
X70860Y88813D01*
X71254Y89207D01*
X71467Y89722D01*
Y90279D01*
X71254Y90793D01*
X70860Y91187D01*
X70345Y91400D01*
D02*
G37*
G36*
X19581D02*
X19024D01*
X18509Y91187D01*
X18115Y90793D01*
X17902Y90279D01*
Y89722D01*
X18115Y89207D01*
X18509Y88813D01*
X19024Y88600D01*
X19581D01*
X20095Y88813D01*
X20489Y89207D01*
X20702Y89722D01*
Y90279D01*
X20489Y90793D01*
X20095Y91187D01*
X19581Y91400D01*
D02*
G37*
G36*
X63403Y89608D02*
X62846D01*
X62332Y89395D01*
X61938Y89001D01*
X61725Y88487D01*
Y87930D01*
X61938Y87415D01*
X62332Y87021D01*
X62846Y86808D01*
X63403D01*
X63918Y87021D01*
X64312Y87415D01*
X64525Y87930D01*
Y88487D01*
X64312Y89001D01*
X63918Y89395D01*
X63403Y89608D01*
D02*
G37*
G36*
X19779Y87900D02*
X19221D01*
X18707Y87687D01*
X18313Y87293D01*
X18100Y86778D01*
Y86221D01*
X18313Y85707D01*
X18707Y85313D01*
X19221Y85100D01*
X19779D01*
X20293Y85313D01*
X20687Y85707D01*
X20900Y86221D01*
Y86778D01*
X20687Y87293D01*
X20293Y87687D01*
X19779Y87900D01*
D02*
G37*
G36*
X47778Y83900D02*
X47221D01*
X46707Y83687D01*
X46313Y83293D01*
X46100Y82779D01*
Y82222D01*
X46313Y81707D01*
X46707Y81313D01*
X47221Y81100D01*
X47778D01*
X48293Y81313D01*
X48687Y81707D01*
X48900Y82222D01*
Y82779D01*
X48687Y83293D01*
X48293Y83687D01*
X47778Y83900D01*
D02*
G37*
G36*
X22779D02*
X22221D01*
X21707Y83687D01*
X21313Y83293D01*
X21100Y82779D01*
Y82222D01*
X21313Y81707D01*
X21707Y81313D01*
X22221Y81100D01*
X22779D01*
X23293Y81313D01*
X23687Y81707D01*
X23900Y82222D01*
Y82779D01*
X23687Y83293D01*
X23293Y83687D01*
X22779Y83900D01*
D02*
G37*
G36*
X63623Y80327D02*
X63066D01*
X62551Y80114D01*
X62157Y79720D01*
X61944Y79206D01*
Y78649D01*
X62157Y78134D01*
X62551Y77741D01*
X63066Y77527D01*
X63623D01*
X64137Y77741D01*
X64531Y78134D01*
X64744Y78649D01*
Y79206D01*
X64531Y79720D01*
X64137Y80114D01*
X63623Y80327D01*
D02*
G37*
G36*
X27779Y78900D02*
X27222D01*
X26707Y78687D01*
X26313Y78293D01*
X26100Y77779D01*
Y77222D01*
X26313Y76707D01*
X26707Y76313D01*
X27222Y76100D01*
X27779D01*
X28293Y76313D01*
X28687Y76707D01*
X28900Y77222D01*
Y77779D01*
X28687Y78293D01*
X28293Y78687D01*
X27779Y78900D01*
D02*
G37*
G36*
X70779Y77400D02*
X70222D01*
X69707Y77187D01*
X69313Y76793D01*
X69100Y76279D01*
Y75722D01*
X69313Y75207D01*
X69707Y74813D01*
X70222Y74600D01*
X70779D01*
X71293Y74813D01*
X71687Y75207D01*
X71900Y75722D01*
Y76279D01*
X71687Y76793D01*
X71293Y77187D01*
X70779Y77400D01*
D02*
G37*
G36*
X20279Y81400D02*
X19722D01*
X19207Y81187D01*
X18813Y80793D01*
X18600Y80278D01*
Y79721D01*
X18813Y79207D01*
X19207Y78813D01*
X19637Y78635D01*
X19644Y78594D01*
Y78176D01*
X19637Y78135D01*
X19207Y77957D01*
X18813Y77563D01*
X18600Y77048D01*
Y76491D01*
X18813Y75977D01*
X19207Y75583D01*
X19722Y75370D01*
X20149Y75370D01*
X20222Y74900D01*
X19707Y74687D01*
X19313Y74293D01*
X19100Y73778D01*
Y73221D01*
X19313Y72707D01*
X19707Y72313D01*
X20222Y72100D01*
X20778D01*
X21293Y72313D01*
X21687Y72707D01*
X21900Y73221D01*
Y73778D01*
X21687Y74293D01*
X21293Y74687D01*
X20778Y74900D01*
X20351Y74900D01*
X20279Y75370D01*
X20793Y75583D01*
X21187Y75977D01*
X21400Y76491D01*
Y77048D01*
X21187Y77563D01*
X20793Y77957D01*
X20363Y78135D01*
X20356Y78176D01*
Y78594D01*
X20363Y78635D01*
X20793Y78813D01*
X21187Y79207D01*
X21400Y79721D01*
Y80278D01*
X21187Y80793D01*
X20793Y81187D01*
X20279Y81400D01*
D02*
G37*
G36*
X38778Y75900D02*
X38221D01*
X37707Y75687D01*
X37313Y75293D01*
X37100Y74778D01*
Y74221D01*
X37313Y73707D01*
X37707Y73313D01*
X38003Y73190D01*
X38226Y72905D01*
X38233Y72600D01*
X38100Y72278D01*
Y71722D01*
X38313Y71207D01*
X38707Y70813D01*
X39222Y70600D01*
X39779D01*
X40293Y70813D01*
X40687Y71207D01*
X40900Y71722D01*
Y72278D01*
X40687Y72793D01*
X40293Y73187D01*
X39997Y73310D01*
X39774Y73595D01*
X39767Y73900D01*
X39900Y74221D01*
Y74778D01*
X39687Y75293D01*
X39293Y75687D01*
X38778Y75900D01*
D02*
G37*
G36*
X48779Y72900D02*
X48221D01*
X47707Y72687D01*
X47313Y72293D01*
X47100Y71779D01*
Y71222D01*
X47313Y70707D01*
X47707Y70313D01*
X48221Y70100D01*
X48779D01*
X49293Y70313D01*
X49687Y70707D01*
X49900Y71222D01*
Y71779D01*
X49687Y72293D01*
X49293Y72687D01*
X48779Y72900D01*
D02*
G37*
G36*
X27779Y64400D02*
X27222D01*
X26707Y64187D01*
X26313Y63793D01*
X26100Y63279D01*
Y62722D01*
X26313Y62207D01*
X26707Y61813D01*
X27222Y61600D01*
X27779D01*
X28293Y61813D01*
X28687Y62207D01*
X28900Y62722D01*
Y63279D01*
X28687Y63793D01*
X28293Y64187D01*
X27779Y64400D01*
D02*
G37*
G36*
X17278Y63900D02*
X16722D01*
X16207Y63687D01*
X15813Y63293D01*
X15600Y62779D01*
Y62221D01*
X15813Y61707D01*
X16207Y61313D01*
X16722Y61100D01*
X17278D01*
X17793Y61313D01*
X18187Y61707D01*
X18400Y62221D01*
Y62779D01*
X18187Y63293D01*
X17793Y63687D01*
X17278Y63900D01*
D02*
G37*
G36*
X59778Y61400D02*
X59222D01*
X58707Y61187D01*
X58313Y60793D01*
X58100Y60278D01*
Y59721D01*
X58313Y59207D01*
X58707Y58813D01*
X59222Y58600D01*
X59778D01*
X60293Y58813D01*
X60687Y59207D01*
X60900Y59721D01*
Y60278D01*
X60687Y60793D01*
X60293Y61187D01*
X59778Y61400D01*
D02*
G37*
G36*
X31278D02*
X30722D01*
X30207Y61187D01*
X29813Y60793D01*
X29600Y60278D01*
Y59721D01*
X29813Y59207D01*
X30207Y58813D01*
X30722Y58600D01*
X31278D01*
X31793Y58813D01*
X32187Y59207D01*
X32400Y59721D01*
Y60278D01*
X32187Y60793D01*
X31793Y61187D01*
X31278Y61400D01*
D02*
G37*
G36*
X69779Y60900D02*
X69222D01*
X68707Y60687D01*
X68313Y60293D01*
X68100Y59778D01*
Y59222D01*
X68313Y58707D01*
X68707Y58313D01*
X69222Y58100D01*
X69779D01*
X70293Y58313D01*
X70687Y58707D01*
X70900Y59222D01*
Y59778D01*
X70687Y60293D01*
X70293Y60687D01*
X69779Y60900D01*
D02*
G37*
G36*
X31278Y56900D02*
X30722D01*
X30207Y56687D01*
X29813Y56293D01*
X29600Y55778D01*
Y55221D01*
X29813Y54707D01*
X30207Y54313D01*
X30722Y54100D01*
X31278D01*
X31793Y54313D01*
X32187Y54707D01*
X32400Y55221D01*
Y55778D01*
X32187Y56293D01*
X31793Y56687D01*
X31278Y56900D01*
D02*
G37*
G36*
X69779Y55900D02*
X69222D01*
X68707Y55687D01*
X68313Y55293D01*
X68100Y54778D01*
Y54221D01*
X68313Y53707D01*
X68707Y53313D01*
X69222Y53100D01*
X69779D01*
X70293Y53313D01*
X70687Y53707D01*
X70900Y54221D01*
Y54778D01*
X70687Y55293D01*
X70293Y55687D01*
X69779Y55900D01*
D02*
G37*
G36*
X59778Y57900D02*
X59222D01*
X58707Y57687D01*
X58313Y57293D01*
X58100Y56779D01*
Y56221D01*
X58313Y55707D01*
X58650Y55370D01*
X58655Y55333D01*
X58629Y55059D01*
X58560Y54833D01*
X58207Y54687D01*
X57813Y54293D01*
X57600Y53778D01*
Y53221D01*
X57813Y52707D01*
X58207Y52313D01*
X58722Y52100D01*
X59279D01*
X59793Y52313D01*
X60187Y52707D01*
X60400Y53221D01*
Y53778D01*
X60187Y54293D01*
X59850Y54630D01*
X59845Y54667D01*
X59871Y54940D01*
X59940Y55167D01*
X60293Y55313D01*
X60687Y55707D01*
X60900Y56221D01*
Y56779D01*
X60687Y57293D01*
X60293Y57687D01*
X59778Y57900D01*
D02*
G37*
G36*
X51779Y54900D02*
X51222D01*
X50707Y54687D01*
X50313Y54293D01*
X50100Y53778D01*
Y53221D01*
X50313Y52707D01*
X50707Y52313D01*
X51222Y52100D01*
X51779D01*
X52293Y52313D01*
X52687Y52707D01*
X52900Y53221D01*
Y53778D01*
X52687Y54293D01*
X52293Y54687D01*
X51779Y54900D01*
D02*
G37*
G36*
X31278Y52400D02*
X30722D01*
X30207Y52187D01*
X29813Y51793D01*
X29600Y51279D01*
Y50722D01*
X29813Y50207D01*
X30207Y49813D01*
X30722Y49600D01*
X31278D01*
X31793Y49813D01*
X32187Y50207D01*
X32400Y50722D01*
Y51279D01*
X32187Y51793D01*
X31793Y52187D01*
X31278Y52400D01*
D02*
G37*
G36*
X44778Y47379D02*
X44221D01*
X43707Y47166D01*
X43313Y46772D01*
X43100Y46257D01*
Y45700D01*
X43313Y45186D01*
X43707Y44792D01*
X44221Y44579D01*
X44778D01*
X45293Y44792D01*
X45687Y45186D01*
X45900Y45700D01*
Y46257D01*
X45687Y46772D01*
X45293Y47166D01*
X44778Y47379D01*
D02*
G37*
G36*
X16278Y46900D02*
X15721D01*
X15207Y46687D01*
X14813Y46293D01*
X14600Y45779D01*
Y45221D01*
X14813Y44707D01*
X15207Y44313D01*
X15721Y44100D01*
X16278D01*
X16793Y44313D01*
X17187Y44707D01*
X17400Y45221D01*
Y45779D01*
X17187Y46293D01*
X16793Y46687D01*
X16278Y46900D01*
D02*
G37*
G36*
X54778Y44400D02*
X54221D01*
X53707Y44187D01*
X53313Y43793D01*
X53100Y43279D01*
Y42722D01*
X53313Y42207D01*
X53707Y41813D01*
X54221Y41600D01*
X54778D01*
X55293Y41813D01*
X55687Y42207D01*
X55900Y42722D01*
Y43279D01*
X55687Y43793D01*
X55293Y44187D01*
X54778Y44400D01*
D02*
G37*
G36*
X31278Y43400D02*
X30722D01*
X30207Y43187D01*
X29813Y42793D01*
X29600Y42279D01*
Y41721D01*
X29682Y41523D01*
X29278Y41191D01*
X28916Y41433D01*
X27992Y41617D01*
X27068Y41433D01*
X26284Y40910D01*
X25761Y40126D01*
X25577Y39202D01*
Y34872D01*
X25761Y33948D01*
X26284Y33164D01*
X27068Y32641D01*
X27992Y32457D01*
X28916Y32641D01*
X29700Y33164D01*
X30223Y33948D01*
X30407Y34872D01*
Y39202D01*
X30223Y40126D01*
X30095Y40318D01*
X30426Y40722D01*
X30722Y40600D01*
X31278D01*
X31793Y40813D01*
X32187Y41207D01*
X32400Y41721D01*
Y42279D01*
X32187Y42793D01*
X31793Y43187D01*
X31278Y43400D01*
D02*
G37*
G36*
X35829Y43848D02*
X35272D01*
X34758Y43635D01*
X34364Y43241D01*
X34151Y42726D01*
Y42169D01*
X34364Y41655D01*
X34758Y41261D01*
X35272Y41048D01*
X35829D01*
X36344Y41261D01*
X36738Y41655D01*
X36951Y42169D01*
Y42726D01*
X36738Y43241D01*
X36344Y43635D01*
X35829Y43848D01*
D02*
G37*
G36*
X70279Y42900D02*
X69722D01*
X69207Y42687D01*
X68813Y42293D01*
X68600Y41778D01*
Y41221D01*
X68813Y40707D01*
X69207Y40313D01*
X69722Y40100D01*
X70279D01*
X70793Y40313D01*
X71187Y40707D01*
X71400Y41221D01*
Y41778D01*
X71187Y42293D01*
X70793Y42687D01*
X70279Y42900D01*
D02*
G37*
G36*
X56124Y37370D02*
X55734Y37293D01*
X55263Y37098D01*
X54933Y36877D01*
X54573Y36517D01*
X54352Y36187D01*
X54157Y35716D01*
X54079Y35326D01*
X54079Y35072D01*
X54079Y34817D01*
X54156Y34427D01*
X54351Y33957D01*
X54572Y33626D01*
X54932Y33266D01*
X55263Y33045D01*
X55733Y32850D01*
X56123Y32772D01*
X56632Y32772D01*
X57022Y32850D01*
X57493Y33044D01*
X57823Y33265D01*
X58183Y33625D01*
X58404Y33956D01*
X58599Y34426D01*
X58677Y34816D01*
X58677Y35071D01*
X58677Y35325D01*
X58600Y35715D01*
X58405Y36186D01*
X58184Y36517D01*
X57824Y36877D01*
X57493Y37098D01*
X57023Y37293D01*
X56633Y37370D01*
X56124Y37370D01*
D02*
G37*
G36*
X33368D02*
X32978Y37293D01*
X32507Y37098D01*
X32177Y36877D01*
X31817Y36517D01*
X31596Y36187D01*
X31401Y35716D01*
X31323Y35326D01*
X31323Y35072D01*
X31323Y34817D01*
X31400Y34427D01*
X31595Y33957D01*
X31816Y33626D01*
X32176Y33266D01*
X32507Y33045D01*
X32977Y32850D01*
X33367Y32772D01*
X33876Y32772D01*
X34266Y32850D01*
X34736Y33044D01*
X35067Y33265D01*
X35427Y33625D01*
X35649Y33956D01*
X35843Y34426D01*
X35921Y34816D01*
X35921Y35071D01*
X35921Y35325D01*
X35844Y35715D01*
X35649Y36186D01*
X35428Y36517D01*
X35068Y36877D01*
X34737Y37098D01*
X34267Y37293D01*
X33877Y37370D01*
X33368Y37370D01*
D02*
G37*
G36*
X59778Y43900D02*
X59222D01*
X58707Y43687D01*
X58313Y43293D01*
X58100Y42779D01*
Y42222D01*
X58313Y41707D01*
X58707Y41313D01*
X59222Y41100D01*
X59778D01*
X59844Y41127D01*
X60176Y40723D01*
X59777Y40126D01*
X59593Y39202D01*
Y34872D01*
X59777Y33948D01*
X60300Y33164D01*
X61084Y32641D01*
X62008Y32457D01*
X62932Y32641D01*
X63716Y33164D01*
X64239Y33948D01*
X64423Y34872D01*
Y39202D01*
X64239Y40126D01*
X63716Y40910D01*
X62932Y41433D01*
X62008Y41617D01*
X61084Y41433D01*
X61070Y41424D01*
X60933Y41525D01*
X60723Y41794D01*
X60900Y42222D01*
Y42779D01*
X60687Y43293D01*
X60293Y43687D01*
X59778Y43900D01*
D02*
G37*
G36*
X71779Y34400D02*
X71222D01*
X70707Y34187D01*
X70313Y33793D01*
X70100Y33279D01*
Y32721D01*
X70313Y32207D01*
X70707Y31813D01*
X71222Y31600D01*
X71779D01*
X72293Y31813D01*
X72687Y32207D01*
X72900Y32721D01*
Y33279D01*
X72687Y33793D01*
X72293Y34187D01*
X71779Y34400D01*
D02*
G37*
G36*
X17278Y31400D02*
X16722D01*
X16207Y31187D01*
X15813Y30793D01*
X15600Y30279D01*
Y29722D01*
X15813Y29207D01*
X16207Y28813D01*
X16722Y28600D01*
X17278D01*
X17793Y28813D01*
X18187Y29207D01*
X18400Y29722D01*
Y30279D01*
X18187Y30793D01*
X17793Y31187D01*
X17278Y31400D01*
D02*
G37*
G36*
X40279Y29400D02*
X39722D01*
X39207Y29187D01*
X38813Y28793D01*
X38600Y28278D01*
Y27722D01*
X38813Y27207D01*
X39207Y26813D01*
X39722Y26600D01*
X40279D01*
X40793Y26813D01*
X41187Y27207D01*
X41400Y27722D01*
Y28278D01*
X41187Y28793D01*
X40793Y29187D01*
X40279Y29400D01*
D02*
G37*
G36*
X72276Y21716D02*
X71724D01*
X71215Y21506D01*
X70825Y21116D01*
X70614Y20606D01*
Y20055D01*
X70825Y19546D01*
X71215Y19156D01*
X71724Y18945D01*
X72276D01*
X72785Y19156D01*
X73175Y19546D01*
X73386Y20055D01*
Y20606D01*
X73175Y21116D01*
X72785Y21506D01*
X72276Y21716D01*
D02*
G37*
G36*
X17778Y21731D02*
X17221D01*
X16707Y21518D01*
X16313Y21124D01*
X16100Y20609D01*
Y20052D01*
X16313Y19538D01*
X16707Y19144D01*
X17221Y18931D01*
X17778D01*
X18293Y19144D01*
X18687Y19538D01*
X18900Y20052D01*
Y20609D01*
X18687Y21124D01*
X18293Y21518D01*
X17778Y21731D01*
D02*
G37*
%LPD*%
D70*
X22116Y140031D02*
X22339Y139808D01*
X24189D01*
X22432Y135000D02*
X23817Y136385D01*
X22116Y135000D02*
X22432D01*
X24385Y136385D02*
X26096Y138096D01*
X24700Y139296D02*
X34704D01*
X19756Y140336D02*
X21335Y141916D01*
X19756Y135756D02*
Y140336D01*
X33781Y141916D02*
X55697Y120000D01*
X23817Y136385D02*
X24385D01*
X21335Y141916D02*
X33781D01*
X24189Y139808D02*
X24700Y139296D01*
X55200Y118800D02*
X55711D01*
X57179Y117332D01*
X57332D01*
X56884Y115116D02*
X63862D01*
X26096Y138096D02*
X33904D01*
X56884Y115116D01*
X34704Y139296D02*
X55200Y118800D01*
X67567Y120000D02*
X70567Y123000D01*
X55697Y120000D02*
X67567D01*
X17500Y133500D02*
X19756Y135756D01*
X64927Y116181D02*
X65243D01*
X63862Y115116D02*
X64927Y116181D01*
D75*
X22116Y140031D02*
D03*
Y135000D02*
D03*
X57332Y117332D02*
D03*
X17500Y133500D02*
D03*
X38000Y119000D02*
D03*
X40982Y119109D02*
D03*
X63500Y92500D02*
D03*
X28500Y132500D02*
D03*
X26500Y54500D02*
D03*
X40000Y50000D02*
D03*
Y53500D02*
D03*
Y57000D02*
D03*
Y60500D02*
D03*
X65243Y116181D02*
D03*
X70567Y123000D02*
D03*
M02*
