G04*
G04 #@! TF.GenerationSoftware,Altium Limited,Altium Designer,24.6.1 (21)*
G04*
G04 Layer_Physical_Order=1*
G04 Layer_Color=255*
%FSLAX25Y25*%
%MOIN*%
G70*
G04*
G04 #@! TF.SameCoordinates,1986151C-97A1-4A67-A93D-4D8E7053BCD9*
G04*
G04*
G04 #@! TF.FilePolarity,Positive*
G04*
G01*
G75*
%ADD11C,0.01000*%
%ADD19R,0.02756X0.02756*%
%ADD20R,0.01968X0.03937*%
%ADD21R,0.03937X0.01968*%
%ADD22R,0.02756X0.02756*%
%ADD23R,0.05709X0.05709*%
%ADD24R,0.07087X0.05315*%
%ADD25R,0.04134X0.02362*%
%ADD26R,0.02700X0.04000*%
%ADD27R,0.13386X0.09921*%
%ADD28R,0.02362X0.05709*%
%ADD29R,0.06299X0.03150*%
%ADD30R,0.02165X0.01772*%
%ADD31R,0.09252X0.08465*%
%ADD32R,0.03543X0.02756*%
%ADD33R,0.02047X0.02047*%
%ADD34R,0.02047X0.02047*%
%ADD35R,0.02756X0.03543*%
%ADD36R,0.01772X0.02165*%
%ADD37R,0.03150X0.06299*%
%ADD64R,0.01181X0.04528*%
%ADD65R,0.02362X0.04528*%
%ADD66R,0.02126X0.02506*%
%ADD67R,0.02506X0.02126*%
G04:AMPARAMS|DCode=68|XSize=30mil|YSize=40mil|CornerRadius=0mil|HoleSize=0mil|Usage=FLASHONLY|Rotation=180.000|XOffset=0mil|YOffset=0mil|HoleType=Round|Shape=Octagon|*
%AMOCTAGOND68*
4,1,8,0.00750,-0.02000,-0.00750,-0.02000,-0.01500,-0.01250,-0.01500,0.01250,-0.00750,0.02000,0.00750,0.02000,0.01500,0.01250,0.01500,-0.01250,0.00750,-0.02000,0.0*
%
%ADD68OCTAGOND68*%

%ADD69C,0.00782*%
%ADD70C,0.00800*%
%ADD71C,0.02500*%
%ADD72C,0.02000*%
%ADD73O,0.03937X0.08268*%
%ADD74O,0.03937X0.07087*%
%ADD75C,0.01800*%
%ADD76C,0.01772*%
G36*
X77410Y176933D02*
X63000D01*
X62694Y176806D01*
X62567Y176500D01*
Y146500D01*
X62694Y146194D01*
X63000Y146067D01*
X66500D01*
X66806Y146194D01*
X67306Y146694D01*
X67433Y147000D01*
X67919Y146966D01*
Y146474D01*
X69783D01*
X75082Y141175D01*
Y93455D01*
X73685Y92058D01*
X72017D01*
Y90321D01*
X71959Y90297D01*
X71467Y90279D01*
X71254Y90793D01*
X70860Y91187D01*
X70816Y91205D01*
Y93273D01*
X73943D01*
Y99388D01*
X66057D01*
Y93602D01*
X65577Y93223D01*
X65532Y93232D01*
X64712D01*
X64687Y93293D01*
X64293Y93687D01*
X63779Y93900D01*
X63222D01*
X62707Y93687D01*
X62313Y93293D01*
X62193Y93003D01*
X61638Y92851D01*
X60316Y94173D01*
Y109451D01*
X60687Y109823D01*
X60900Y110337D01*
Y110894D01*
X60687Y111409D01*
X60293Y111803D01*
X59778Y112016D01*
X59222D01*
X58707Y111803D01*
X58678Y111774D01*
X56980D01*
X56542Y111923D01*
X56542Y112274D01*
Y113501D01*
X54764D01*
X52986D01*
X52986Y112499D01*
X52486Y112214D01*
X52407Y112260D01*
Y113304D01*
X51023D01*
Y113504D01*
X50823D01*
Y115873D01*
X49639D01*
Y115873D01*
X49258D01*
Y115873D01*
X48074D01*
Y113504D01*
X47674D01*
Y115873D01*
X46490D01*
Y115873D01*
X46380D01*
X45933Y116300D01*
Y120828D01*
X45806Y121134D01*
X45522Y121252D01*
Y125067D01*
X45522Y125172D01*
X45775Y125567D01*
X47225D01*
X47478Y125172D01*
X47478Y125067D01*
Y123200D01*
X49256D01*
X51034D01*
Y125067D01*
X51034Y125172D01*
X51286Y125567D01*
X51821D01*
X52151Y125237D01*
X52230Y125204D01*
X52291Y125143D01*
X52377D01*
X52457Y125110D01*
X52919Y125017D01*
Y125017D01*
X56081D01*
Y131093D01*
X56169Y131130D01*
X56264Y131134D01*
X56683Y131330D01*
X56735Y131386D01*
X56806Y131416D01*
X56843Y131504D01*
X56907Y131574D01*
X56904Y131651D01*
X56933Y131722D01*
Y133000D01*
X56875Y133139D01*
X57126Y133639D01*
X61800D01*
Y138800D01*
X54907D01*
Y133933D01*
X49672D01*
Y135391D01*
X47500D01*
Y135791D01*
X49672D01*
Y137369D01*
X48333D01*
Y139525D01*
X50455D01*
Y141300D01*
X46905D01*
X43356D01*
Y139525D01*
X45478D01*
Y137443D01*
X40575D01*
X40199Y137368D01*
X37225D01*
X37009Y137584D01*
X36546Y137894D01*
X36000Y138002D01*
X36000Y138002D01*
X35000D01*
X34454Y137894D01*
X33991Y137584D01*
X33933Y137498D01*
X33576D01*
Y136594D01*
X33573Y136575D01*
X33576Y136556D01*
Y136275D01*
X35000D01*
Y135875D01*
X33576D01*
Y134849D01*
X33576Y134651D01*
X33576D01*
Y134433D01*
X33373Y133933D01*
X31000D01*
X30694Y133806D01*
X30567Y133500D01*
Y126000D01*
X30694Y125694D01*
X31000Y125567D01*
X36419D01*
X36613Y125067D01*
X36456Y124923D01*
X36434Y124874D01*
X36389Y124844D01*
X36366Y124729D01*
X36317Y124622D01*
X36164Y124439D01*
X35835Y124424D01*
X35651Y124424D01*
X34625D01*
Y123000D01*
Y121576D01*
X35567D01*
X35849Y121576D01*
X36067Y121167D01*
Y117500D01*
X35696Y117088D01*
X34065D01*
X29316Y121838D01*
Y124943D01*
X29983D01*
Y127514D01*
X27017D01*
Y124943D01*
X27684D01*
Y121500D01*
X27684Y121500D01*
X27746Y121188D01*
X27923Y120923D01*
X32512Y116334D01*
X32321Y115873D01*
X30860D01*
X30742Y115873D01*
X30360D01*
X29894Y116228D01*
Y116423D01*
X29824Y116774D01*
X29625Y117072D01*
X29625Y117072D01*
X29384Y117313D01*
Y117552D01*
X29171Y118067D01*
X28777Y118460D01*
X28262Y118674D01*
X27705D01*
X27191Y118460D01*
X26797Y118067D01*
X26584Y117552D01*
Y116995D01*
X26797Y116481D01*
X26905Y116373D01*
X26698Y115873D01*
X24561D01*
X24443Y115873D01*
X24061D01*
X23943Y115873D01*
X21411D01*
X21293Y115873D01*
X20911D01*
X20793Y115873D01*
X19727D01*
Y113504D01*
Y111135D01*
X20793D01*
X20911Y111135D01*
X21293D01*
X21411Y111135D01*
X23943D01*
X24061Y111135D01*
X24443D01*
X24561Y111135D01*
X27092D01*
X27211Y111135D01*
X27592D01*
X27711Y111135D01*
X30242D01*
X30360Y111135D01*
X30742D01*
X30860Y111135D01*
X33510D01*
X33510Y111135D01*
X33891D01*
Y111135D01*
X34010Y111135D01*
X35506D01*
X36483Y110159D01*
X36747Y109982D01*
X37059Y109920D01*
X37059Y109920D01*
X52179D01*
X52592Y109525D01*
Y109374D01*
X54961D01*
X57329D01*
Y110143D01*
X58181D01*
X58313Y109823D01*
X58684Y109451D01*
Y93835D01*
X58684Y93835D01*
X58746Y93523D01*
X58923Y93259D01*
X62750Y89431D01*
X62750Y89431D01*
X63015Y89254D01*
X63327Y89192D01*
X63957D01*
X66017Y87132D01*
Y85714D01*
X66582D01*
Y84227D01*
X66057D01*
Y78112D01*
X67090D01*
X69100Y76102D01*
Y75722D01*
X69313Y75207D01*
X69707Y74813D01*
X70222Y74600D01*
X70779D01*
X71293Y74813D01*
X71687Y75207D01*
X71900Y75722D01*
Y76279D01*
X71687Y76793D01*
X71293Y77187D01*
X70779Y77400D01*
X70551D01*
X70388Y77612D01*
X70633Y78112D01*
X73943D01*
Y84227D01*
X68418D01*
Y85714D01*
X68983D01*
Y88286D01*
X67171D01*
X66661Y88796D01*
X66852Y89258D01*
X68859D01*
X68880Y89207D01*
X69274Y88813D01*
X69788Y88600D01*
X70345D01*
X70651Y88727D01*
X72017Y87361D01*
Y85943D01*
X74983D01*
Y88514D01*
X73171D01*
X72661Y89024D01*
X72852Y89486D01*
X74983D01*
Y90760D01*
X76649Y92426D01*
X76848Y92724D01*
X76918Y93075D01*
X77410Y93055D01*
Y17019D01*
X76338D01*
X75943Y17273D01*
X75943Y17520D01*
Y20131D01*
X68057D01*
Y17520D01*
X68057Y17273D01*
X67662Y17019D01*
X63953D01*
X63784Y17519D01*
X64239Y18200D01*
X64423Y19124D01*
Y20499D01*
X59593D01*
Y19124D01*
X59777Y18200D01*
X60232Y17519D01*
X60063Y17019D01*
X29937D01*
X29768Y17519D01*
X30223Y18200D01*
X30407Y19124D01*
Y20499D01*
X25577D01*
Y19124D01*
X25761Y18200D01*
X26216Y17519D01*
X26047Y17019D01*
X21838D01*
X21443Y17273D01*
X21443Y17520D01*
Y20131D01*
X13557D01*
Y17520D01*
X13557Y17273D01*
X13162Y17019D01*
X12519D01*
Y44854D01*
X12537Y45347D01*
X13020Y45347D01*
X13800D01*
Y47000D01*
Y48653D01*
X12593Y48653D01*
X12525Y49119D01*
X12593Y49585D01*
X15463D01*
Y52891D01*
X14816D01*
Y54443D01*
X15483D01*
Y57014D01*
X12519D01*
Y57986D01*
X15483D01*
Y59092D01*
X15600Y59159D01*
X16100Y58871D01*
Y56550D01*
X17050Y55600D01*
X18357D01*
X18767Y55165D01*
Y54805D01*
X18622Y54660D01*
X18447Y54399D01*
X18386Y54090D01*
Y54058D01*
X17017D01*
Y51486D01*
X19983D01*
Y51486D01*
X20017D01*
Y51486D01*
X22983D01*
Y54058D01*
X21877D01*
X21606Y54558D01*
X21647Y54762D01*
Y55599D01*
X21648Y55600D01*
X23450D01*
X24400Y56550D01*
Y59450D01*
X23450Y60400D01*
X23345D01*
X23296Y60900D01*
X23399Y60921D01*
X23661Y61095D01*
X25413Y62848D01*
X25588Y63109D01*
X25600Y63171D01*
X26100Y63122D01*
Y62722D01*
X26313Y62207D01*
X26707Y61813D01*
X27082Y61658D01*
Y61058D01*
X26517D01*
Y58486D01*
X29483D01*
Y61058D01*
X28918D01*
Y62238D01*
X28848Y62589D01*
X28846Y62591D01*
X28900Y62722D01*
Y63279D01*
X28687Y63793D01*
X28300Y64179D01*
X28301Y64222D01*
X28410Y64679D01*
X30242D01*
X30360Y64679D01*
X30742D01*
X30860Y64679D01*
X33391D01*
X33510Y64679D01*
X33891D01*
X34010Y64679D01*
X36659D01*
Y64679D01*
X37041D01*
Y64679D01*
X39691D01*
X39809Y64679D01*
X40191D01*
X40309Y64679D01*
X42840D01*
X42959Y64679D01*
X43340D01*
X43459Y64679D01*
X45990D01*
X46108Y64679D01*
X46490D01*
X46608Y64679D01*
X49139D01*
X49258Y64679D01*
X49639D01*
X49758Y64679D01*
X52407D01*
Y69416D01*
X49758D01*
X49639Y69416D01*
X49258D01*
X49139Y69416D01*
X46608D01*
X46490Y69416D01*
X46108D01*
X45990Y69416D01*
X43459D01*
X43340Y69416D01*
X42959D01*
X42840Y69416D01*
X40309D01*
X40191Y69416D01*
X39809D01*
X39380Y69788D01*
Y70320D01*
X39660Y70600D01*
X39779D01*
X40293Y70813D01*
X40687Y71207D01*
X40900Y71722D01*
Y72278D01*
X40687Y72793D01*
X40293Y73187D01*
X39997Y73310D01*
X39774Y73595D01*
X39767Y73900D01*
X39900Y74221D01*
Y74778D01*
X39687Y75293D01*
X39293Y75687D01*
X38778Y75900D01*
X38221D01*
X37707Y75687D01*
X37438Y75418D01*
X35973D01*
X35622Y75348D01*
X35324Y75149D01*
X34739Y74563D01*
X34540Y74265D01*
X34470Y73914D01*
Y69770D01*
X34152Y69452D01*
X33970Y69416D01*
X33510D01*
X33391Y69416D01*
X30860D01*
X30742Y69416D01*
X30360D01*
X30242Y69416D01*
X27711D01*
X27592Y69416D01*
X27211D01*
X27092Y69416D01*
X24443D01*
Y69416D01*
X24061D01*
Y69416D01*
X21411D01*
X21293Y69416D01*
X20911D01*
X20793Y69416D01*
X18143D01*
Y64679D01*
X20793D01*
X20911Y64679D01*
X21293D01*
X21411Y64679D01*
X22706D01*
X22793Y64179D01*
X22267Y63653D01*
X21268D01*
X20960Y63592D01*
X20698Y63417D01*
X19089Y61808D01*
X18914Y61547D01*
X18853Y61238D01*
Y60401D01*
X18852Y60400D01*
X17453D01*
X17165Y60891D01*
X17215Y60983D01*
X17331Y61122D01*
X17793Y61313D01*
X18187Y61707D01*
X18400Y62221D01*
Y62779D01*
X18187Y63293D01*
X17793Y63687D01*
X17278Y63900D01*
X16722D01*
X16207Y63687D01*
X15813Y63293D01*
X15600Y62779D01*
Y62221D01*
X15715Y61944D01*
X14329Y60558D01*
X12519D01*
Y146597D01*
X13020Y146804D01*
X13847Y145976D01*
Y144204D01*
X16278D01*
X16470Y143742D01*
X16024Y143296D01*
X13847D01*
Y140370D01*
X14684D01*
Y139463D01*
X13847D01*
Y136537D01*
X14684D01*
Y135500D01*
X14684Y135500D01*
X14746Y135188D01*
X14923Y134923D01*
X16100Y133747D01*
Y133221D01*
X16313Y132707D01*
X16707Y132313D01*
X17221Y132100D01*
X17778D01*
X18293Y132313D01*
X18687Y132707D01*
X18900Y133221D01*
Y133779D01*
X18687Y134293D01*
X18293Y134687D01*
X17778Y134900D01*
X17254D01*
X16316Y135838D01*
Y136537D01*
X17153D01*
Y139463D01*
X16316D01*
Y140370D01*
X17153D01*
Y142118D01*
X17623Y142588D01*
X18085Y142397D01*
Y140370D01*
X20237D01*
X20645Y139963D01*
X20554Y139510D01*
X20522Y139463D01*
X18085D01*
Y136537D01*
X18922D01*
Y135737D01*
X18922Y135737D01*
X18984Y135425D01*
X19161Y135160D01*
X19675Y134647D01*
X19939Y134470D01*
X20251Y134408D01*
X20252Y134408D01*
X20846D01*
X20929Y134207D01*
X21323Y133813D01*
X21837Y133600D01*
X22394D01*
X22909Y133813D01*
X23303Y134207D01*
X23516Y134722D01*
Y135278D01*
X23303Y135793D01*
X22999Y136096D01*
X23108Y136522D01*
X23153Y136596D01*
X23349D01*
X23349Y136596D01*
X23662Y136658D01*
X23926Y136835D01*
X25030Y137939D01*
X25030Y137939D01*
X25098Y138041D01*
X25598Y137889D01*
Y132134D01*
X22501Y129037D01*
X20243D01*
Y125481D01*
X23799D01*
Y127739D01*
X26555Y130496D01*
X27017Y130304D01*
Y128486D01*
X29983D01*
Y131058D01*
X29707D01*
X29537Y131558D01*
X29687Y131707D01*
X29900Y132221D01*
Y132779D01*
X29687Y133293D01*
X29293Y133687D01*
X28778Y133900D01*
X28221D01*
X27933Y133781D01*
X27433Y134067D01*
Y139337D01*
X27589Y139447D01*
X27625Y139451D01*
X28172Y139248D01*
X28194Y139194D01*
X28500Y139067D01*
X37500D01*
X37806Y139194D01*
X37933Y139500D01*
Y139525D01*
X38644D01*
Y143475D01*
X37933D01*
Y145466D01*
X39800D01*
Y147244D01*
X40200D01*
Y145466D01*
X42172D01*
Y145817D01*
X44328D01*
Y145466D01*
X45073D01*
Y143475D01*
X43356D01*
Y141700D01*
X46905D01*
X50455D01*
Y143475D01*
X47927D01*
Y145466D01*
X48672D01*
Y147063D01*
X49134Y147254D01*
X50694Y145694D01*
X51000Y145567D01*
X56500D01*
X56806Y145694D01*
X57451Y146339D01*
X57919Y146474D01*
Y146474D01*
X57919Y146474D01*
X61081D01*
Y152550D01*
X61169Y152586D01*
X61264Y152590D01*
X61683Y152786D01*
X61735Y152843D01*
X61806Y152872D01*
X61843Y152960D01*
X61907Y153031D01*
X61904Y153108D01*
X61933Y153179D01*
Y173500D01*
X61806Y173806D01*
X61500Y173933D01*
X54199D01*
X54007Y174395D01*
X54306Y174694D01*
X54433Y175000D01*
Y179000D01*
X54306Y179306D01*
X54000Y179433D01*
X36424D01*
Y179875D01*
X35000D01*
X33576D01*
Y179433D01*
X16424D01*
Y180573D01*
X15200D01*
Y179150D01*
X14800D01*
Y180573D01*
X13576D01*
Y179433D01*
X13000D01*
X12519Y179775D01*
Y184272D01*
X20785D01*
X20828Y183790D01*
X20828Y183772D01*
Y182212D01*
X23000D01*
X25172D01*
Y183772D01*
X25172Y183790D01*
X25215Y184272D01*
X27285D01*
X27328Y183790D01*
X27328Y183772D01*
Y182212D01*
X29500D01*
X31672D01*
Y183772D01*
X31672Y183790D01*
X31715Y184272D01*
X38785D01*
X38828Y183790D01*
X38828Y183772D01*
Y182212D01*
X41000D01*
X43172D01*
Y183772D01*
X43172Y183790D01*
X43215Y184272D01*
X45285D01*
X45328Y183790D01*
X45328Y183772D01*
Y182212D01*
X47500D01*
X49672D01*
Y183772D01*
X49672Y183790D01*
X49715Y184272D01*
X77410D01*
Y176933D01*
D02*
G37*
G36*
X54000Y175000D02*
X52000Y173000D01*
X51960D01*
D01*
X51903Y172943D01*
X51797Y172873D01*
X51789Y172829D01*
X51758Y172798D01*
Y172672D01*
X51733Y172548D01*
X51739Y172519D01*
X51421Y172132D01*
X50887D01*
Y162985D01*
X50639Y162604D01*
X50616Y162478D01*
X50569Y162360D01*
X50659Y157425D01*
X50724Y157277D01*
X50786Y157127D01*
X50790Y157125D01*
X50792Y157121D01*
X50942Y157062D01*
X51092Y157000D01*
X58000Y157000D01*
Y152983D01*
X57919D01*
Y147419D01*
X56500Y146000D01*
X51000D01*
X48672Y148328D01*
Y149022D01*
X44328D01*
Y149000D01*
X42172D01*
Y149022D01*
X39760D01*
X39622Y149049D01*
X39622Y149049D01*
X37394D01*
X35924Y150520D01*
Y151349D01*
X34519D01*
X34500Y151353D01*
X34481Y151349D01*
X33076D01*
Y149944D01*
X33073Y149925D01*
X33076Y149906D01*
Y148502D01*
X33905D01*
X35794Y146613D01*
X35794Y146613D01*
X36071Y146427D01*
X36257Y146303D01*
X36803Y146195D01*
X36803Y146195D01*
X37500D01*
X37500Y139500D01*
X28500D01*
X28500Y157000D01*
X38500Y157000D01*
Y157100D01*
X38778D01*
X39293Y157313D01*
X39687Y157707D01*
X39900Y158221D01*
Y158779D01*
X39687Y159293D01*
X39293Y159687D01*
X38778Y159900D01*
X38500D01*
Y166020D01*
X38687Y166207D01*
X38900Y166721D01*
Y167279D01*
X38687Y167793D01*
X38500Y167980D01*
Y168523D01*
X38092Y168540D01*
X38030Y168852D01*
X37853Y169116D01*
X37853Y169117D01*
X37766Y169204D01*
Y170050D01*
X37750Y170129D01*
Y173400D01*
X34250D01*
Y168972D01*
X33893Y168622D01*
X30737Y168691D01*
X26663Y168779D01*
X26390Y169198D01*
X26400Y169221D01*
Y169779D01*
X26187Y170293D01*
X25793Y170687D01*
X25278Y170900D01*
X24722D01*
X24666Y170877D01*
X24250Y171155D01*
Y172900D01*
X20750D01*
Y169265D01*
X20393Y168915D01*
X16927Y168991D01*
Y170500D01*
X16819Y171046D01*
X16509Y171509D01*
X16046Y171819D01*
X15500Y171927D01*
X14954Y171819D01*
X14491Y171509D01*
X14181Y171046D01*
X14073Y170500D01*
Y169000D01*
X12519D01*
Y178519D01*
X13000Y179000D01*
X13576D01*
Y177726D01*
X16424D01*
Y179000D01*
X33576D01*
Y178651D01*
X36424D01*
Y179000D01*
X54000D01*
Y175000D01*
D02*
G37*
G36*
X36359Y168171D02*
X36313Y167793D01*
X36100Y167279D01*
Y166721D01*
X36313Y166207D01*
X36707Y165813D01*
X37222Y165600D01*
X37778D01*
X38067Y165407D01*
Y163569D01*
X37750Y163200D01*
X36200D01*
Y160800D01*
Y158400D01*
X36597D01*
X36850Y158147D01*
X36850Y158147D01*
X37114Y157970D01*
X37301Y157933D01*
X37251Y157433D01*
X28500Y157433D01*
X28194Y157306D01*
X28067Y157000D01*
X28067Y142865D01*
X25867Y140665D01*
X25769Y140518D01*
X25269Y140670D01*
Y152578D01*
X25269Y152578D01*
X25207Y152890D01*
X25030Y153155D01*
X25030Y153155D01*
X24108Y154077D01*
X23844Y154254D01*
X23531Y154316D01*
X23531Y154316D01*
X16053D01*
X16053Y154316D01*
X15741Y154254D01*
X15476Y154077D01*
X15476Y154077D01*
X13020Y151620D01*
X12519Y151828D01*
Y168567D01*
X13250D01*
Y168100D01*
X14073D01*
Y167000D01*
X14100Y166862D01*
Y166721D01*
X14154Y166592D01*
X14181Y166454D01*
X14259Y166337D01*
X14313Y166207D01*
X14412Y166108D01*
X14491Y165991D01*
X14608Y165912D01*
X14707Y165813D01*
X14837Y165759D01*
X14954Y165681D01*
X15092Y165654D01*
X15222Y165600D01*
X15362D01*
X15500Y165573D01*
X15638Y165600D01*
X15778D01*
X15908Y165654D01*
X16046Y165681D01*
X16163Y165759D01*
X16293Y165813D01*
X16392Y165912D01*
X16509Y165991D01*
X16588Y166108D01*
X16687Y166207D01*
X16741Y166337D01*
X16819Y166454D01*
X16846Y166592D01*
X16900Y166721D01*
Y166862D01*
X16927Y167000D01*
Y168200D01*
X17285Y168550D01*
X20383Y168482D01*
X20402Y168468D01*
X20747Y168106D01*
X20750Y168100D01*
X24250D01*
Y168100D01*
X24430Y168221D01*
X24722Y168100D01*
X25278D01*
X25793Y168313D01*
X25830Y168350D01*
X25979Y168411D01*
X26351Y168480D01*
X26468Y168428D01*
X26574Y168355D01*
X26616Y168363D01*
X26654Y168346D01*
X30728Y168258D01*
X33883Y168189D01*
X33886Y168190D01*
X33888Y168189D01*
X34040Y168250D01*
X34192Y168309D01*
X34193Y168312D01*
X34195Y168312D01*
X34489Y168600D01*
X36018D01*
X36359Y168171D01*
D02*
G37*
G36*
X61500Y153179D02*
X61081Y152983D01*
X59700D01*
Y149728D01*
X59300D01*
Y152983D01*
X58433D01*
Y157000D01*
X58306Y157306D01*
X58000Y157433D01*
X51092Y157433D01*
X51002Y162368D01*
X51327Y162868D01*
X55713D01*
Y167500D01*
Y172132D01*
X52257D01*
X52157Y172632D01*
X52306Y172694D01*
X53112Y173500D01*
X61500D01*
Y153179D01*
D02*
G37*
G36*
X77410Y154170D02*
X77000Y154000D01*
X67000D01*
Y147000D01*
X66500Y146500D01*
X63000D01*
Y176500D01*
X77410D01*
Y154170D01*
D02*
G37*
G36*
Y153277D02*
Y141575D01*
X76918Y141555D01*
X76848Y141906D01*
X76649Y142204D01*
X71081Y147772D01*
Y152983D01*
X67933D01*
X67919Y152983D01*
X67433Y153017D01*
Y153567D01*
X77000D01*
X77410Y153277D01*
D02*
G37*
G36*
X56500Y133000D02*
Y131722D01*
X56081Y131526D01*
X54700D01*
Y128272D01*
X54500D01*
Y128072D01*
X52919D01*
Y125734D01*
X52457Y125543D01*
X52000Y126000D01*
X31000D01*
Y133500D01*
X33576D01*
Y133125D01*
X35000D01*
X36424D01*
Y133500D01*
X56000D01*
X56500Y133000D01*
D02*
G37*
G36*
X41966Y123200D02*
X43744D01*
Y123000D01*
X43944D01*
Y120828D01*
X45500D01*
Y116000D01*
X45447Y115873D01*
X44924D01*
Y113504D01*
X44524D01*
Y115873D01*
X43340D01*
X43340Y115873D01*
X43000Y116000D01*
Y116000D01*
X42893Y116000D01*
X38000D01*
X37670Y116330D01*
X37636Y116381D01*
X37636Y116381D01*
X37167Y116849D01*
X37117Y116883D01*
X36500Y117500D01*
Y121576D01*
X37375D01*
Y123000D01*
Y124424D01*
X36785D01*
X36749Y124604D01*
X37180Y125000D01*
X41966D01*
Y123200D01*
D02*
G37*
%LPC*%
G36*
X36424Y181498D02*
X35200D01*
Y180275D01*
X36424D01*
Y181498D01*
D02*
G37*
G36*
X34800D02*
X33576D01*
Y180275D01*
X34800D01*
Y181498D01*
D02*
G37*
G36*
X49672Y181812D02*
X47700D01*
Y180234D01*
X49672D01*
Y181812D01*
D02*
G37*
G36*
X47300D02*
X45328D01*
Y180234D01*
X47300D01*
Y181812D01*
D02*
G37*
G36*
X43172D02*
X41200D01*
Y180234D01*
X43172D01*
Y181812D01*
D02*
G37*
G36*
X40800D02*
X38828D01*
Y180234D01*
X40800D01*
Y181812D01*
D02*
G37*
G36*
X31672D02*
X29700D01*
Y180234D01*
X31672D01*
Y181812D01*
D02*
G37*
G36*
X29300D02*
X27328D01*
Y180234D01*
X29300D01*
Y181812D01*
D02*
G37*
G36*
X25172D02*
X23200D01*
Y180234D01*
X25172D01*
Y181812D01*
D02*
G37*
G36*
X22800D02*
X20828D01*
Y180234D01*
X22800D01*
Y181812D01*
D02*
G37*
G36*
X69093Y144361D02*
X62200D01*
Y139200D01*
X69093D01*
Y144361D01*
D02*
G37*
G36*
X61800D02*
X54907D01*
Y139200D01*
X61800D01*
Y144361D01*
D02*
G37*
G36*
X69093Y138800D02*
X62200D01*
Y133639D01*
X69093D01*
Y138800D01*
D02*
G37*
G36*
X14778Y132400D02*
X14221D01*
X13707Y132187D01*
X13313Y131793D01*
X13100Y131279D01*
Y130721D01*
X13313Y130207D01*
X13707Y129813D01*
X13899Y129734D01*
Y129037D01*
X13039D01*
Y125481D01*
X16594D01*
Y129037D01*
X15734D01*
Y130321D01*
X15900Y130721D01*
Y131279D01*
X15687Y131793D01*
X15293Y132187D01*
X14778Y132400D01*
D02*
G37*
G36*
X71081Y131526D02*
X67919D01*
Y125640D01*
X67905Y125627D01*
X67419Y125419D01*
X67312Y125490D01*
X67000Y125552D01*
X66688Y125490D01*
X66581Y125419D01*
X66095Y125627D01*
X66081Y125640D01*
Y131526D01*
X62919D01*
Y125017D01*
X63582D01*
Y123786D01*
X62517D01*
Y121214D01*
X65483D01*
Y123786D01*
X65418D01*
Y124661D01*
X65672Y124784D01*
X66067Y124611D01*
X66184Y124507D01*
Y124420D01*
X66184Y124420D01*
X66246Y124108D01*
X66423Y123844D01*
X66502Y123765D01*
Y122986D01*
X66502Y122986D01*
X66517Y122907D01*
Y122700D01*
X68000D01*
Y122500D01*
X68200D01*
Y121214D01*
X69483D01*
Y121451D01*
X69983Y121727D01*
X70288Y121600D01*
X70845D01*
X71360Y121813D01*
X71754Y122207D01*
X71967Y122722D01*
Y123278D01*
X71754Y123793D01*
X71360Y124187D01*
X70845Y124400D01*
X70816D01*
X70709Y124517D01*
X70930Y125017D01*
X71081D01*
Y131526D01*
D02*
G37*
G36*
X25278Y124900D02*
X24722D01*
X24293Y124722D01*
X23799Y124706D01*
X23799Y124706D01*
X23799Y124706D01*
X20243D01*
Y121150D01*
X23799D01*
Y122014D01*
X23968Y122137D01*
X24299Y122275D01*
X24722Y122100D01*
X25278D01*
X25793Y122313D01*
X26187Y122707D01*
X26400Y123222D01*
Y123778D01*
X26187Y124293D01*
X25793Y124687D01*
X25278Y124900D01*
D02*
G37*
G36*
X34225Y124424D02*
X33002D01*
Y124351D01*
X32502Y124192D01*
X32351Y124293D01*
X32039Y124355D01*
X31727Y124293D01*
X31462Y124116D01*
X31285Y123851D01*
X31223Y123539D01*
X31285Y123227D01*
X31462Y122962D01*
X31686Y122739D01*
X31950Y122562D01*
X32263Y122500D01*
X32263Y122500D01*
X33002D01*
Y121576D01*
X34225D01*
Y123000D01*
Y124424D01*
D02*
G37*
G36*
X14617Y124706D02*
X13039D01*
Y123128D01*
X14617D01*
Y124706D01*
D02*
G37*
G36*
X16594D02*
X15017D01*
Y122928D01*
Y121150D01*
X16594D01*
Y121729D01*
X17095Y121936D01*
X17107Y121923D01*
X17372Y121746D01*
X17684Y121684D01*
X17684Y121684D01*
X18000D01*
X18312Y121746D01*
X18577Y121923D01*
X18754Y122188D01*
X18816Y122500D01*
X18754Y122812D01*
X18577Y123077D01*
X18312Y123254D01*
X18027Y123310D01*
X17832Y123505D01*
X17568Y123682D01*
X17255Y123744D01*
X17255Y123744D01*
X16594D01*
Y124706D01*
D02*
G37*
G36*
X61081Y131526D02*
X57919D01*
Y125017D01*
X58582D01*
Y123786D01*
X58017D01*
Y121214D01*
X60983D01*
Y123786D01*
X60418D01*
Y125017D01*
X61081D01*
Y131526D01*
D02*
G37*
G36*
X67800Y122300D02*
X66517D01*
Y121214D01*
X67800D01*
Y122300D01*
D02*
G37*
G36*
X14617Y122728D02*
X13039D01*
Y121150D01*
X14617D01*
Y122728D01*
D02*
G37*
G36*
X51034Y122800D02*
X49456D01*
Y120828D01*
X51034D01*
Y122800D01*
D02*
G37*
G36*
X49056D02*
X47478D01*
Y120828D01*
X49056D01*
Y122800D01*
D02*
G37*
G36*
X65483Y120243D02*
X62517D01*
Y117671D01*
X64132D01*
X64188Y117615D01*
Y117106D01*
X64056Y116974D01*
X63843Y116459D01*
Y115902D01*
X64056Y115388D01*
X64450Y114994D01*
X64964Y114781D01*
X65521D01*
X65557Y114796D01*
X66057Y114462D01*
Y112869D01*
X69800D01*
Y115727D01*
X66760D01*
X66643Y115902D01*
Y116459D01*
X66430Y116974D01*
X66036Y117368D01*
X65835Y117451D01*
Y117937D01*
X66002Y118141D01*
X66517D01*
Y117671D01*
X69483D01*
Y120243D01*
X66517D01*
Y119772D01*
X65483D01*
Y120243D01*
D02*
G37*
G36*
X60983D02*
X58017D01*
Y119105D01*
X57611Y118732D01*
X57054D01*
X56539Y118519D01*
X56146Y118125D01*
X55932Y117611D01*
Y117054D01*
X56146Y116539D01*
X56539Y116146D01*
X57054Y115932D01*
X57611D01*
X58125Y116146D01*
X58519Y116539D01*
X58732Y117054D01*
Y117232D01*
X59171Y117671D01*
X60983D01*
Y120243D01*
D02*
G37*
G36*
X17566Y115479D02*
X15988D01*
Y113901D01*
X17566D01*
Y115479D01*
D02*
G37*
G36*
X15588D02*
X14010D01*
Y113901D01*
X15588D01*
Y115479D01*
D02*
G37*
G36*
X56542Y115479D02*
X54964D01*
Y113901D01*
X56542D01*
Y115479D01*
D02*
G37*
G36*
X54564D02*
X52986D01*
Y113901D01*
X54564D01*
Y115479D01*
D02*
G37*
G36*
X52407Y115873D02*
X51223D01*
Y113704D01*
X52407D01*
Y115873D01*
D02*
G37*
G36*
X19327D02*
X18143D01*
Y113704D01*
X19327D01*
Y115873D01*
D02*
G37*
G36*
X73943Y115727D02*
X70200D01*
Y112869D01*
X73943D01*
Y115727D01*
D02*
G37*
G36*
X17566Y113501D02*
X15988D01*
Y111924D01*
X17566D01*
Y113501D01*
D02*
G37*
G36*
X15588D02*
X14010D01*
Y111924D01*
X15588D01*
Y113501D01*
D02*
G37*
G36*
X19327Y113304D02*
X18143D01*
Y111135D01*
X19327D01*
Y113304D01*
D02*
G37*
G36*
X70000Y112669D02*
D01*
Y112469D01*
X66057D01*
Y109612D01*
X69529D01*
Y108427D01*
X69591Y108115D01*
X69768Y107851D01*
X70032Y107674D01*
X70344Y107612D01*
X70657Y107674D01*
X70921Y107851D01*
X71098Y108115D01*
X71160Y108427D01*
Y109612D01*
X73943D01*
Y112469D01*
X70000D01*
Y112669D01*
D02*
G37*
G36*
X57329Y108974D02*
X54961D01*
X52592D01*
Y107908D01*
X52592Y107790D01*
Y107408D01*
X52592Y107290D01*
Y106224D01*
X54961D01*
X57329D01*
Y107290D01*
X57329Y107408D01*
Y107790D01*
X57329Y107908D01*
Y108974D01*
D02*
G37*
G36*
Y105824D02*
X54961D01*
X52592D01*
Y104758D01*
X52592Y104640D01*
Y104258D01*
X52592Y104140D01*
Y103074D01*
X54961D01*
X57329D01*
Y104140D01*
X57329Y104258D01*
Y104640D01*
X57329Y104758D01*
Y105824D01*
D02*
G37*
G36*
Y102674D02*
X54961D01*
X52592D01*
Y101609D01*
X52592Y101490D01*
Y101109D01*
X52592Y100990D01*
Y99925D01*
X54961D01*
X57329D01*
Y100990D01*
X57329Y101109D01*
Y101490D01*
X57329Y101609D01*
Y102674D01*
D02*
G37*
G36*
X46305Y101306D02*
X43251D01*
Y98252D01*
X46305D01*
Y101306D01*
D02*
G37*
G36*
X42851D02*
X39797D01*
Y98252D01*
X42851D01*
Y101306D01*
D02*
G37*
G36*
X38530Y101305D02*
X35476D01*
Y98251D01*
X38530D01*
Y101305D01*
D02*
G37*
G36*
X30754D02*
X27700D01*
Y98251D01*
X30754D01*
Y101305D01*
D02*
G37*
G36*
X35076D02*
X32022D01*
Y98251D01*
X35076D01*
Y101305D01*
D02*
G37*
G36*
X17958Y110558D02*
X13221D01*
Y107908D01*
X13221Y107790D01*
Y107408D01*
X13221Y107290D01*
Y104758D01*
X13221Y104640D01*
Y104258D01*
X13221Y104140D01*
Y103074D01*
X15590D01*
Y102674D01*
X13221D01*
Y101609D01*
X13221Y101490D01*
X13221D01*
Y101109D01*
X13221D01*
Y98459D01*
X13221Y98341D01*
Y97959D01*
X13221Y97841D01*
Y95310D01*
X13221Y95191D01*
Y94810D01*
X13221Y94691D01*
Y92160D01*
X13221Y92042D01*
Y91660D01*
X13221Y91542D01*
Y88892D01*
X13221D01*
Y88510D01*
X13221D01*
Y85742D01*
X13221D01*
Y85361D01*
X13221D01*
Y82711D01*
X13221Y82593D01*
Y82211D01*
X13221Y82093D01*
Y79561D01*
X13221Y79443D01*
Y79061D01*
X13221Y78943D01*
Y76412D01*
X13221Y76293D01*
Y75912D01*
X13221Y75793D01*
Y73262D01*
X13221Y73144D01*
Y72762D01*
X13221Y72644D01*
Y69994D01*
X17958D01*
Y72644D01*
X17958Y72762D01*
Y73144D01*
X18283Y73628D01*
X18902D01*
X19100Y73430D01*
Y73221D01*
X19313Y72707D01*
X19707Y72313D01*
X20222Y72100D01*
X20778D01*
X21293Y72313D01*
X21687Y72707D01*
X21900Y73221D01*
Y73778D01*
X21687Y74293D01*
X21293Y74687D01*
X20778Y74900D01*
X20351D01*
X20279Y75370D01*
X20793Y75583D01*
X21187Y75977D01*
X21400Y76491D01*
Y77048D01*
X21187Y77563D01*
X20793Y77957D01*
X20363Y78135D01*
X20356Y78176D01*
Y78594D01*
X20363Y78635D01*
X20793Y78813D01*
X21187Y79207D01*
X21400Y79721D01*
Y80278D01*
X21187Y80793D01*
X20793Y81187D01*
X20279Y81400D01*
X19722D01*
X19521Y81317D01*
X19434Y81404D01*
X19169Y81581D01*
X18857Y81643D01*
X18857Y81643D01*
X18312D01*
X18005Y81950D01*
X17958Y82143D01*
X17958Y82661D01*
X18079Y83161D01*
X19523D01*
X19523Y83161D01*
X19835Y83223D01*
X20099Y83400D01*
X21877Y85178D01*
X21877Y85178D01*
X22054Y85442D01*
X22116Y85754D01*
Y89406D01*
X22116Y89406D01*
X22054Y89718D01*
X21918Y89921D01*
Y97052D01*
X21918Y97052D01*
X21856Y97364D01*
X21716Y97574D01*
Y98408D01*
X23784Y100476D01*
X24246Y100284D01*
Y98251D01*
X27300D01*
Y101305D01*
X25267D01*
X25152Y101583D01*
X25101Y101805D01*
X25254Y102033D01*
X25316Y102346D01*
X25316Y102346D01*
Y107336D01*
X25687Y107707D01*
X25900Y108221D01*
Y108779D01*
X25687Y109293D01*
X25293Y109687D01*
X24779Y109900D01*
X24221D01*
X23707Y109687D01*
X23313Y109293D01*
X23100Y108779D01*
Y108221D01*
X23313Y107707D01*
X23684Y107336D01*
Y102683D01*
X20323Y99322D01*
X20146Y99058D01*
X20084Y98746D01*
X20084Y98746D01*
Y98603D01*
X19584Y98269D01*
X19406Y98343D01*
X18849D01*
X18379Y98149D01*
X18160Y98283D01*
X17958Y98462D01*
Y100806D01*
X18459Y100900D01*
X18688Y100746D01*
X19000Y100684D01*
X19312Y100746D01*
X19577Y100923D01*
X19754Y101188D01*
X19816Y101500D01*
X19754Y101812D01*
X19577Y102077D01*
X19353Y102300D01*
X19089Y102477D01*
X18776Y102539D01*
X18776Y102539D01*
X18415D01*
X17958Y102996D01*
Y104140D01*
X17958Y104258D01*
X17958Y104708D01*
X18079Y105208D01*
X18597D01*
X19100Y104706D01*
Y104221D01*
X19313Y103707D01*
X19707Y103313D01*
X20222Y103100D01*
X20778D01*
X21293Y103313D01*
X21687Y103707D01*
X21900Y104221D01*
Y104779D01*
X21687Y105293D01*
X21293Y105687D01*
X20778Y105900D01*
X20222D01*
X20215Y105897D01*
X19512Y106601D01*
X19247Y106778D01*
X18935Y106840D01*
X18935Y106840D01*
X18312D01*
X18005Y107147D01*
X17958Y107340D01*
Y107790D01*
X18322Y108239D01*
X19273D01*
X19313Y108142D01*
X19707Y107749D01*
X20222Y107536D01*
X20778D01*
X21293Y107749D01*
X21687Y108142D01*
X21900Y108657D01*
Y109214D01*
X21687Y109729D01*
X21293Y110122D01*
X20778Y110336D01*
X20222D01*
X19707Y110122D01*
X19455Y109870D01*
X17958D01*
Y110558D01*
D02*
G37*
G36*
X57329Y99525D02*
X54961D01*
X52592D01*
Y98459D01*
X52592Y98341D01*
Y97959D01*
X52592Y97841D01*
Y96775D01*
X54961D01*
X57329D01*
Y97841D01*
X57329Y97959D01*
Y98341D01*
X57329Y98459D01*
Y99525D01*
D02*
G37*
G36*
X46305Y97852D02*
X43251D01*
Y94798D01*
X46305D01*
Y97852D01*
D02*
G37*
G36*
X42851D02*
X39797D01*
Y94798D01*
X42851D01*
Y97852D01*
D02*
G37*
G36*
X38530Y97851D02*
X35476D01*
Y94797D01*
X38530D01*
Y97851D01*
D02*
G37*
G36*
X35076D02*
X32022D01*
Y94797D01*
X35076D01*
Y97851D01*
D02*
G37*
G36*
X30754D02*
X27700D01*
Y94797D01*
X30754D01*
Y97851D01*
D02*
G37*
G36*
X27300D02*
X24246D01*
Y94797D01*
X27300D01*
Y97851D01*
D02*
G37*
G36*
X57329Y96375D02*
X54961D01*
X52592D01*
Y95310D01*
X52592Y95191D01*
Y94810D01*
X52592Y94691D01*
Y93626D01*
X54961D01*
X57329D01*
Y94691D01*
X57329Y94810D01*
Y95191D01*
X57329Y95310D01*
Y96375D01*
D02*
G37*
G36*
X46305Y93530D02*
X43251D01*
Y90476D01*
X46305D01*
Y93530D01*
D02*
G37*
G36*
X42851D02*
X39797D01*
Y90476D01*
X42851D01*
Y93530D01*
D02*
G37*
G36*
X38530D02*
X35476D01*
Y90476D01*
X38530D01*
Y93530D01*
D02*
G37*
G36*
X30754D02*
X27700D01*
Y90476D01*
X30754D01*
Y93530D01*
D02*
G37*
G36*
X35076D02*
X32022D01*
Y90476D01*
X35076D01*
Y93530D01*
D02*
G37*
G36*
X27300D02*
X24246D01*
Y90476D01*
X27300D01*
Y93530D01*
D02*
G37*
G36*
X57329Y93226D02*
X54961D01*
X52592D01*
Y92160D01*
X52592Y92042D01*
Y91660D01*
X52592Y91542D01*
Y90476D01*
X54961D01*
X57329D01*
Y91542D01*
X57329Y91660D01*
Y92042D01*
X57329Y92160D01*
Y93226D01*
D02*
G37*
G36*
Y90076D02*
X54961D01*
X52592D01*
Y89010D01*
X52592Y88892D01*
Y88510D01*
X52592Y88392D01*
Y87326D01*
X54961D01*
X57329D01*
Y88392D01*
X57329Y88510D01*
Y88892D01*
X57329Y89010D01*
Y90076D01*
D02*
G37*
G36*
X46305Y90076D02*
X43251D01*
Y87022D01*
X46305D01*
Y90076D01*
D02*
G37*
G36*
X42851D02*
X39797D01*
Y87022D01*
X42851D01*
Y90076D01*
D02*
G37*
G36*
X38530Y90076D02*
X35476D01*
Y87022D01*
X38530D01*
Y90076D01*
D02*
G37*
G36*
X35076D02*
X32022D01*
Y87022D01*
X35076D01*
Y90076D01*
D02*
G37*
G36*
X30754D02*
X27700D01*
Y87022D01*
X30754D01*
Y90076D01*
D02*
G37*
G36*
X27300D02*
X24246D01*
Y87022D01*
X27300D01*
Y90076D01*
D02*
G37*
G36*
X57329Y86926D02*
X54961D01*
X52592D01*
Y85861D01*
X52592Y85742D01*
Y85361D01*
X52592Y85242D01*
Y84177D01*
X54961D01*
X57329D01*
Y85242D01*
X57329Y85361D01*
Y85742D01*
X57329Y85861D01*
Y86926D01*
D02*
G37*
G36*
X46305Y85754D02*
X43251D01*
Y82700D01*
X46305D01*
Y85754D01*
D02*
G37*
G36*
X42851D02*
X39797D01*
Y82700D01*
X42851D01*
Y85754D01*
D02*
G37*
G36*
X38530D02*
X35476D01*
Y82700D01*
X38530D01*
Y85754D01*
D02*
G37*
G36*
X30754D02*
X27700D01*
Y82700D01*
X30754D01*
Y85754D01*
D02*
G37*
G36*
X35076D02*
X32022D01*
Y82700D01*
X35076D01*
Y85754D01*
D02*
G37*
G36*
X27300D02*
X24246D01*
Y82700D01*
X27300D01*
Y85754D01*
D02*
G37*
G36*
X57329Y83777D02*
X54961D01*
X52592D01*
Y82711D01*
X52592Y82593D01*
Y82211D01*
X52592Y82093D01*
Y81027D01*
X54961D01*
X57329D01*
Y82093D01*
X57329Y82211D01*
Y82593D01*
X57329Y82711D01*
Y83777D01*
D02*
G37*
G36*
X46305Y82300D02*
X43251D01*
Y79246D01*
X46305D01*
Y82300D01*
D02*
G37*
G36*
X42851D02*
X39797D01*
Y79246D01*
X42851D01*
Y82300D01*
D02*
G37*
G36*
X38530Y82300D02*
X35476D01*
Y79246D01*
X38530D01*
Y82300D01*
D02*
G37*
G36*
X35076D02*
X32022D01*
Y79246D01*
X35076D01*
Y82300D01*
D02*
G37*
G36*
X30754D02*
X27700D01*
Y79246D01*
X30754D01*
Y82300D01*
D02*
G37*
G36*
X27300D02*
X24246D01*
Y79246D01*
X27300D01*
Y82300D01*
D02*
G37*
G36*
X57329Y80627D02*
X54961D01*
X52592D01*
Y79561D01*
X52592Y79443D01*
Y79061D01*
X52592Y78943D01*
Y77877D01*
X54961D01*
X57329D01*
Y78943D01*
X57329Y79061D01*
Y79443D01*
X57329Y79561D01*
Y80627D01*
D02*
G37*
G36*
Y77477D02*
X54961D01*
X52592D01*
Y76412D01*
X52592Y76293D01*
Y75912D01*
X52592Y75793D01*
Y74728D01*
X54961D01*
X57329D01*
Y75793D01*
X57329Y75912D01*
Y76293D01*
X57329Y76412D01*
Y77477D01*
D02*
G37*
G36*
Y74328D02*
X54961D01*
X52592D01*
Y73262D01*
X52592Y73144D01*
Y72762D01*
X52592Y72644D01*
Y71578D01*
X54961D01*
X57329D01*
Y72644D01*
X57329Y72762D01*
Y73144D01*
X57329Y73262D01*
Y74328D01*
D02*
G37*
G36*
Y71178D02*
X55161D01*
Y69994D01*
X57329D01*
Y71178D01*
D02*
G37*
G36*
X54761D02*
X52592D01*
Y69994D01*
X54761D01*
Y71178D01*
D02*
G37*
G36*
X17566Y68629D02*
X15988D01*
Y67051D01*
X17566D01*
Y68629D01*
D02*
G37*
G36*
X15588D02*
X14010D01*
Y67051D01*
X15588D01*
Y68629D01*
D02*
G37*
G36*
X56542D02*
X54964D01*
Y67051D01*
X56542D01*
Y68629D01*
D02*
G37*
G36*
X54564D02*
X52986D01*
Y67051D01*
X54564D01*
Y68629D01*
D02*
G37*
G36*
X56542Y66651D02*
X54964D01*
Y65073D01*
X56542D01*
Y66651D01*
D02*
G37*
G36*
X54564D02*
X52986D01*
Y65073D01*
X54564D01*
Y66651D01*
D02*
G37*
G36*
X17566Y66651D02*
X15988D01*
Y65073D01*
X17566D01*
Y66651D01*
D02*
G37*
G36*
X15588D02*
X14010D01*
Y65073D01*
X15588D01*
Y66651D01*
D02*
G37*
G36*
X73943Y67888D02*
X70200D01*
Y65031D01*
X73943D01*
Y67888D01*
D02*
G37*
G36*
X69800D02*
X66057D01*
Y65031D01*
X69800D01*
Y67888D01*
D02*
G37*
G36*
X73943Y64631D02*
X70200D01*
Y61773D01*
X73943D01*
Y64631D01*
D02*
G37*
G36*
X69800D02*
X66057D01*
Y61773D01*
X69800D01*
Y64631D01*
D02*
G37*
G36*
X68073Y60424D02*
X66850D01*
Y59200D01*
X68073D01*
Y60424D01*
D02*
G37*
G36*
X33300Y61424D02*
X32076D01*
Y60816D01*
X31000D01*
X30688Y60754D01*
X30423Y60577D01*
X30246Y60312D01*
X30184Y60000D01*
X30246Y59688D01*
X30423Y59423D01*
X30688Y59246D01*
X31000Y59184D01*
X32076D01*
Y58576D01*
X33300D01*
Y60000D01*
Y61424D01*
D02*
G37*
G36*
X68073Y58800D02*
X66850D01*
Y57576D01*
X68073D01*
Y58800D01*
D02*
G37*
G36*
X74975Y60455D02*
X73200D01*
Y57105D01*
X74975D01*
Y60455D01*
D02*
G37*
G36*
X72800D02*
X71025D01*
Y57105D01*
X72800D01*
Y60455D01*
D02*
G37*
G36*
X65000Y62433D02*
X51500D01*
X51194Y62306D01*
X51067Y62000D01*
Y55300D01*
X50933Y55220D01*
X50433Y55503D01*
Y62000D01*
X50306Y62306D01*
X50000Y62433D01*
X35478D01*
X35425Y62411D01*
X35369Y62419D01*
X35277Y62350D01*
X35171Y62306D01*
X35150Y62254D01*
X35104Y62220D01*
X35104Y62219D01*
X35059Y62143D01*
X35051Y62084D01*
X35015Y62037D01*
X35029Y61926D01*
X35023Y61882D01*
X35006Y61805D01*
X34808Y61538D01*
X34804Y61534D01*
X34644Y61424D01*
X33700D01*
Y60000D01*
Y58576D01*
X34202D01*
X34337Y58475D01*
X34567Y58170D01*
Y57330D01*
X34337Y57025D01*
X34202Y56924D01*
X33700D01*
Y55500D01*
Y54076D01*
X34202D01*
X34337Y53975D01*
X34567Y53670D01*
Y52830D01*
X34337Y52525D01*
X34202Y52424D01*
X33700D01*
Y51000D01*
X33300D01*
Y52424D01*
X32076D01*
Y51816D01*
X31000D01*
X30688Y51754D01*
X30423Y51577D01*
X30246Y51312D01*
X30184Y51000D01*
X30246Y50688D01*
X30377Y50493D01*
X30290Y50213D01*
X30156Y50001D01*
X29557D01*
Y50983D01*
X26986D01*
Y48017D01*
X26790Y47810D01*
X26210D01*
X26014Y48017D01*
X26014Y48158D01*
Y49300D01*
X24728D01*
Y49500D01*
X24528D01*
Y50983D01*
X23442D01*
Y50611D01*
X22983Y50514D01*
X22942Y50514D01*
X20017D01*
Y50514D01*
X19983D01*
Y50514D01*
X17017D01*
Y47943D01*
X18386D01*
Y47910D01*
X18447Y47602D01*
X18622Y47340D01*
X18820Y47141D01*
Y46820D01*
X18882Y46512D01*
X19056Y46250D01*
X19627Y45679D01*
X19522Y45078D01*
X19493Y45059D01*
X18417Y43983D01*
X16986D01*
Y41017D01*
X19557D01*
Y42842D01*
X20397Y43682D01*
X30098D01*
X30250Y43182D01*
X29991Y43009D01*
X29681Y42546D01*
X29573Y42000D01*
X29665Y41534D01*
X29476Y41332D01*
X29260Y41204D01*
X28916Y41433D01*
X28192Y41578D01*
Y37037D01*
Y32497D01*
X28916Y32641D01*
X29700Y33164D01*
X30223Y33948D01*
X30407Y34872D01*
Y36427D01*
X30820Y36637D01*
X30907Y36637D01*
X31295D01*
X31511Y36314D01*
X31575Y36137D01*
X31401Y35716D01*
X31323Y35326D01*
X31323Y35072D01*
X31323Y34817D01*
X31400Y34427D01*
X31595Y33957D01*
X31816Y33626D01*
X32176Y33266D01*
X32507Y33045D01*
X32977Y32850D01*
X33367Y32772D01*
X33876Y32772D01*
X34266Y32850D01*
X34736Y33044D01*
X35067Y33265D01*
X35427Y33625D01*
X35649Y33956D01*
X35843Y34426D01*
X35921Y34816D01*
X35921Y35071D01*
X35921Y35325D01*
X35844Y35715D01*
X35669Y36137D01*
X35732Y36312D01*
X35949Y36637D01*
X41498D01*
X41502Y36619D01*
X41677Y36358D01*
X41829Y36205D01*
X41890Y35901D01*
X42065Y35640D01*
X42528Y35176D01*
X42789Y35002D01*
X43098Y34940D01*
X44934D01*
X45243Y35002D01*
X45504Y35176D01*
X46354Y36026D01*
X46529Y36288D01*
X46591Y36597D01*
Y36637D01*
X54051D01*
X54267Y36314D01*
X54331Y36137D01*
X54157Y35716D01*
X54079Y35326D01*
X54079Y35072D01*
X54079Y34817D01*
X54156Y34427D01*
X54351Y33957D01*
X54572Y33626D01*
X54932Y33266D01*
X55263Y33045D01*
X55733Y32850D01*
X56123Y32772D01*
X56632Y32772D01*
X57022Y32850D01*
X57493Y33044D01*
X57823Y33265D01*
X58183Y33625D01*
X58404Y33956D01*
X58599Y34426D01*
X58677Y34816D01*
X58677Y35071D01*
X58677Y35325D01*
X58600Y35715D01*
X58425Y36137D01*
X58488Y36312D01*
X58705Y36637D01*
X59093D01*
X59179Y36637D01*
X59593Y36430D01*
Y34872D01*
X59777Y33948D01*
X60300Y33164D01*
X61084Y32641D01*
X61808Y32497D01*
Y37037D01*
Y41578D01*
X61084Y41433D01*
X61063Y41420D01*
X60703Y41780D01*
X60819Y41954D01*
X60927Y42500D01*
X60819Y43046D01*
X60509Y43509D01*
X60046Y43819D01*
X59500Y43927D01*
X58954Y43819D01*
X58491Y43509D01*
X56946Y41965D01*
X56182D01*
Y43000D01*
X56054Y43644D01*
X55690Y44190D01*
X55144Y44554D01*
X54500Y44682D01*
X53856Y44554D01*
X53310Y44190D01*
X53206Y44033D01*
X52706Y44184D01*
Y44685D01*
X52644Y44997D01*
X52467Y45262D01*
X52467Y45262D01*
X49386Y48342D01*
X49388Y48399D01*
X49544Y48842D01*
X50242D01*
X52055Y47030D01*
X52352Y46831D01*
X52703Y46761D01*
X61942D01*
Y46517D01*
X64514D01*
Y49063D01*
X64789Y49176D01*
X64986Y49373D01*
X65486Y49166D01*
X65486Y49146D01*
X65486Y49146D01*
X65486Y49114D01*
Y46517D01*
X65756D01*
Y45777D01*
X65402Y45424D01*
X64849Y45424D01*
X64651Y45424D01*
X63625D01*
Y44000D01*
Y42576D01*
X64651D01*
X65157Y42576D01*
X65657Y42204D01*
Y41209D01*
X65727Y40857D01*
X65926Y40560D01*
X68057Y38429D01*
Y33612D01*
X69877D01*
X70100Y33279D01*
Y32754D01*
X66162Y28816D01*
X41164D01*
X40793Y29187D01*
X40279Y29400D01*
X39722D01*
X39207Y29187D01*
X38813Y28793D01*
X38600Y28278D01*
Y27722D01*
X38813Y27207D01*
X39207Y26813D01*
X39722Y26600D01*
X40279D01*
X40793Y26813D01*
X41164Y27184D01*
X66500D01*
X66500Y27184D01*
X66812Y27246D01*
X67077Y27423D01*
X71254Y31600D01*
X71779D01*
X72293Y31813D01*
X72687Y32207D01*
X72900Y32721D01*
Y33279D01*
X73123Y33612D01*
X75943D01*
Y39727D01*
X72196D01*
X72045Y40227D01*
X72170Y40310D01*
X73404Y41545D01*
X74975D01*
Y48644D01*
X71025D01*
Y43924D01*
X70284Y43182D01*
X70000D01*
X69356Y43054D01*
X68810Y42690D01*
X68446Y42144D01*
X68318Y41500D01*
X68325Y41463D01*
X67864Y41217D01*
X67492Y41589D01*
Y42576D01*
X67998D01*
Y45424D01*
X67591D01*
Y46517D01*
X68058D01*
Y49483D01*
X65855Y49483D01*
X65823D01*
D01*
X65802Y49483D01*
X65776Y49546D01*
X65595Y49983D01*
X65806Y50194D01*
X65933Y50500D01*
X65806Y50806D01*
X65433Y51179D01*
Y53076D01*
X66450D01*
Y54500D01*
Y55924D01*
X65433D01*
Y57576D01*
X66450D01*
Y59000D01*
Y60424D01*
X65433D01*
Y62000D01*
X65306Y62306D01*
X65000Y62433D01*
D02*
G37*
G36*
X68073Y55924D02*
X66850D01*
Y54700D01*
X68073D01*
Y55924D01*
D02*
G37*
G36*
X33300Y56924D02*
X32076D01*
Y56316D01*
X31000D01*
X30688Y56254D01*
X30423Y56077D01*
X30246Y55812D01*
X30184Y55500D01*
X30246Y55188D01*
X30423Y54923D01*
X30688Y54746D01*
X31000Y54684D01*
X32076D01*
Y54076D01*
X33300D01*
Y55500D01*
Y56924D01*
D02*
G37*
G36*
X74975Y56705D02*
X73200D01*
Y53356D01*
X74975D01*
Y56705D01*
D02*
G37*
G36*
X72800D02*
X71025D01*
Y53356D01*
X72800D01*
Y56705D01*
D02*
G37*
G36*
X29483Y57514D02*
X26517D01*
Y56240D01*
X26146Y55869D01*
X25707Y55687D01*
X25313Y55293D01*
X25100Y54778D01*
Y54221D01*
X25313Y53707D01*
X25707Y53313D01*
X26221Y53100D01*
X26779D01*
X27293Y53313D01*
X27687Y53707D01*
X27900Y54221D01*
Y54778D01*
X28010Y54943D01*
X29483D01*
Y57514D01*
D02*
G37*
G36*
X68073Y54300D02*
X66850D01*
Y53076D01*
X68073D01*
Y54300D01*
D02*
G37*
G36*
X26014Y50983D02*
X24928D01*
Y49700D01*
X26014D01*
Y50983D01*
D02*
G37*
G36*
X14200Y48653D02*
Y47200D01*
X15463D01*
Y48653D01*
X14200D01*
D02*
G37*
G36*
X63225Y45424D02*
X62002D01*
Y44200D01*
X63225D01*
Y45424D01*
D02*
G37*
G36*
X15540Y46800D02*
X14200D01*
Y45239D01*
X14484Y44922D01*
X14461Y44710D01*
X14399Y44398D01*
X14120Y43983D01*
X13442D01*
Y42700D01*
X14728D01*
X16014D01*
Y42907D01*
X16030Y42986D01*
X16030Y42986D01*
Y44060D01*
X16577Y44607D01*
X16577Y44607D01*
X16754Y44872D01*
X16816Y45184D01*
Y45500D01*
X16816Y45500D01*
X16754Y45812D01*
X16577Y46077D01*
X16353Y46300D01*
X16089Y46477D01*
X15776Y46539D01*
X15540Y46800D01*
D02*
G37*
G36*
X63225Y43800D02*
X62002D01*
Y42576D01*
X63225D01*
Y43800D01*
D02*
G37*
G36*
X16014Y42300D02*
X14928D01*
Y41017D01*
X16014D01*
Y42300D01*
D02*
G37*
G36*
X14528D02*
X13442D01*
Y41017D01*
X14528D01*
Y42300D01*
D02*
G37*
G36*
X62208Y41578D02*
Y37237D01*
X64423D01*
Y39202D01*
X64239Y40126D01*
X63716Y40910D01*
X62932Y41433D01*
X62208Y41578D01*
D02*
G37*
G36*
X27792D02*
X27068Y41433D01*
X26284Y40910D01*
X25761Y40126D01*
X25577Y39202D01*
Y37237D01*
X27792D01*
Y41578D01*
D02*
G37*
G36*
X64423Y36837D02*
X62208D01*
Y32497D01*
X62932Y32641D01*
X63716Y33164D01*
X64239Y33948D01*
X64423Y34872D01*
Y36837D01*
D02*
G37*
G36*
X27792D02*
X25577D01*
Y34872D01*
X25761Y33948D01*
X26284Y33164D01*
X27068Y32641D01*
X27792Y32497D01*
Y36837D01*
D02*
G37*
G36*
X21443Y39727D02*
X13557D01*
Y33612D01*
X16684D01*
Y31385D01*
X16207Y31187D01*
X15813Y30793D01*
X15600Y30279D01*
Y29722D01*
X15813Y29207D01*
X16207Y28813D01*
X16722Y28600D01*
X17278D01*
X17793Y28813D01*
X18187Y29207D01*
X18400Y29722D01*
Y30279D01*
X18271Y30591D01*
X18316Y30816D01*
X18316Y30816D01*
Y33612D01*
X21443D01*
Y39727D01*
D02*
G37*
G36*
X62208Y24649D02*
Y20899D01*
X64423D01*
Y22274D01*
X64239Y23198D01*
X63716Y23981D01*
X62932Y24505D01*
X62208Y24649D01*
D02*
G37*
G36*
X61808D02*
X61084Y24505D01*
X60300Y23981D01*
X59777Y23198D01*
X59593Y22274D01*
Y20899D01*
X61808D01*
Y24649D01*
D02*
G37*
G36*
X28192D02*
Y20899D01*
X30407D01*
Y22274D01*
X30223Y23198D01*
X29700Y23981D01*
X28916Y24505D01*
X28192Y24649D01*
D02*
G37*
G36*
X27792D02*
X27068Y24505D01*
X26284Y23981D01*
X25761Y23198D01*
X25577Y22274D01*
Y20899D01*
X27792D01*
Y24649D01*
D02*
G37*
G36*
X75943Y23388D02*
X72200D01*
Y20531D01*
X75943D01*
Y23388D01*
D02*
G37*
G36*
X71800D02*
X68057D01*
Y20531D01*
X71800D01*
Y23388D01*
D02*
G37*
G36*
X21443D02*
X17700D01*
Y20531D01*
X21443D01*
Y23388D01*
D02*
G37*
G36*
X17300D02*
X13557D01*
Y20531D01*
X17300D01*
Y23388D01*
D02*
G37*
%LPD*%
G36*
X65000Y51000D02*
X65500Y50500D01*
X64483Y49483D01*
X61942D01*
Y48596D01*
X53083D01*
X51500Y50180D01*
Y52073D01*
X52947D01*
Y51919D01*
X57880D01*
Y52073D01*
X59000D01*
X59138Y52100D01*
X59279D01*
X59408Y52154D01*
X59546Y52181D01*
X59663Y52259D01*
X59793Y52313D01*
X59892Y52412D01*
X60009Y52491D01*
X60088Y52608D01*
X60187Y52707D01*
X60241Y52837D01*
X60319Y52954D01*
X60346Y53092D01*
X60400Y53221D01*
Y53362D01*
X60427Y53500D01*
X60400Y53638D01*
Y53778D01*
X60346Y53908D01*
X60319Y54046D01*
X60241Y54163D01*
X60187Y54293D01*
X60088Y54392D01*
X60009Y54509D01*
X59892Y54588D01*
X59793Y54687D01*
X59663Y54741D01*
X59546Y54819D01*
X59408Y54846D01*
X59279Y54900D01*
X59138D01*
X59000Y54927D01*
X57880D01*
Y55081D01*
X52947D01*
Y54927D01*
X51500D01*
Y62000D01*
X65000D01*
Y51000D01*
D02*
G37*
G36*
X50000Y50500D02*
X48094Y48594D01*
X47054D01*
Y49560D01*
X44587D01*
X42120D01*
Y49018D01*
X41925Y48858D01*
X41925Y48858D01*
X35350D01*
X35243Y49076D01*
X35446Y49470D01*
X35555Y49576D01*
X36450D01*
Y51000D01*
Y52424D01*
X35226Y52424D01*
X35000Y52830D01*
Y53670D01*
X35226Y54076D01*
X35500Y54076D01*
X36450D01*
Y55500D01*
Y56924D01*
X35226Y56924D01*
X35000Y57330D01*
Y58170D01*
X35226Y58576D01*
X35500Y58576D01*
X36450D01*
Y60000D01*
Y61424D01*
X35719Y61424D01*
X35433Y61924D01*
X35478Y62000D01*
X50000D01*
Y50500D01*
D02*
G37*
G36*
X41611Y47202D02*
X41611Y47202D01*
X41876Y47025D01*
X42188Y46963D01*
X42188Y46963D01*
X43647D01*
X43740Y46842D01*
X43861Y46463D01*
X43746Y46291D01*
X43684Y45979D01*
X43746Y45667D01*
X43923Y45402D01*
X44188Y45225D01*
X44500Y45163D01*
X44812Y45225D01*
X45077Y45402D01*
X45098Y45423D01*
X45275Y45688D01*
X45337Y46000D01*
X45275Y46312D01*
X45174Y46463D01*
X45314Y46857D01*
X45395Y46963D01*
X48458D01*
X51074Y44347D01*
Y41965D01*
X48157D01*
X48110Y42201D01*
X47935Y42463D01*
X47472Y42926D01*
X47211Y43101D01*
X46907Y43161D01*
X46622Y43445D01*
X46361Y43620D01*
X46052Y43681D01*
X44674D01*
X44365Y43620D01*
X44157Y43481D01*
X40872Y46765D01*
X41064Y47227D01*
X41587D01*
X41611Y47202D01*
D02*
G37*
%LPC*%
G36*
X36850Y61424D02*
Y60200D01*
X38073D01*
Y61424D01*
X36850D01*
D02*
G37*
G36*
X38073Y59800D02*
X36850D01*
Y58576D01*
X38073D01*
Y59800D01*
D02*
G37*
G36*
X36850Y56924D02*
Y55700D01*
X38073D01*
Y56924D01*
X36850D01*
D02*
G37*
G36*
X47054Y58821D02*
X42120D01*
Y55659D01*
X47054D01*
Y58821D01*
D02*
G37*
G36*
X38073Y55300D02*
X36850D01*
Y54076D01*
X38073D01*
Y55300D01*
D02*
G37*
G36*
X36850Y52424D02*
Y51200D01*
X38073D01*
Y52424D01*
X36850D01*
D02*
G37*
G36*
X47054Y51341D02*
X44787D01*
Y49960D01*
X47054D01*
Y51341D01*
D02*
G37*
G36*
X44387D02*
X42120D01*
Y49960D01*
X44387D01*
Y51341D01*
D02*
G37*
G36*
X38073Y50800D02*
X36850D01*
Y49576D01*
X38073D01*
Y50800D01*
D02*
G37*
G36*
X32278Y166400D02*
X31721D01*
X31207Y166187D01*
X30813Y165793D01*
X30600Y165278D01*
Y164722D01*
X30813Y164207D01*
X31030Y163990D01*
Y163400D01*
X30831Y163200D01*
X30450Y163200D01*
X29950Y163200D01*
X26750D01*
Y160717D01*
X26250Y160566D01*
X26243Y160577D01*
X25978Y160754D01*
X25666Y160816D01*
X24250D01*
Y162700D01*
X22700D01*
Y160300D01*
Y157900D01*
X24250D01*
Y159184D01*
X25666D01*
X25978Y159246D01*
X26243Y159423D01*
X26250Y159434D01*
X26750Y159283D01*
Y158400D01*
X29950D01*
X30250Y158400D01*
X30750Y158400D01*
X33750D01*
X34250Y158400D01*
X34450Y158400D01*
X35800D01*
Y160800D01*
Y163200D01*
X34450D01*
X33950Y163200D01*
X33750Y163200D01*
X32816D01*
Y163836D01*
X33187Y164207D01*
X33400Y164722D01*
Y165278D01*
X33187Y165793D01*
X32793Y166187D01*
X32278Y166400D01*
D02*
G37*
G36*
X19278Y165900D02*
X18722D01*
X18207Y165687D01*
X17813Y165293D01*
X17600Y164778D01*
Y164222D01*
X17813Y163707D01*
X18030Y163490D01*
X18030Y162900D01*
X17831Y162700D01*
X16950Y162700D01*
X16450Y162700D01*
X13250D01*
Y157900D01*
X16450D01*
X16750Y157900D01*
X17250Y157900D01*
X20250D01*
X20750Y157900D01*
X20950Y157900D01*
X22300D01*
Y160300D01*
Y162700D01*
X20950D01*
X20450Y162700D01*
X20316Y162700D01*
X19816Y162859D01*
Y163336D01*
X20187Y163707D01*
X20400Y164222D01*
Y164778D01*
X20187Y165293D01*
X19793Y165687D01*
X19278Y165900D01*
D02*
G37*
G36*
X60939Y172132D02*
X56113D01*
Y167700D01*
X60939D01*
Y172132D01*
D02*
G37*
G36*
Y167300D02*
X56113D01*
Y162868D01*
X60939D01*
Y167300D01*
D02*
G37*
G36*
X74500Y152060D02*
X74310Y152022D01*
X72328D01*
Y150444D01*
X76672D01*
Y152022D01*
X74690D01*
X74500Y152060D01*
D02*
G37*
G36*
X76672Y150044D02*
X72328D01*
Y148466D01*
X73684D01*
Y148000D01*
X73746Y147688D01*
X73923Y147423D01*
X74188Y147246D01*
X74500Y147184D01*
X74812Y147246D01*
X75077Y147423D01*
X75254Y147688D01*
X75316Y148000D01*
Y148466D01*
X76672D01*
Y150044D01*
D02*
G37*
G36*
X36424Y132725D02*
X35200D01*
Y131502D01*
X36424D01*
Y132725D01*
D02*
G37*
G36*
X34800D02*
X33576D01*
Y131502D01*
X34800D01*
Y132725D01*
D02*
G37*
G36*
X49672Y131857D02*
X47700D01*
Y130279D01*
X49672D01*
Y131857D01*
D02*
G37*
G36*
X47300D02*
X45328D01*
Y130279D01*
X47300D01*
Y131857D01*
D02*
G37*
G36*
X42672Y131707D02*
X40700D01*
Y130129D01*
X42672D01*
Y131707D01*
D02*
G37*
G36*
X40300D02*
X38328D01*
Y130129D01*
X40300D01*
Y131707D01*
D02*
G37*
G36*
X54300Y131526D02*
X52919D01*
Y128472D01*
X54300D01*
Y131526D01*
D02*
G37*
G36*
X49672Y129879D02*
X47700D01*
Y128301D01*
X49672D01*
Y129879D01*
D02*
G37*
G36*
X47300D02*
X45328D01*
Y128301D01*
X47300D01*
Y129879D01*
D02*
G37*
G36*
X42672Y129729D02*
X40700D01*
Y128151D01*
X42672D01*
Y129729D01*
D02*
G37*
G36*
X40300D02*
X38328D01*
Y128151D01*
X40300D01*
Y129729D01*
D02*
G37*
G36*
X38998Y124424D02*
X37775D01*
Y123200D01*
X38998D01*
Y124424D01*
D02*
G37*
G36*
Y122800D02*
X37775D01*
Y121576D01*
X38998D01*
Y122800D01*
D02*
G37*
G36*
X43544Y122800D02*
X41966D01*
Y120828D01*
X43544D01*
Y122800D01*
D02*
G37*
%LPD*%
D11*
X14500Y130738D02*
X14817Y130421D01*
X14500Y130738D02*
Y131000D01*
X14817Y127259D02*
Y130421D01*
X26516Y131754D02*
Y140016D01*
X31500Y145000D01*
X22021Y127259D02*
X26516Y131754D01*
X67500Y79000D02*
Y87000D01*
X65532Y92315D02*
X67303Y90543D01*
X67500D01*
X63685Y92315D02*
X65532D01*
X63500Y92500D02*
X63685Y92315D01*
X74083Y91158D02*
X76000Y93075D01*
Y141555D01*
X69500Y148055D02*
X76000Y141555D01*
X66575Y41209D02*
Y44000D01*
Y41209D02*
X71114Y36669D01*
X72000D01*
X66673Y44098D02*
Y47902D01*
X66772Y48000D01*
X66575Y44000D02*
X66673Y44098D01*
X52703Y47679D02*
X62907D01*
X63228Y48000D01*
X50622Y49760D02*
X52703Y47679D01*
X44587Y49760D02*
X50622D01*
X28976Y116423D02*
Y116423D01*
Y113504D02*
Y116423D01*
X71500Y33000D02*
Y36169D01*
X28500Y129772D02*
Y132500D01*
X26500Y54500D02*
X26685Y54685D01*
X27803Y56228D02*
X28000D01*
X26685Y55111D02*
X27803Y56228D01*
X26685Y54685D02*
Y55111D01*
X27500Y62738D02*
X28000Y62238D01*
Y59772D02*
Y62238D01*
X27500Y62738D02*
Y63000D01*
X28126Y117273D02*
X28976Y116423D01*
X27984Y117273D02*
X28126D01*
X64114Y122500D02*
X64500Y122886D01*
Y128272D01*
X64000Y122500D02*
X64114D01*
X59500D02*
Y128272D01*
X67500Y79000D02*
X70500Y76000D01*
X71500Y36169D02*
X72000Y36669D01*
X74083Y91158D02*
Y91158D01*
X73697Y90772D02*
X74083Y91158D01*
X69500Y148055D02*
Y149728D01*
X73500Y90772D02*
X73697D01*
X35388Y73914D02*
X35973Y74500D01*
X35388Y67160D02*
Y73914D01*
X35973Y74500D02*
X38500D01*
X35275Y67048D02*
X35388Y67160D01*
X38462Y67085D02*
Y70700D01*
X39500Y71738D01*
Y72000D01*
X38425Y67048D02*
X38462Y67085D01*
D19*
X22021Y127259D02*
D03*
X14817Y127259D02*
D03*
X14817Y122928D02*
D03*
X22021Y122928D02*
D03*
D20*
X51023Y113504D02*
D03*
X47874D02*
D03*
X44724D02*
D03*
X41575D02*
D03*
X38425D02*
D03*
X35275D02*
D03*
X32126D02*
D03*
X28976D02*
D03*
X25827D02*
D03*
X22677D02*
D03*
X19527D02*
D03*
Y67048D02*
D03*
X22677D02*
D03*
X25827D02*
D03*
X28976D02*
D03*
X32126D02*
D03*
X35275D02*
D03*
X38425D02*
D03*
X41575D02*
D03*
X44724D02*
D03*
X47874D02*
D03*
X51023D02*
D03*
D21*
X15590Y109174D02*
D03*
Y106024D02*
D03*
Y102874D02*
D03*
Y99725D02*
D03*
Y96575D02*
D03*
Y93426D02*
D03*
Y90276D02*
D03*
Y87126D02*
D03*
Y83977D02*
D03*
Y80827D02*
D03*
Y77677D02*
D03*
Y74528D02*
D03*
Y71378D02*
D03*
X54961D02*
D03*
Y74528D02*
D03*
Y77677D02*
D03*
Y80827D02*
D03*
Y83977D02*
D03*
Y87126D02*
D03*
Y90276D02*
D03*
Y93426D02*
D03*
Y96575D02*
D03*
Y99725D02*
D03*
Y102874D02*
D03*
Y106024D02*
D03*
Y109174D02*
D03*
D22*
X54764Y66851D02*
D03*
X15788D02*
D03*
Y113701D02*
D03*
X54764Y113701D02*
D03*
D23*
X35276Y90276D02*
D03*
X43051Y98052D02*
D03*
Y90276D02*
D03*
Y82500D02*
D03*
X35276D02*
D03*
X27500D02*
D03*
Y90276D02*
D03*
Y98051D02*
D03*
X35276D02*
D03*
D24*
X70000Y112669D02*
D03*
Y96331D02*
D03*
X17500Y36669D02*
D03*
Y20331D02*
D03*
X72000D02*
D03*
Y36669D02*
D03*
X70000Y81169D02*
D03*
Y64831D02*
D03*
D25*
X44587Y49760D02*
D03*
Y57240D02*
D03*
X55413D02*
D03*
Y53500D02*
D03*
Y49760D02*
D03*
D26*
X36000Y171000D02*
D03*
X28500D02*
D03*
X36000Y160800D02*
D03*
X32200D02*
D03*
X28500D02*
D03*
X22500Y170500D02*
D03*
X15000D02*
D03*
X22500Y160300D02*
D03*
X18700D02*
D03*
X15000D02*
D03*
D27*
X62000Y139000D02*
D03*
D28*
X54500Y128272D02*
D03*
X59500D02*
D03*
X64500D02*
D03*
X69500D02*
D03*
X54500Y149728D02*
D03*
X59500D02*
D03*
X64500D02*
D03*
X69500D02*
D03*
D29*
X46905Y141500D02*
D03*
X35094D02*
D03*
D30*
X68000Y118957D02*
D03*
Y122500D02*
D03*
X73500Y90772D02*
D03*
Y87228D02*
D03*
X21500Y52772D02*
D03*
Y49228D02*
D03*
X18500D02*
D03*
Y52772D02*
D03*
X14000Y59272D02*
D03*
Y55728D02*
D03*
X28500Y129772D02*
D03*
Y126228D02*
D03*
X67500Y90543D02*
D03*
Y87000D02*
D03*
X28000Y56228D02*
D03*
Y59772D02*
D03*
X59500Y118957D02*
D03*
Y122500D02*
D03*
X64000Y118957D02*
D03*
Y122500D02*
D03*
D31*
X70087Y167500D02*
D03*
X55913D02*
D03*
D32*
X41000Y182012D02*
D03*
Y176500D02*
D03*
X40500Y135441D02*
D03*
Y129929D02*
D03*
X74500Y150244D02*
D03*
Y155756D02*
D03*
X46500Y152756D02*
D03*
Y147244D02*
D03*
X40000D02*
D03*
Y152756D02*
D03*
X47500Y135591D02*
D03*
Y130079D02*
D03*
X23000Y176500D02*
D03*
Y182012D02*
D03*
X47500D02*
D03*
Y176500D02*
D03*
X29500Y182012D02*
D03*
Y176500D02*
D03*
D33*
X15000Y176000D02*
D03*
Y179150D02*
D03*
X34500Y149925D02*
D03*
Y153075D02*
D03*
X35000Y132925D02*
D03*
Y136075D02*
D03*
Y176925D02*
D03*
Y180075D02*
D03*
D34*
X63500Y54500D02*
D03*
X66650D02*
D03*
X63500Y59000D02*
D03*
X66650D02*
D03*
X33500Y51000D02*
D03*
X36650D02*
D03*
Y55500D02*
D03*
X33500D02*
D03*
X63425Y44000D02*
D03*
X66575D02*
D03*
X37575Y123000D02*
D03*
X34425D02*
D03*
X36650Y60000D02*
D03*
X33500D02*
D03*
D35*
X43744Y123000D02*
D03*
X49256D02*
D03*
D36*
X18272Y42500D02*
D03*
X14728D02*
D03*
X28272Y49500D02*
D03*
X24728D02*
D03*
X63228Y48000D02*
D03*
X66772D02*
D03*
D37*
X73000Y45094D02*
D03*
Y56906D02*
D03*
D64*
X38110Y39301D02*
D03*
X40079D02*
D03*
X42047D02*
D03*
X44016D02*
D03*
X45984D02*
D03*
X47953D02*
D03*
X49921D02*
D03*
X51890D02*
D03*
D65*
X54449D02*
D03*
X57598D02*
D03*
X35551D02*
D03*
X32401D02*
D03*
D66*
X14000Y51238D02*
D03*
Y47000D02*
D03*
D67*
X15500Y145667D02*
D03*
X19738D02*
D03*
X15500Y138000D02*
D03*
X19738D02*
D03*
X15500Y149500D02*
D03*
X19738D02*
D03*
X15500Y141833D02*
D03*
X19738D02*
D03*
D68*
X18000Y58000D02*
D03*
X22500D02*
D03*
D69*
X47365Y41562D02*
Y41892D01*
X46572Y42356D02*
X46902D01*
X47365Y41562D02*
X47953Y40974D01*
X46052Y42875D02*
X46572Y42356D01*
X46902D02*
X47365Y41892D01*
X47953Y38801D02*
Y40974D01*
X44674Y42875D02*
X46052D01*
X44216Y37238D02*
Y42417D01*
X42247Y39301D02*
Y41544D01*
X44216Y42417D02*
X44674Y42875D01*
X42247Y36928D02*
Y39301D01*
X39156Y45670D02*
X42441Y42386D01*
X20063Y44489D02*
X38511D01*
X20776Y45670D02*
X39156D01*
X21266Y46852D02*
X39645D01*
X43622Y42875D01*
X38511Y44489D02*
X40079Y42921D01*
X43816Y37238D02*
Y41544D01*
X43622Y41738D02*
Y42875D01*
X43816Y37238D02*
X44216D01*
X42441Y41738D02*
Y42386D01*
X40079Y38801D02*
Y42921D01*
X18000Y58408D02*
X19659Y60067D01*
X20841D02*
Y60749D01*
X18000Y57592D02*
Y58000D01*
X19659Y60067D02*
Y61238D01*
X21268Y62847D01*
X22601D01*
X22500Y58000D02*
Y58408D01*
X20841Y60067D02*
X22500Y58408D01*
X23090Y61665D02*
X24843Y63418D01*
X21758Y61665D02*
X23090D01*
X20841Y60749D02*
X21758Y61665D01*
X18000Y58000D02*
Y58408D01*
X22601Y62847D02*
X23661Y63907D01*
X22500Y57592D02*
Y58000D01*
X18272Y42697D02*
X20063Y44489D01*
X18272Y42500D02*
Y42697D01*
X19626Y46820D02*
Y47475D01*
X20808Y47310D02*
Y48733D01*
X19626Y46820D02*
X20776Y45670D01*
X20808Y47310D02*
X21266Y46852D01*
X19192Y47910D02*
X19626Y47475D01*
X23661Y63907D02*
Y65079D01*
X22677Y66064D02*
X23661Y65079D01*
X22677Y66064D02*
Y67048D01*
X24843Y63418D02*
Y65079D01*
X25827Y66064D01*
Y67048D01*
X18500Y52772D02*
X18697D01*
X19192Y53267D01*
Y54090D02*
X19573Y54472D01*
Y55165D01*
X19659Y55251D01*
Y55933D01*
X18000Y57592D02*
X19659Y55933D01*
X20755Y54029D02*
Y54676D01*
X20841Y54762D01*
X19192Y53267D02*
Y54090D01*
X20808Y53267D02*
X21303Y52772D01*
X20808Y53267D02*
Y53976D01*
X20755Y54029D02*
X20808Y53976D01*
X21303Y52772D02*
X21500D01*
X20841Y54762D02*
Y55933D01*
X22500Y57592D01*
X45784Y38202D02*
X46184Y38601D01*
X18500Y49228D02*
X18697D01*
X19192Y48733D01*
Y47910D02*
Y48733D01*
X21303Y49228D02*
X21500D01*
X20808Y48733D02*
X21303Y49228D01*
X42247Y41544D02*
X42441Y41738D01*
X43622D02*
X43816Y41544D01*
X45784Y36597D02*
Y38202D01*
X44934Y35746D02*
X45784Y36597D01*
X43098Y35746D02*
X44934D01*
X42635Y36210D02*
X43098Y35746D01*
X42635Y36210D02*
Y36540D01*
X42247Y36928D02*
X42635Y36540D01*
X45984Y38801D02*
X46184Y38601D01*
D70*
X28500Y121500D02*
X33727Y116272D01*
X36591D01*
X37059Y115541D02*
Y115804D01*
Y115541D02*
X37528Y115073D01*
X37841D01*
X38425Y114488D01*
X36591Y116272D02*
X37059Y115804D01*
X28500Y121500D02*
Y126228D01*
X38425Y113504D02*
Y114488D01*
X34110Y123315D02*
X34425Y123000D01*
X32039Y123539D02*
X32263Y123315D01*
X34110D01*
X19928Y141833D02*
X21506Y140255D01*
X19738Y135737D02*
Y138000D01*
Y135737D02*
X20251Y135224D01*
X21892D02*
X22116Y135000D01*
X20251Y135224D02*
X21892D01*
X21506Y140255D02*
X21892D01*
X22116Y140031D01*
X20516Y137412D02*
X23349D01*
X23531Y153500D02*
X24453Y152578D01*
Y138516D02*
Y152578D01*
X16053Y153500D02*
X23531D01*
X22800Y144705D02*
Y151531D01*
X23349Y137412D02*
X24453Y138516D01*
X19928Y141833D02*
X22800Y144705D01*
X17000Y152000D02*
X22331D01*
X22800Y151531D01*
X48796Y47779D02*
X51890Y44685D01*
X41925Y48043D02*
X42188Y47779D01*
X48796D01*
X44500Y45979D02*
X44521Y46000D01*
X31500Y48043D02*
X41925D01*
X28587Y49185D02*
X30358D01*
X31500Y48043D01*
X28272Y49500D02*
X28587Y49185D01*
X57332Y117332D02*
X57556Y117556D01*
X57902D02*
X59303Y118957D01*
X57556Y117556D02*
X57902D01*
X59500Y93835D02*
X63327Y90008D01*
X64295D01*
X67303Y87000D01*
X59500Y93835D02*
Y110616D01*
X67303Y87000D02*
X67500D01*
X35275Y112520D02*
X37059Y110735D01*
X35275Y112520D02*
Y113504D01*
X37059Y110735D02*
X52339D01*
X52561Y110958D01*
X58841D01*
X59184Y110616D01*
X59500D01*
X15500Y135500D02*
Y141833D01*
Y135500D02*
X17500Y133500D01*
X19928Y138000D02*
X20516Y137412D01*
X13447Y150894D02*
X16053Y153500D01*
X13447Y147530D02*
Y150894D01*
Y147530D02*
X15310Y145667D01*
X15500D01*
X40000Y28000D02*
X66500D01*
X71500Y33000D01*
X24500Y102346D02*
Y108500D01*
X20900Y97254D02*
Y98746D01*
X21102Y89603D02*
Y97052D01*
X20900Y97254D02*
X21102Y97052D01*
X20900Y98746D02*
X24500Y102346D01*
X21300Y85754D02*
Y89406D01*
X18943Y96759D02*
X19127Y96943D01*
X15590Y96575D02*
X15774Y96759D01*
X18943D01*
X21102Y89603D02*
X21300Y89406D01*
X19523Y83977D02*
X21300Y85754D01*
X70344Y108427D02*
Y112325D01*
X70000Y112669D02*
X70344Y112325D01*
X15728Y90138D02*
X19164D01*
X19302Y90000D01*
X15590Y83977D02*
X19523D01*
X18935Y106024D02*
X20459Y104500D01*
X20500D01*
X15590Y87126D02*
X18558D01*
X19184Y86500D02*
X19500D01*
X18558Y87126D02*
X19184Y86500D01*
X15590Y90276D02*
X15728Y90138D01*
X22593Y123500D02*
X25000D01*
X22021Y122928D02*
X22593Y123500D01*
X17684Y122500D02*
X18000D01*
X14817Y122928D02*
X17255D01*
X17684Y122500D01*
X64197Y118957D02*
X68000D01*
X64000D02*
X64197D01*
X64683Y118471D01*
X65019Y116404D02*
Y117937D01*
Y116404D02*
X65243Y116181D01*
X64683Y118274D02*
Y118471D01*
Y118274D02*
X65019Y117937D01*
X74500Y151244D02*
X74500Y151244D01*
X74500Y148000D02*
Y151244D01*
X67803Y122500D02*
X68000D01*
X67317Y122986D02*
X67803Y122500D01*
X67317Y122986D02*
Y124103D01*
X67000Y124420D02*
X67317Y124103D01*
X67000Y124420D02*
Y124736D01*
X69500Y124217D02*
Y128272D01*
Y124217D02*
X70567Y123150D01*
Y123000D02*
Y123150D01*
X16000Y150000D02*
Y151000D01*
X15500Y149500D02*
X16000Y150000D01*
Y151000D02*
X17000Y152000D01*
X19738Y141833D02*
X19928D01*
X59303Y118957D02*
X59500D01*
X20381Y109055D02*
X20500Y108935D01*
X15590Y109174D02*
X15709Y109055D01*
X20381D01*
X38276Y158724D02*
X38500Y158500D01*
X36000Y160150D02*
Y160800D01*
Y160150D02*
X37426Y158724D01*
X38276D01*
X22800Y160000D02*
X25666D01*
X22500Y160300D02*
X22800Y160000D01*
X31000Y51000D02*
X33500D01*
X31000Y60000D02*
X33500D01*
X31000Y55500D02*
X33500D01*
X70000Y90531D02*
X73303Y87228D01*
X36950Y168866D02*
X37276Y168540D01*
Y167224D02*
Y168540D01*
Y167224D02*
X37500Y167000D01*
X36950Y168866D02*
Y170050D01*
X36000Y171000D02*
X36950Y170050D01*
X23450Y169500D02*
X25000D01*
X23000Y169950D02*
Y170450D01*
Y169950D02*
X23450Y169500D01*
X32000Y161000D02*
Y165000D01*
Y161000D02*
X32200Y160800D01*
X19000Y160500D02*
X19200Y160300D01*
X19000Y160500D02*
Y164500D01*
X14197Y59272D02*
X16776Y61851D01*
Y62276D02*
X17000Y62500D01*
X14000Y59272D02*
X14197D01*
X16776Y61851D02*
Y62276D01*
X17000Y30316D02*
X17500Y30816D01*
Y36669D01*
X17000Y30000D02*
Y30316D01*
X15590Y106024D02*
X18935D01*
X16278Y142396D02*
X19548Y145667D01*
X16063Y142396D02*
X16278D01*
X19548Y145667D02*
X19738D01*
X15500Y141833D02*
X16063Y142396D01*
X19738Y145667D02*
Y149500D01*
X16574Y102874D02*
X17725Y101724D01*
X18776D01*
X19000Y101500D01*
X15590Y102874D02*
X16574D01*
X15674Y74444D02*
X19240D01*
X20184Y73500D02*
X20500D01*
X19240Y74444D02*
X20184Y73500D01*
X19684Y80000D02*
X20000D01*
X15590Y80827D02*
X18857D01*
X19684Y80000D01*
X15590Y74528D02*
X15674Y74444D01*
X19684Y76770D02*
X20000D01*
X15590Y77677D02*
X18777D01*
X19684Y76770D01*
X16000Y45184D02*
Y45500D01*
X14728Y42500D02*
X15214Y42986D01*
Y44398D01*
X16000Y45184D01*
X14000Y46810D02*
X15087Y45724D01*
X15776D01*
X16000Y45500D01*
X14000Y46810D02*
Y47000D01*
Y51238D02*
Y55728D01*
X70000Y90531D02*
Y96331D01*
X73303Y87228D02*
X73500D01*
X51890Y38801D02*
Y44685D01*
D71*
X35551Y38801D02*
Y42448D01*
X70000Y41500D02*
X70980D01*
X73000Y43520D02*
Y45094D01*
X70980Y41500D02*
X73000Y43520D01*
X54449Y38801D02*
X54500Y38852D01*
Y43000D01*
D72*
X15500Y167000D02*
Y170500D01*
X44000Y136016D02*
X47425D01*
X40575D02*
X44000D01*
X40000Y147244D02*
X46500D01*
X46905Y136469D02*
Y141500D01*
X46500Y141905D02*
Y147244D01*
X35000Y136575D02*
X36000D01*
X36634Y135941D01*
X40500D01*
X40575Y136016D01*
X47284Y136091D02*
X47500D01*
X46905Y136469D02*
X47284Y136091D01*
X46500Y141905D02*
X46905Y141500D01*
X36803Y147622D02*
X39622D01*
X34500Y149925D02*
X36803Y147622D01*
X39622D02*
X40000Y147244D01*
X57598Y38801D02*
X57779Y38982D01*
Y40779D01*
X59500Y42500D01*
X31000Y42000D02*
X32220Y40780D01*
Y38982D02*
X32401Y38801D01*
X32220Y38982D02*
Y40780D01*
X51500Y53500D02*
X55413D01*
X59000D01*
D73*
X27992Y37037D02*
D03*
X62008D02*
D03*
D74*
X27992Y20699D02*
D03*
X62008D02*
D03*
D75*
X48500Y71500D02*
D03*
X51000Y118000D02*
D03*
X32039Y123539D02*
D03*
X14500Y131000D02*
D03*
X22116Y140031D02*
D03*
Y135000D02*
D03*
X14500Y156000D02*
D03*
X38500Y74500D02*
D03*
X44500Y45979D02*
D03*
X15500Y167000D02*
D03*
X57332Y117332D02*
D03*
X59500Y110616D02*
D03*
X17500Y133500D02*
D03*
X35551Y42448D02*
D03*
X70000Y41500D02*
D03*
X38000Y119000D02*
D03*
X40982Y119109D02*
D03*
X40000Y28000D02*
D03*
X24500Y108500D02*
D03*
X63125Y88208D02*
D03*
X63500Y92500D02*
D03*
X28500Y132500D02*
D03*
X24416Y98000D02*
D03*
X19127Y96943D02*
D03*
X30793Y135255D02*
D03*
X26500Y54500D02*
D03*
X40000Y50000D02*
D03*
Y53500D02*
D03*
Y57000D02*
D03*
Y60500D02*
D03*
X17500Y20331D02*
D03*
X69500Y54500D02*
D03*
Y59500D02*
D03*
X63500Y107500D02*
D03*
X63344Y78927D02*
D03*
Y97927D02*
D03*
X70344Y108427D02*
D03*
X55500Y182500D02*
D03*
X14384Y183391D02*
D03*
X33500Y183000D02*
D03*
X60500Y141000D02*
D03*
X64000D02*
D03*
X67500D02*
D03*
X57000D02*
D03*
X60500Y137000D02*
D03*
X64000D02*
D03*
X67500D02*
D03*
X57000D02*
D03*
X30500Y148000D02*
D03*
X31500Y145000D02*
D03*
X22902Y90349D02*
D03*
X19302Y90000D02*
D03*
X20500Y104500D02*
D03*
X19500Y86500D02*
D03*
X27984Y117273D02*
D03*
X27500Y102500D02*
D03*
X25000Y123500D02*
D03*
X18000Y122500D02*
D03*
X65243Y116181D02*
D03*
X59500Y56500D02*
D03*
Y60000D02*
D03*
X34500Y145000D02*
D03*
X74500Y148000D02*
D03*
X67000Y124736D02*
D03*
X70567Y123000D02*
D03*
X20500Y108935D02*
D03*
X38500Y158500D02*
D03*
X25666Y160000D02*
D03*
X31000Y51000D02*
D03*
Y60000D02*
D03*
Y55500D02*
D03*
X27500Y63000D02*
D03*
X32500Y130000D02*
D03*
X51000Y178000D02*
D03*
Y174500D02*
D03*
X19000Y172500D02*
D03*
Y177000D02*
D03*
X67000Y157000D02*
D03*
X69000Y160000D02*
D03*
X65000D02*
D03*
X70067Y90000D02*
D03*
X38000Y182000D02*
D03*
X70500Y181500D02*
D03*
X37500Y167000D02*
D03*
X25000Y169500D02*
D03*
X32000Y165000D02*
D03*
X19000Y164500D02*
D03*
X17000Y62500D02*
D03*
Y30000D02*
D03*
X71500Y33000D02*
D03*
X19000Y101500D02*
D03*
X20500Y73500D02*
D03*
X20000Y80000D02*
D03*
Y76770D02*
D03*
X16000Y45500D02*
D03*
X70500Y76000D02*
D03*
X27500Y77500D02*
D03*
X22500Y82500D02*
D03*
X47500Y90500D02*
D03*
Y82500D02*
D03*
Y98500D02*
D03*
X43000Y102500D02*
D03*
X39500Y72000D02*
D03*
X34000Y127500D02*
D03*
X35500Y130000D02*
D03*
X44000Y136016D02*
D03*
X59500Y42500D02*
D03*
X31000Y42000D02*
D03*
X54500Y43000D02*
D03*
X51500Y53500D02*
D03*
X59000D02*
D03*
D76*
X72000Y20331D02*
D03*
M02*
